G04 Layer_Color=8388736*
%FSLAX24Y24*%
%MOIN*%
G70*
G01*
G75*
%ADD75C,0.0240*%
%ADD76R,0.0336X0.0178*%
%ADD77R,0.0702X0.0749*%
%ADD78C,0.0139*%
%ADD79R,0.0729X0.0666*%
%ADD80O,0.0139X0.0336*%
%ADD81O,0.0336X0.0139*%
%ADD82R,0.0308X0.0387*%
%ADD83C,0.0370*%
%ADD84R,0.0635X0.0595*%
%ADD85R,0.0178X0.0355*%
%ADD86R,0.0788X0.0375*%
%ADD87R,0.0454X0.0769*%
%ADD88R,0.1910X0.1910*%
%ADD89O,0.0316X0.0139*%
%ADD90O,0.0139X0.0316*%
%ADD91R,0.0395X0.0434*%
%ADD92R,0.0355X0.0375*%
G04:AMPARAMS|DCode=93|XSize=25.7mil|YSize=31.6mil|CornerRadius=0mil|HoleSize=0mil|Usage=FLASHONLY|Rotation=310.000|XOffset=0mil|YOffset=0mil|HoleType=Round|Shape=Rectangle|*
%AMROTATEDRECTD93*
4,1,4,-0.0204,-0.0003,0.0038,0.0200,0.0204,0.0003,-0.0038,-0.0200,-0.0204,-0.0003,0.0*
%
%ADD93ROTATEDRECTD93*%

G04:AMPARAMS|DCode=94|XSize=37.5mil|YSize=35.5mil|CornerRadius=0mil|HoleSize=0mil|Usage=FLASHONLY|Rotation=310.000|XOffset=0mil|YOffset=0mil|HoleType=Round|Shape=Rectangle|*
%AMROTATEDRECTD94*
4,1,4,-0.0257,0.0029,0.0016,0.0258,0.0257,-0.0029,-0.0016,-0.0258,-0.0257,0.0029,0.0*
%
%ADD94ROTATEDRECTD94*%

%ADD95R,0.0237X0.0237*%
%ADD96R,0.0296X0.0257*%
%ADD97R,0.0460X0.0360*%
%ADD98R,0.0296X0.0572*%
%ADD99C,0.0454*%
%ADD100R,0.0277X0.0296*%
%ADD101R,0.0296X0.0277*%
%ADD102R,0.0257X0.0296*%
%ADD103R,0.0257X0.0316*%
%ADD104R,0.0316X0.0257*%
%ADD105O,0.0414X0.0690*%
%ADD106R,0.0454X0.0454*%
%ADD107C,0.0572*%
%ADD108R,0.0572X0.0572*%
%ADD109C,0.0300*%
%ADD110C,0.0769*%
%ADD111C,0.0651*%
D75*
X8870Y1106D02*
G03*
X8870Y1106I-110J0D01*
G01*
X1651Y1772D02*
G03*
X1651Y1772I-110J0D01*
G01*
X9795Y1689D02*
G03*
X9795Y1689I-110J0D01*
G01*
X10809Y329D02*
G03*
X10809Y329I-110J0D01*
G01*
D76*
X6706Y7321D02*
D03*
Y7912D02*
D03*
X7848Y7321D02*
D03*
Y7518D02*
D03*
Y7715D02*
D03*
Y7912D02*
D03*
X6706Y7518D02*
D03*
Y7715D02*
D03*
D77*
X7277Y7617D02*
D03*
D78*
X8760Y984D02*
D03*
Y1230D02*
D03*
X1663Y1772D02*
D03*
X1417D02*
D03*
X9685Y1811D02*
D03*
Y1565D02*
D03*
X10699Y207D02*
D03*
Y453D02*
D03*
D79*
X5335Y8878D02*
D03*
D80*
X5728Y8268D02*
D03*
X5571D02*
D03*
X5413D02*
D03*
X5256D02*
D03*
X5098D02*
D03*
X4941D02*
D03*
Y9488D02*
D03*
X5098D02*
D03*
X5256D02*
D03*
X5413D02*
D03*
X5571D02*
D03*
X5728D02*
D03*
D81*
X4724Y8484D02*
D03*
Y8642D02*
D03*
Y8799D02*
D03*
Y8957D02*
D03*
Y9114D02*
D03*
Y9272D02*
D03*
X5945D02*
D03*
Y9114D02*
D03*
Y8957D02*
D03*
Y8799D02*
D03*
Y8642D02*
D03*
Y8484D02*
D03*
D82*
X7835Y9409D02*
D03*
X6969D02*
D03*
D83*
X1994Y2272D02*
D03*
Y1772D02*
D03*
Y1272D02*
D03*
X2494D02*
D03*
Y1772D02*
D03*
Y2272D02*
D03*
D84*
X4183Y6535D02*
D03*
D85*
X4085Y7126D02*
D03*
X4281D02*
D03*
X4478D02*
D03*
X3888D02*
D03*
Y5945D02*
D03*
X4085D02*
D03*
X4478D02*
D03*
X4281D02*
D03*
D86*
X5300Y-1631D02*
D03*
Y-2969D02*
D03*
D87*
X7185Y5463D02*
D03*
X6201D02*
D03*
D88*
X5505Y3410D02*
D03*
D89*
X6696Y4276D02*
D03*
Y4119D02*
D03*
Y3961D02*
D03*
Y3804D02*
D03*
Y3646D02*
D03*
Y3489D02*
D03*
Y3331D02*
D03*
Y3174D02*
D03*
Y3016D02*
D03*
Y2859D02*
D03*
Y2701D02*
D03*
Y2544D02*
D03*
X4314D02*
D03*
Y2701D02*
D03*
Y2859D02*
D03*
Y3016D02*
D03*
Y3174D02*
D03*
Y3331D02*
D03*
Y3489D02*
D03*
Y3646D02*
D03*
Y3804D02*
D03*
Y3961D02*
D03*
Y4119D02*
D03*
Y4276D02*
D03*
D90*
X6371Y2219D02*
D03*
X6214D02*
D03*
X6056D02*
D03*
X5899D02*
D03*
X5741D02*
D03*
X5584D02*
D03*
X5426D02*
D03*
X5269D02*
D03*
X5111D02*
D03*
X4954D02*
D03*
X4796D02*
D03*
X4639D02*
D03*
Y4601D02*
D03*
X4796D02*
D03*
X4954D02*
D03*
X5111D02*
D03*
X5269D02*
D03*
X5426D02*
D03*
X5584D02*
D03*
X5741D02*
D03*
X5899D02*
D03*
X6056D02*
D03*
X6214D02*
D03*
X6371D02*
D03*
D91*
X7089Y1425D02*
D03*
X7541D02*
D03*
Y855D02*
D03*
X7089D02*
D03*
D92*
X7904Y4016D02*
D03*
X7372D02*
D03*
X7096Y4488D02*
D03*
X7628D02*
D03*
D93*
X8321Y4329D02*
D03*
X8608Y4569D02*
D03*
D94*
X8944Y4265D02*
D03*
X8537Y3924D02*
D03*
D95*
X-758Y12234D02*
D03*
Y12569D02*
D03*
X-423D02*
D03*
Y12234D02*
D03*
X11053D02*
D03*
Y12569D02*
D03*
X11388D02*
D03*
Y12234D02*
D03*
X-758Y-758D02*
D03*
Y-423D02*
D03*
X-423D02*
D03*
Y-758D02*
D03*
X11053D02*
D03*
Y-423D02*
D03*
X11388D02*
D03*
Y-758D02*
D03*
D96*
X7913Y8583D02*
D03*
X7520D02*
D03*
X7512Y440D02*
D03*
X7118D02*
D03*
X7118Y1840D02*
D03*
X7512D02*
D03*
X5702Y1760D02*
D03*
X5308D02*
D03*
X7057Y4892D02*
D03*
X7451D02*
D03*
X7118Y2190D02*
D03*
X7512D02*
D03*
X6969Y6004D02*
D03*
X6575D02*
D03*
X5689Y6004D02*
D03*
X6083D02*
D03*
X5645Y9921D02*
D03*
X6039D02*
D03*
X4843Y9921D02*
D03*
X5236D02*
D03*
X9227Y11520D02*
D03*
X8833D02*
D03*
D97*
X1606Y4900D02*
D03*
Y5648D02*
D03*
X779Y5274D02*
D03*
X1606Y9890D02*
D03*
Y10638D02*
D03*
X779Y10264D02*
D03*
X1606Y8227D02*
D03*
Y8975D02*
D03*
X779Y8601D02*
D03*
X1606Y6563D02*
D03*
Y7311D02*
D03*
X779Y6937D02*
D03*
D98*
X9343Y10075D02*
D03*
X8851D02*
D03*
X8359D02*
D03*
X7866D02*
D03*
Y11000D02*
D03*
X8359D02*
D03*
X8851D02*
D03*
X9343D02*
D03*
D99*
X4902Y10748D02*
D03*
X6142D02*
D03*
X8710Y7500D02*
D03*
X9252Y7510D02*
D03*
X5000Y6929D02*
D03*
X4350Y9951D02*
D03*
X5512Y10748D02*
D03*
X8740Y9488D02*
D03*
X2564Y5550D02*
D03*
Y7217D02*
D03*
Y8883D02*
D03*
Y10550D02*
D03*
D100*
X7283Y11417D02*
D03*
Y11024D02*
D03*
X3573Y6073D02*
D03*
Y6467D02*
D03*
X20Y-103D02*
D03*
Y-497D02*
D03*
X10500Y-103D02*
D03*
Y-497D02*
D03*
X6230Y7461D02*
D03*
Y7854D02*
D03*
X8300Y7697D02*
D03*
Y7303D02*
D03*
X10600Y11903D02*
D03*
Y12297D02*
D03*
X100Y11903D02*
D03*
Y12297D02*
D03*
X2000Y5697D02*
D03*
Y5303D02*
D03*
Y7347D02*
D03*
Y6953D02*
D03*
Y4553D02*
D03*
Y4947D02*
D03*
Y6203D02*
D03*
Y6597D02*
D03*
Y8997D02*
D03*
Y8603D02*
D03*
X2050Y10647D02*
D03*
Y10253D02*
D03*
X2000Y7853D02*
D03*
Y8247D02*
D03*
X2050Y9503D02*
D03*
Y9897D02*
D03*
D101*
X4370Y5531D02*
D03*
X3976D02*
D03*
X9157Y8820D02*
D03*
X8763D02*
D03*
X-306Y-1100D02*
D03*
X-700D02*
D03*
X-423Y0D02*
D03*
X-817D02*
D03*
X11297Y-100D02*
D03*
X10903D02*
D03*
X6732Y8583D02*
D03*
X7126D02*
D03*
X10903Y-1100D02*
D03*
X11297D02*
D03*
X10903Y12900D02*
D03*
X11297D02*
D03*
X10983Y11900D02*
D03*
X11377D02*
D03*
X-353D02*
D03*
X-747D02*
D03*
X3937Y7756D02*
D03*
X3543D02*
D03*
X3937Y8307D02*
D03*
X3543D02*
D03*
X-403Y12900D02*
D03*
X-797D02*
D03*
D102*
X3937Y4331D02*
D03*
Y4724D02*
D03*
X6185Y1133D02*
D03*
Y1527D02*
D03*
X6535Y1527D02*
D03*
Y1133D02*
D03*
X8300Y8487D02*
D03*
Y8093D02*
D03*
X4331Y8888D02*
D03*
Y9281D02*
D03*
X5305Y597D02*
D03*
Y203D02*
D03*
D103*
Y1013D02*
D03*
Y1387D02*
D03*
Y-1026D02*
D03*
Y-652D02*
D03*
D104*
X5287Y-200D02*
D03*
X4913D02*
D03*
D105*
X4031Y10873D02*
D03*
X6629D02*
D03*
D106*
X2564Y5050D02*
D03*
Y6717D02*
D03*
Y8383D02*
D03*
Y10050D02*
D03*
D107*
X9370Y5610D02*
D03*
D108*
Y6201D02*
D03*
D109*
X9153Y8317D02*
D03*
X8720D02*
D03*
X9153Y7883D02*
D03*
X8720D02*
D03*
D110*
X10820Y5930D02*
D03*
Y6930D02*
D03*
Y1930D02*
D03*
Y2930D02*
D03*
X-180Y4930D02*
D03*
Y5930D02*
D03*
X10820Y4930D02*
D03*
X-180Y3930D02*
D03*
Y8930D02*
D03*
Y7930D02*
D03*
Y6930D02*
D03*
X10820Y3930D02*
D03*
Y9930D02*
D03*
Y8930D02*
D03*
X-180Y1930D02*
D03*
Y9930D02*
D03*
Y2930D02*
D03*
X10820Y7930D02*
D03*
D111*
Y930D02*
D03*
X-180Y10930D02*
D03*
X8820Y1930D02*
D03*
X-180Y930D02*
D03*
X10820Y10930D02*
D03*
M02*
