G04 Layer_Physical_Order=3*
G04 Layer_Color=16440176*
%FSLAX24Y24*%
%MOIN*%
G70*
G01*
G75*
%ADD50C,0.0240*%
%ADD52C,0.0709*%
G36*
X12072Y12815D02*
Y12255D01*
X11239Y11422D01*
X11200Y11454D01*
X11207Y11464D01*
X11224Y11550D01*
X11207Y11636D01*
X11159Y11709D01*
X11086Y11757D01*
X11000Y11774D01*
X10914Y11757D01*
X10841Y11709D01*
X10793Y11636D01*
X10776Y11550D01*
X10793Y11464D01*
X10841Y11391D01*
X10870Y11373D01*
X10851Y11325D01*
X10820Y11329D01*
X10717Y11315D01*
X10688Y11303D01*
X10644Y11327D01*
X10640Y11346D01*
X10592Y11418D01*
X10519Y11467D01*
X10433Y11484D01*
X10347Y11467D01*
X10274Y11418D01*
X10226Y11346D01*
X10209Y11260D01*
X10226Y11174D01*
X10274Y11101D01*
X10347Y11053D01*
X10389Y11044D01*
X10433Y11034D01*
X10429Y10989D01*
X10421Y10930D01*
X10435Y10827D01*
X10475Y10731D01*
X10494Y10705D01*
X10474Y10650D01*
X10426Y10640D01*
X10353Y10592D01*
X10305Y10519D01*
X10287Y10433D01*
X10305Y10347D01*
X10353Y10274D01*
X10416Y10232D01*
X10438Y10178D01*
X10423Y10159D01*
X10377Y10049D01*
X10362Y9930D01*
X10377Y9811D01*
X10416Y9717D01*
X10416Y9688D01*
X10397Y9653D01*
X10343Y9617D01*
X10295Y9545D01*
X10278Y9459D01*
X10295Y9373D01*
X10343Y9300D01*
X10416Y9251D01*
X10437Y9247D01*
X10455Y9200D01*
X10423Y9159D01*
X10377Y9049D01*
X10362Y8930D01*
X10377Y8811D01*
X10423Y8701D01*
X10423Y8701D01*
X10415Y8651D01*
X10373Y8623D01*
X10324Y8550D01*
X10307Y8465D01*
X10324Y8379D01*
X10373Y8306D01*
X10439Y8262D01*
X10452Y8239D01*
X10463Y8211D01*
X10423Y8159D01*
X10377Y8049D01*
X10362Y7930D01*
X10377Y7811D01*
X10423Y7701D01*
X10496Y7606D01*
X10510Y7595D01*
X10508Y7545D01*
X10471Y7521D01*
X10423Y7448D01*
X10416Y7412D01*
X10630D01*
Y7312D01*
X10416D01*
X10423Y7276D01*
X10465Y7213D01*
X10423Y7159D01*
X10377Y7049D01*
X10362Y6930D01*
X10377Y6811D01*
X10423Y6701D01*
X10462Y6650D01*
X10460Y6642D01*
X10438Y6600D01*
X10373Y6556D01*
X10324Y6483D01*
X10307Y6398D01*
X10324Y6312D01*
X10373Y6239D01*
X10405Y6218D01*
X10423Y6159D01*
X10420Y6152D01*
X10377Y6049D01*
X10362Y5930D01*
X10377Y5811D01*
X10423Y5701D01*
X10434Y5687D01*
X10417Y5627D01*
X10363Y5592D01*
X10314Y5519D01*
X10297Y5433D01*
X10314Y5347D01*
X10363Y5274D01*
X10420Y5237D01*
X10438Y5178D01*
X10423Y5159D01*
X10377Y5049D01*
X10362Y4930D01*
X10377Y4811D01*
X10423Y4701D01*
X10496Y4606D01*
X10591Y4533D01*
X10660Y4504D01*
Y4356D01*
X10591Y4327D01*
X10496Y4254D01*
X10423Y4159D01*
X10377Y4049D01*
X10362Y3930D01*
X10377Y3811D01*
X10423Y3701D01*
X10463Y3649D01*
X10455Y3599D01*
X10432Y3584D01*
X10383Y3511D01*
X10366Y3425D01*
X10383Y3339D01*
X10432Y3267D01*
X10450Y3254D01*
X10458Y3205D01*
X10423Y3159D01*
X10377Y3049D01*
X10362Y2930D01*
X10377Y2811D01*
X10423Y2701D01*
X10406Y2641D01*
X10373Y2619D01*
X10324Y2546D01*
X10307Y2461D01*
X10324Y2375D01*
X10373Y2302D01*
X10437Y2259D01*
X10460Y2208D01*
X10423Y2159D01*
X10377Y2049D01*
X10362Y1930D01*
X10377Y1811D01*
X10423Y1701D01*
X10469Y1641D01*
X10448Y1586D01*
X10446Y1585D01*
X10373Y1537D01*
X10324Y1464D01*
X10307Y1378D01*
X10324Y1292D01*
X10373Y1219D01*
X10444Y1172D01*
X10451Y1166D01*
X10469Y1115D01*
X10435Y1033D01*
X10421Y930D01*
X10428Y881D01*
X10391Y847D01*
X10354Y854D01*
X10268Y837D01*
X10196Y789D01*
X10147Y716D01*
X10130Y630D01*
X10147Y544D01*
X10196Y471D01*
X10268Y423D01*
X10354Y406D01*
X10440Y423D01*
X10513Y471D01*
X10562Y544D01*
X10567Y572D01*
X10614Y590D01*
X10621Y585D01*
X10717Y545D01*
X10820Y531D01*
X10923Y545D01*
X11019Y585D01*
X11043Y603D01*
X11091Y576D01*
X11098Y540D01*
X11127Y497D01*
X11479Y144D01*
X11473Y80D01*
X11441Y59D01*
X11393Y-14D01*
X11376Y-100D01*
X11393Y-186D01*
X11441Y-259D01*
X11460Y-271D01*
X11415Y-337D01*
X11408Y-373D01*
X11837D01*
X11830Y-337D01*
X11789Y-276D01*
X11801Y-237D01*
X11809Y-235D01*
X11856Y-232D01*
X12072Y-449D01*
Y-992D01*
X11621Y-1467D01*
X11104D01*
X10210Y-574D01*
X10217Y-510D01*
X10249Y-489D01*
X10297Y-416D01*
X10314Y-330D01*
X10297Y-244D01*
X10249Y-171D01*
X10176Y-123D01*
X10090Y-106D01*
X10004Y-123D01*
X9931Y-171D01*
X9910Y-203D01*
X9846Y-210D01*
X9293Y344D01*
X9250Y372D01*
X9199Y383D01*
X9059D01*
X9036Y427D01*
X9047Y444D01*
X9064Y530D01*
X9047Y616D01*
X8999Y689D01*
X8926Y737D01*
X8840Y754D01*
X8754Y737D01*
X8681Y689D01*
X8633Y616D01*
X8616Y530D01*
X8633Y444D01*
X8644Y427D01*
X8621Y383D01*
X8547D01*
X8524Y427D01*
X8532Y439D01*
X8549Y525D01*
X8532Y610D01*
X8483Y683D01*
X8410Y732D01*
X8325Y749D01*
X8239Y732D01*
X8166Y683D01*
X8117Y610D01*
X8100Y525D01*
X8117Y439D01*
X8125Y427D01*
X8102Y383D01*
X7890D01*
X7839Y372D01*
X7796Y344D01*
X7585Y133D01*
X7362D01*
X7331Y183D01*
X7344Y250D01*
X7327Y336D01*
X7279Y409D01*
X7206Y457D01*
X7120Y474D01*
X7062Y463D01*
X7057Y486D01*
X7009Y559D01*
X6936Y607D01*
X6850Y624D01*
X6764Y607D01*
X6691Y559D01*
X6643Y486D01*
X6629Y418D01*
X6600Y424D01*
X6550Y414D01*
X6500Y453D01*
Y626D01*
X6586Y643D01*
X6659Y691D01*
X6667Y704D01*
X6733Y691D01*
X6819Y708D01*
X6892Y756D01*
X6941Y829D01*
X6958Y915D01*
X6941Y1001D01*
X6892Y1074D01*
X6819Y1122D01*
X6733Y1139D01*
X6648Y1122D01*
X6575Y1074D01*
X6566Y1061D01*
X6500Y1074D01*
Y2550D01*
X6442D01*
X6419Y2594D01*
X6430Y2612D01*
X6448Y2701D01*
X6430Y2791D01*
X6379Y2867D01*
X6316Y2910D01*
X6312Y2922D01*
Y2953D01*
X6316Y2965D01*
X6379Y3008D01*
X6430Y3084D01*
X6448Y3174D01*
X6430Y3263D01*
X6379Y3340D01*
X6316Y3382D01*
X6312Y3395D01*
Y3425D01*
X6316Y3438D01*
X6379Y3480D01*
X6430Y3557D01*
X6448Y3646D01*
X6430Y3736D01*
X6379Y3812D01*
X6316Y3855D01*
X6312Y3867D01*
Y3898D01*
X6316Y3910D01*
X6379Y3953D01*
X6430Y4029D01*
X6448Y4119D01*
X6430Y4208D01*
X6379Y4284D01*
X6303Y4335D01*
X6214Y4353D01*
X6124Y4335D01*
X6048Y4284D01*
X6005Y4221D01*
X5993Y4217D01*
X5962D01*
X5950Y4221D01*
X5907Y4284D01*
X5831Y4335D01*
X5741Y4353D01*
X5652Y4335D01*
X5575Y4284D01*
X5533Y4221D01*
X5520Y4217D01*
X5490D01*
X5477Y4221D01*
X5435Y4284D01*
X5358Y4335D01*
X5269Y4353D01*
X5179Y4335D01*
X5103Y4284D01*
X5060Y4221D01*
X5048Y4217D01*
X5017D01*
X5005Y4221D01*
X4962Y4284D01*
X4886Y4335D01*
X4796Y4353D01*
X4707Y4335D01*
X4631Y4284D01*
X4580Y4208D01*
X4562Y4119D01*
X4580Y4029D01*
X4631Y3953D01*
X4694Y3910D01*
X4698Y3898D01*
Y3867D01*
X4694Y3855D01*
X4631Y3812D01*
X4580Y3736D01*
X4562Y3646D01*
X4580Y3557D01*
X4631Y3480D01*
X4694Y3438D01*
X4698Y3425D01*
Y3395D01*
X4694Y3382D01*
X4631Y3340D01*
X4580Y3263D01*
X4562Y3174D01*
X4580Y3084D01*
X4631Y3008D01*
X4694Y2965D01*
X4698Y2953D01*
Y2922D01*
X4694Y2910D01*
X4631Y2867D01*
X4580Y2791D01*
X4562Y2701D01*
X4580Y2612D01*
X4591Y2594D01*
X4568Y2550D01*
X4497D01*
Y1624D01*
X4414Y1607D01*
X4341Y1559D01*
X4293Y1486D01*
X4276Y1400D01*
X4293Y1314D01*
X4341Y1241D01*
X4366Y1225D01*
Y1175D01*
X4341Y1159D01*
X4293Y1086D01*
X4276Y1000D01*
X4293Y914D01*
X4341Y841D01*
X4366Y825D01*
Y775D01*
X4341Y759D01*
X4293Y686D01*
X4276Y600D01*
X4293Y514D01*
X4341Y441D01*
X4366Y425D01*
Y375D01*
X4341Y359D01*
X4293Y286D01*
X4276Y200D01*
X4249Y176D01*
X4224Y200D01*
X4207Y286D01*
X4159Y359D01*
X4134Y375D01*
Y425D01*
X4159Y441D01*
X4207Y514D01*
X4224Y600D01*
X4207Y686D01*
X4159Y759D01*
X4134Y775D01*
Y825D01*
X4159Y841D01*
X4207Y914D01*
X4224Y1000D01*
X4207Y1086D01*
X4159Y1159D01*
X4134Y1175D01*
Y1225D01*
X4159Y1241D01*
X4207Y1314D01*
X4224Y1400D01*
X4207Y1486D01*
X4159Y1559D01*
X4086Y1607D01*
X4000Y1624D01*
X3914Y1607D01*
X3841Y1559D01*
X3793Y1486D01*
X3776Y1400D01*
X3793Y1314D01*
X3841Y1241D01*
X3866Y1225D01*
Y1175D01*
X3841Y1159D01*
X3793Y1086D01*
X3776Y1000D01*
X3793Y914D01*
X3841Y841D01*
X3866Y825D01*
Y775D01*
X3841Y759D01*
X3793Y686D01*
X3776Y600D01*
X3793Y514D01*
X3841Y441D01*
X3866Y425D01*
Y375D01*
X3841Y359D01*
X3793Y286D01*
X3776Y200D01*
X3781Y171D01*
X3750Y133D01*
X1181D01*
X1130Y122D01*
X1087Y94D01*
X703Y-290D01*
X649Y-274D01*
X640Y-229D01*
X592Y-156D01*
X519Y-108D01*
X433Y-91D01*
X347Y-108D01*
X274Y-156D01*
X226Y-229D01*
X209Y-315D01*
X226Y-401D01*
X274Y-474D01*
X347Y-522D01*
X392Y-531D01*
X408Y-585D01*
X250Y-743D01*
X188Y-735D01*
X159Y-691D01*
X86Y-643D01*
X0Y-626D01*
X-86Y-643D01*
X-159Y-691D01*
X-207Y-764D01*
X-224Y-850D01*
X-207Y-936D01*
X-159Y-1009D01*
X-115Y-1038D01*
X-107Y-1100D01*
X-449Y-1442D01*
X-984D01*
X-1004Y-1446D01*
X-1442Y-1008D01*
Y-449D01*
X-824Y169D01*
X-760Y163D01*
X-739Y131D01*
X-666Y83D01*
X-580Y66D01*
X-494Y83D01*
X-421Y131D01*
X-373Y204D01*
X-356Y290D01*
X-373Y376D01*
X-421Y449D01*
X-494Y497D01*
X-495Y499D01*
X-468Y540D01*
X-459Y583D01*
X-419Y610D01*
X-415Y612D01*
X-379Y585D01*
X-283Y545D01*
X-180Y531D01*
X-77Y545D01*
X19Y585D01*
X50Y608D01*
X67Y599D01*
X91Y577D01*
X76Y500D01*
X84Y459D01*
X41Y416D01*
X0Y424D01*
X-86Y407D01*
X-159Y359D01*
X-207Y286D01*
X-224Y200D01*
X-207Y114D01*
X-159Y41D01*
X-86Y-7D01*
X0Y-24D01*
X86Y-7D01*
X159Y41D01*
X207Y114D01*
X224Y200D01*
X216Y241D01*
X259Y284D01*
X300Y276D01*
X386Y293D01*
X459Y341D01*
X507Y414D01*
X520Y479D01*
X591Y465D01*
X676Y482D01*
X749Y530D01*
X798Y603D01*
X815Y689D01*
X798Y775D01*
X749Y848D01*
X676Y896D01*
X591Y913D01*
X505Y896D01*
X432Y848D01*
X383Y775D01*
X370Y710D01*
X300Y724D01*
X214Y707D01*
X170Y732D01*
X168Y736D01*
X205Y827D01*
X219Y930D01*
X205Y1033D01*
X170Y1117D01*
X180Y1155D01*
X192Y1176D01*
X257Y1219D01*
X306Y1292D01*
X323Y1378D01*
X306Y1464D01*
X257Y1537D01*
X189Y1582D01*
X183Y1589D01*
X169Y1639D01*
X217Y1701D01*
X263Y1811D01*
X278Y1930D01*
X268Y2004D01*
X317Y2022D01*
X353Y1967D01*
X426Y1919D01*
X512Y1902D01*
X598Y1919D01*
X670Y1967D01*
X719Y2040D01*
X736Y2126D01*
X719Y2212D01*
X670Y2285D01*
X598Y2333D01*
X512Y2350D01*
X426Y2333D01*
X353Y2285D01*
X305Y2212D01*
X288Y2126D01*
X290Y2113D01*
X242Y2098D01*
X217Y2159D01*
X144Y2254D01*
X49Y2327D01*
X-30Y2360D01*
Y2500D01*
X49Y2533D01*
X144Y2606D01*
X217Y2701D01*
X263Y2811D01*
X278Y2930D01*
X263Y3049D01*
X217Y3159D01*
X207Y3172D01*
X224Y3232D01*
X277Y3267D01*
X325Y3339D01*
X342Y3425D01*
X325Y3511D01*
X277Y3584D01*
X219Y3622D01*
X201Y3680D01*
X217Y3701D01*
X263Y3811D01*
X278Y3930D01*
X263Y4049D01*
X217Y4159D01*
X202Y4178D01*
X216Y4243D01*
X257Y4271D01*
X306Y4343D01*
X323Y4429D01*
X306Y4515D01*
X257Y4588D01*
X215Y4616D01*
X201Y4680D01*
X217Y4701D01*
X263Y4811D01*
X278Y4930D01*
X263Y5049D01*
X217Y5159D01*
X212Y5165D01*
X224Y5232D01*
X257Y5255D01*
X306Y5328D01*
X323Y5413D01*
X306Y5499D01*
X257Y5572D01*
X207Y5606D01*
X190Y5666D01*
X217Y5701D01*
X263Y5811D01*
X278Y5930D01*
X263Y6049D01*
X217Y6159D01*
X212Y6165D01*
X220Y6215D01*
X257Y6239D01*
X306Y6312D01*
X323Y6398D01*
X306Y6483D01*
X257Y6556D01*
X199Y6595D01*
X180Y6653D01*
X217Y6701D01*
X263Y6811D01*
X278Y6930D01*
X263Y7049D01*
X217Y7159D01*
X189Y7195D01*
X206Y7256D01*
X257Y7290D01*
X306Y7363D01*
X323Y7449D01*
X306Y7535D01*
X257Y7607D01*
X225Y7629D01*
X214Y7697D01*
X217Y7701D01*
X263Y7811D01*
X278Y7930D01*
X263Y8049D01*
X217Y8159D01*
X207Y8172D01*
X224Y8232D01*
X277Y8267D01*
X325Y8339D01*
X342Y8425D01*
X325Y8511D01*
X277Y8584D01*
X219Y8622D01*
X201Y8680D01*
X217Y8701D01*
X263Y8811D01*
X278Y8930D01*
X263Y9049D01*
X217Y9159D01*
X189Y9195D01*
X206Y9256D01*
X257Y9290D01*
X306Y9363D01*
X323Y9449D01*
X306Y9535D01*
X257Y9607D01*
X225Y9629D01*
X214Y9697D01*
X217Y9701D01*
X263Y9811D01*
X278Y9930D01*
X263Y10049D01*
X217Y10159D01*
X240Y10211D01*
X277Y10235D01*
X325Y10308D01*
X342Y10394D01*
X325Y10480D01*
X277Y10552D01*
X204Y10601D01*
X136Y10614D01*
X116Y10662D01*
X115Y10666D01*
X165Y10731D01*
X205Y10827D01*
X219Y10930D01*
X205Y11033D01*
X165Y11129D01*
X102Y11212D01*
X19Y11275D01*
X-77Y11315D01*
X-180Y11329D01*
X-283Y11315D01*
X-379Y11275D01*
X-413Y11250D01*
X-468Y11270D01*
X-468Y11271D01*
X-497Y11314D01*
X-524Y11341D01*
X-499Y11388D01*
X-440Y11376D01*
X-354Y11393D01*
X-281Y11441D01*
X-262Y11470D01*
X-206Y11433D01*
X-120Y11416D01*
X-34Y11433D01*
X39Y11481D01*
X87Y11554D01*
X104Y11640D01*
X87Y11726D01*
X39Y11799D01*
X-34Y11847D01*
X-120Y11864D01*
X-206Y11847D01*
X-279Y11799D01*
X-298Y11770D01*
X-354Y11807D01*
X-440Y11824D01*
X-526Y11807D01*
X-599Y11759D01*
X-647Y11686D01*
X-664Y11600D01*
X-652Y11541D01*
X-699Y11516D01*
X-1442Y12260D01*
Y12749D01*
X-946Y13253D01*
X-449D01*
X698Y12107D01*
X681Y12053D01*
X654Y12047D01*
X581Y11999D01*
X533Y11926D01*
X516Y11840D01*
X521Y11813D01*
X479Y11766D01*
X416Y11753D01*
X343Y11704D01*
X295Y11632D01*
X278Y11546D01*
X295Y11460D01*
X343Y11387D01*
X416Y11339D01*
X502Y11322D01*
X588Y11339D01*
X661Y11387D01*
X709Y11460D01*
X726Y11546D01*
X718Y11586D01*
X758Y11615D01*
X807Y11578D01*
X816Y11528D01*
X865Y11456D01*
X938Y11407D01*
X1024Y11390D01*
X1109Y11407D01*
X1182Y11456D01*
X1231Y11528D01*
X1248Y11614D01*
X1243Y11640D01*
X1275Y11678D01*
X1875D01*
X1912Y11628D01*
X1902Y11575D01*
X1919Y11489D01*
X1967Y11416D01*
X2040Y11368D01*
X2126Y11350D01*
X2212Y11368D01*
X2285Y11416D01*
X2333Y11489D01*
X2350Y11575D01*
X2340Y11628D01*
X2377Y11678D01*
X3253D01*
X3290Y11628D01*
X3280Y11575D01*
X3297Y11489D01*
X3345Y11416D01*
X3418Y11368D01*
X3504Y11350D01*
X3590Y11368D01*
X3663Y11416D01*
X3687Y11452D01*
X3751Y11458D01*
X3843Y11366D01*
X3886Y11338D01*
X3937Y11327D01*
X3947D01*
X3958Y11281D01*
X3891Y11253D01*
X3833Y11209D01*
X3789Y11151D01*
X3761Y11083D01*
X3751Y11011D01*
Y10735D01*
X3761Y10663D01*
X3789Y10596D01*
X3833Y10538D01*
X3891Y10493D01*
X3958Y10465D01*
X4015Y10458D01*
X4058Y10415D01*
X4057Y10413D01*
X4074Y10328D01*
X4123Y10255D01*
X4196Y10206D01*
X4281Y10189D01*
X4367Y10206D01*
X4440Y10255D01*
X4489Y10328D01*
X4506Y10413D01*
X4489Y10499D01*
X4440Y10572D01*
X4367Y10621D01*
X4318Y10630D01*
X4301Y10663D01*
X4310Y10735D01*
Y11011D01*
X4301Y11083D01*
X4273Y11151D01*
X4228Y11209D01*
X4171Y11253D01*
X4103Y11281D01*
X4115Y11327D01*
X6545D01*
X6557Y11281D01*
X6489Y11253D01*
X6432Y11209D01*
X6387Y11151D01*
X6359Y11083D01*
X6350Y11011D01*
Y10735D01*
X6359Y10663D01*
X6349Y10644D01*
X6282Y10630D01*
X6209Y10582D01*
X6161Y10509D01*
X6144Y10423D01*
X6146Y10413D01*
X6101Y10382D01*
X6079Y10397D01*
X6008Y10411D01*
X5995Y10480D01*
X5946Y10552D01*
X5873Y10601D01*
X5787Y10618D01*
X5702Y10601D01*
X5629Y10552D01*
X5593Y10499D01*
X5558Y10522D01*
X5472Y10539D01*
X5387Y10522D01*
X5315Y10474D01*
X5243Y10522D01*
X5157Y10539D01*
X5072Y10522D01*
X5024Y10490D01*
X4998Y10474D01*
X4947Y10487D01*
X4909Y10512D01*
X4823Y10529D01*
X4737Y10512D01*
X4664Y10464D01*
X4616Y10391D01*
X4599Y10305D01*
X4616Y10219D01*
X4664Y10147D01*
X4737Y10098D01*
X4823Y10081D01*
X4909Y10098D01*
X4956Y10130D01*
X4983Y10146D01*
X5033Y10134D01*
X5072Y10108D01*
X5157Y10091D01*
X5243Y10108D01*
X5315Y10156D01*
X5387Y10108D01*
X5472Y10091D01*
X5558Y10108D01*
X5631Y10156D01*
X5667Y10210D01*
X5702Y10186D01*
X5773Y10172D01*
X5786Y10104D01*
X5835Y10031D01*
X5908Y9982D01*
X5993Y9965D01*
X6079Y9982D01*
X6152Y10031D01*
X6201Y10104D01*
X6218Y10190D01*
X6216Y10200D01*
X6261Y10230D01*
X6282Y10216D01*
X6368Y10199D01*
X6454Y10216D01*
X6527Y10265D01*
X6575Y10337D01*
X6592Y10423D01*
X6607Y10439D01*
X6637Y10457D01*
X6702Y10465D01*
X6769Y10493D01*
X6827Y10538D01*
X6871Y10596D01*
X6899Y10663D01*
X6909Y10735D01*
Y11011D01*
X6899Y11083D01*
X6871Y11151D01*
X6845Y11185D01*
X6880Y11222D01*
X6912Y11200D01*
X6998Y11183D01*
X7084Y11200D01*
X7157Y11249D01*
X7205Y11322D01*
X7222Y11407D01*
X7205Y11493D01*
X7157Y11566D01*
X7128Y11585D01*
X7123Y11635D01*
X7166Y11678D01*
X7328D01*
X7365Y11628D01*
X7354Y11575D01*
X7372Y11489D01*
X7420Y11416D01*
X7493Y11368D01*
X7579Y11350D01*
X7647Y11364D01*
X7657Y11312D01*
X7706Y11239D01*
X7778Y11190D01*
X7864Y11173D01*
X7950Y11190D01*
X8023Y11239D01*
X8071Y11312D01*
X8088Y11398D01*
X8071Y11483D01*
X8023Y11556D01*
X7950Y11605D01*
X7864Y11622D01*
X7847Y11619D01*
X7841Y11628D01*
X7869Y11678D01*
X8308D01*
X8334Y11628D01*
X8317Y11602D01*
X8300Y11516D01*
X8317Y11430D01*
X8365Y11358D01*
X8438Y11309D01*
X8524Y11292D01*
X8610Y11309D01*
X8683Y11358D01*
X8731Y11430D01*
X8748Y11516D01*
X8731Y11602D01*
X8714Y11628D01*
X8740Y11678D01*
X9420D01*
X9424Y11677D01*
X9457Y11634D01*
X9458Y11630D01*
X9456Y11620D01*
X9884D01*
X9877Y11656D01*
X9829Y11729D01*
X9756Y11777D01*
X9687Y11791D01*
X9666Y11841D01*
X9721Y11895D01*
X9785Y11889D01*
X9806Y11857D01*
X9879Y11808D01*
X9965Y11791D01*
X10051Y11808D01*
X10124Y11857D01*
X10172Y11930D01*
X10189Y12016D01*
X10172Y12101D01*
X10124Y12174D01*
X10092Y12196D01*
X10085Y12260D01*
X11079Y13253D01*
X11614D01*
X11617Y13254D01*
X12072Y12815D01*
D02*
G37*
%LPC*%
G36*
X6722Y4742D02*
X6686Y4735D01*
X6613Y4686D01*
X6564Y4613D01*
X6557Y4578D01*
X6722D01*
Y4742D01*
D02*
G37*
G36*
X830Y5014D02*
X744Y4997D01*
X671Y4949D01*
X623Y4876D01*
X606Y4790D01*
X623Y4704D01*
X671Y4631D01*
X744Y4583D01*
X830Y4566D01*
X916Y4583D01*
X989Y4631D01*
X1037Y4704D01*
X1054Y4790D01*
X1037Y4876D01*
X989Y4949D01*
X916Y4997D01*
X830Y5014D01*
D02*
G37*
G36*
X8680Y5144D02*
X8594Y5127D01*
X8521Y5079D01*
X8473Y5006D01*
X8456Y4920D01*
X8473Y4834D01*
X8521Y4761D01*
X8594Y4713D01*
X8680Y4696D01*
X8766Y4713D01*
X8808Y4741D01*
X8810Y4741D01*
X8860Y4716D01*
X8873Y4654D01*
X8921Y4581D01*
X8994Y4533D01*
X9080Y4516D01*
X9166Y4533D01*
X9239Y4581D01*
X9287Y4654D01*
X9304Y4740D01*
X9287Y4826D01*
X9239Y4899D01*
X9166Y4947D01*
X9080Y4964D01*
X8994Y4947D01*
X8952Y4919D01*
X8950Y4919D01*
X8900Y4944D01*
X8887Y5006D01*
X8839Y5079D01*
X8766Y5127D01*
X8680Y5144D01*
D02*
G37*
G36*
X9734Y5224D02*
X9648Y5207D01*
X9576Y5159D01*
X9527Y5086D01*
X9510Y5000D01*
X9527Y4914D01*
X9576Y4841D01*
X9648Y4793D01*
X9734Y4776D01*
X9820Y4793D01*
X9893Y4841D01*
X9941Y4914D01*
X9959Y5000D01*
X9941Y5086D01*
X9893Y5159D01*
X9820Y5207D01*
X9734Y5224D01*
D02*
G37*
G36*
X8250Y5386D02*
X8164Y5369D01*
X8091Y5320D01*
X8043Y5248D01*
X8025Y5162D01*
X8043Y5076D01*
X8091Y5003D01*
X8164Y4954D01*
X8250Y4937D01*
X8336Y4954D01*
X8408Y5003D01*
X8457Y5076D01*
X8474Y5162D01*
X8457Y5248D01*
X8408Y5320D01*
X8336Y5369D01*
X8250Y5386D01*
D02*
G37*
G36*
X6822Y4742D02*
Y4578D01*
X6986D01*
X6979Y4613D01*
X6930Y4686D01*
X6857Y4735D01*
X6822Y4742D01*
D02*
G37*
G36*
X2559Y6327D02*
X2473Y6310D01*
X2400Y6261D01*
X2352Y6188D01*
X2335Y6102D01*
X2352Y6017D01*
X2400Y5944D01*
X2473Y5895D01*
X2495Y5891D01*
X2493Y5840D01*
X2486Y5839D01*
X2414Y5809D01*
X2352Y5762D01*
X2305Y5700D01*
X2275Y5627D01*
X2265Y5550D01*
X2275Y5473D01*
X2305Y5400D01*
X2311Y5392D01*
X2289Y5347D01*
X2267D01*
Y4753D01*
X2861D01*
Y5347D01*
X2839D01*
X2817Y5392D01*
X2823Y5400D01*
X2853Y5473D01*
X2863Y5550D01*
X2853Y5627D01*
X2823Y5700D01*
X2776Y5762D01*
X2714Y5809D01*
X2641Y5839D01*
X2629Y5841D01*
X2627Y5892D01*
X2645Y5895D01*
X2718Y5944D01*
X2766Y6017D01*
X2783Y6102D01*
X2766Y6188D01*
X2718Y6261D01*
X2645Y6310D01*
X2559Y6327D01*
D02*
G37*
G36*
X3878Y4278D02*
X3713D01*
Y4114D01*
X3749Y4121D01*
X3822Y4169D01*
X3871Y4242D01*
X3878Y4278D01*
D02*
G37*
G36*
X1614Y4752D02*
X1528Y4735D01*
X1456Y4686D01*
X1407Y4613D01*
X1390Y4528D01*
X1407Y4442D01*
X1456Y4369D01*
X1528Y4320D01*
X1614Y4303D01*
X1700Y4320D01*
X1773Y4369D01*
X1821Y4442D01*
X1838Y4528D01*
X1821Y4613D01*
X1773Y4686D01*
X1700Y4735D01*
X1614Y4752D01*
D02*
G37*
G36*
X10039Y4319D02*
X9954Y4302D01*
X9881Y4253D01*
X9832Y4180D01*
X9815Y4094D01*
X9832Y4009D01*
X9881Y3936D01*
X9954Y3887D01*
X10039Y3870D01*
X10125Y3887D01*
X10198Y3936D01*
X10247Y4009D01*
X10264Y4094D01*
X10247Y4180D01*
X10198Y4253D01*
X10125Y4302D01*
X10039Y4319D01*
D02*
G37*
G36*
X3613Y4278D02*
X3449D01*
X3456Y4242D01*
X3505Y4169D01*
X3578Y4121D01*
X3613Y4114D01*
Y4278D01*
D02*
G37*
G36*
X6986Y4478D02*
X6822D01*
Y4313D01*
X6857Y4320D01*
X6930Y4369D01*
X6979Y4442D01*
X6986Y4478D01*
D02*
G37*
G36*
X3661Y5500D02*
X3576Y5483D01*
X3503Y5434D01*
X3454Y5361D01*
X3437Y5276D01*
X3454Y5190D01*
X3502Y5118D01*
X3454Y5046D01*
X3437Y4961D01*
X3454Y4875D01*
X3502Y4803D01*
X3454Y4732D01*
X3437Y4646D01*
X3454Y4560D01*
X3503Y4487D01*
X3504Y4486D01*
X3456Y4414D01*
X3449Y4378D01*
X3878D01*
X3871Y4414D01*
X3822Y4487D01*
X3820Y4488D01*
X3869Y4560D01*
X3886Y4646D01*
X3869Y4732D01*
X3821Y4803D01*
X3869Y4875D01*
X3886Y4961D01*
X3869Y5046D01*
X3821Y5118D01*
X3869Y5190D01*
X3886Y5276D01*
X3869Y5361D01*
X3820Y5434D01*
X3747Y5483D01*
X3661Y5500D01*
D02*
G37*
G36*
X7992Y4752D02*
X7906Y4735D01*
X7834Y4686D01*
X7785Y4613D01*
X7768Y4528D01*
X7785Y4442D01*
X7834Y4369D01*
X7906Y4320D01*
X7992Y4303D01*
X8078Y4320D01*
X8151Y4369D01*
X8199Y4442D01*
X8216Y4528D01*
X8199Y4613D01*
X8151Y4686D01*
X8078Y4735D01*
X7992Y4752D01*
D02*
G37*
G36*
X6722Y4478D02*
X6557D01*
X6564Y4442D01*
X6613Y4369D01*
X6686Y4320D01*
X6722Y4313D01*
Y4478D01*
D02*
G37*
G36*
X9726Y6557D02*
X9014D01*
Y5890D01*
X8964Y5849D01*
X8937Y5854D01*
X8888Y5844D01*
X8830Y5879D01*
X8829Y5883D01*
X8781Y5956D01*
X8708Y6004D01*
X8622Y6022D01*
X8536Y6004D01*
X8463Y5956D01*
X8415Y5883D01*
X8398Y5797D01*
X8415Y5711D01*
X8463Y5639D01*
X8536Y5590D01*
X8622Y5573D01*
X8671Y5583D01*
X8729Y5548D01*
X8730Y5544D01*
X8778Y5471D01*
X8851Y5423D01*
X8937Y5406D01*
X9023Y5423D01*
X9043Y5436D01*
X9059Y5431D01*
X9116Y5356D01*
X9191Y5299D01*
X9277Y5263D01*
X9370Y5251D01*
X9463Y5263D01*
X9550Y5299D01*
X9624Y5356D01*
X9681Y5431D01*
X9717Y5517D01*
X9729Y5610D01*
X9717Y5703D01*
X9681Y5790D01*
X9673Y5800D01*
X9695Y5845D01*
X9726D01*
Y6557D01*
D02*
G37*
G36*
X8206Y6003D02*
X8042D01*
Y5839D01*
X8078Y5846D01*
X8151Y5895D01*
X8199Y5967D01*
X8206Y6003D01*
D02*
G37*
G36*
X7942D02*
X7778D01*
X7785Y5967D01*
X7834Y5895D01*
X7906Y5846D01*
X7942Y5839D01*
Y6003D01*
D02*
G37*
G36*
X7399Y6449D02*
X7313Y6432D01*
X7240Y6384D01*
X7191Y6311D01*
X7174Y6225D01*
X7191Y6139D01*
X7240Y6067D01*
X7313Y6018D01*
X7399Y6001D01*
X7484Y6018D01*
X7557Y6067D01*
X7606Y6139D01*
X7623Y6225D01*
X7606Y6311D01*
X7557Y6384D01*
X7484Y6432D01*
X7399Y6449D01*
D02*
G37*
G36*
X8671Y6661D02*
X8585Y6644D01*
X8513Y6596D01*
X8464Y6523D01*
X8447Y6437D01*
X8464Y6351D01*
X8513Y6278D01*
X8585Y6230D01*
X8671Y6213D01*
X8757Y6230D01*
X8830Y6278D01*
X8878Y6351D01*
X8896Y6437D01*
X8878Y6523D01*
X8830Y6596D01*
X8757Y6644D01*
X8671Y6661D01*
D02*
G37*
G36*
X8042Y6268D02*
Y6103D01*
X8206D01*
X8199Y6139D01*
X8151Y6212D01*
X8078Y6260D01*
X8042Y6268D01*
D02*
G37*
G36*
X7942D02*
X7906Y6260D01*
X7834Y6212D01*
X7785Y6139D01*
X7778Y6103D01*
X7942D01*
Y6268D01*
D02*
G37*
G36*
X6329Y6229D02*
X6243Y6211D01*
X6170Y6163D01*
X6122Y6090D01*
X6105Y6004D01*
X6122Y5918D01*
X6170Y5846D01*
X6243Y5797D01*
X6329Y5780D01*
X6415Y5797D01*
X6488Y5846D01*
X6536Y5918D01*
X6553Y6004D01*
X6536Y6090D01*
X6488Y6163D01*
X6415Y6211D01*
X6329Y6229D01*
D02*
G37*
G36*
X4370Y5539D02*
X4284Y5522D01*
X4211Y5474D01*
X4163Y5401D01*
X4146Y5315D01*
X4163Y5229D01*
X4211Y5156D01*
X4284Y5108D01*
X4370Y5091D01*
X4456Y5108D01*
X4529Y5156D01*
X4577Y5229D01*
X4594Y5315D01*
X4577Y5401D01*
X4529Y5474D01*
X4456Y5522D01*
X4370Y5539D01*
D02*
G37*
G36*
X1614Y5500D02*
X1528Y5483D01*
X1456Y5434D01*
X1407Y5361D01*
X1390Y5276D01*
X1407Y5190D01*
X1456Y5117D01*
X1528Y5068D01*
X1614Y5051D01*
X1700Y5068D01*
X1773Y5117D01*
X1821Y5190D01*
X1838Y5276D01*
X1821Y5361D01*
X1773Y5434D01*
X1700Y5483D01*
X1614Y5500D01*
D02*
G37*
G36*
X5709Y5844D02*
X5623Y5827D01*
X5550Y5779D01*
X5501Y5706D01*
X5484Y5620D01*
X5501Y5534D01*
X5542Y5473D01*
X5543Y5413D01*
X5530Y5405D01*
X5482Y5332D01*
X5465Y5246D01*
X5482Y5160D01*
X5530Y5087D01*
X5603Y5039D01*
X5689Y5022D01*
X5775Y5039D01*
X5848Y5087D01*
X5896Y5160D01*
X5913Y5246D01*
X5896Y5332D01*
X5855Y5393D01*
X5855Y5453D01*
X5867Y5461D01*
X5916Y5534D01*
X5933Y5620D01*
X5916Y5706D01*
X5867Y5779D01*
X5795Y5827D01*
X5709Y5844D01*
D02*
G37*
G36*
X6673Y5795D02*
X6587Y5778D01*
X6515Y5729D01*
X6466Y5657D01*
X6449Y5571D01*
X6466Y5485D01*
X6515Y5412D01*
X6587Y5364D01*
X6673Y5347D01*
X6759Y5364D01*
X6832Y5412D01*
X6880Y5485D01*
X6898Y5571D01*
X6880Y5657D01*
X6832Y5729D01*
X6759Y5778D01*
X6673Y5795D01*
D02*
G37*
G36*
X830Y6184D02*
X744Y6167D01*
X671Y6119D01*
X623Y6046D01*
X606Y5960D01*
X623Y5874D01*
X671Y5801D01*
X744Y5753D01*
X830Y5736D01*
X916Y5753D01*
X989Y5801D01*
X1037Y5874D01*
X1054Y5960D01*
X1037Y6046D01*
X989Y6119D01*
X916Y6167D01*
X830Y6184D01*
D02*
G37*
G36*
X1771Y6427D02*
X1685Y6410D01*
X1612Y6362D01*
X1564Y6289D01*
X1547Y6203D01*
X1556Y6159D01*
X1520Y6151D01*
X1447Y6103D01*
X1399Y6030D01*
X1381Y5944D01*
X1399Y5858D01*
X1447Y5786D01*
X1520Y5737D01*
X1606Y5720D01*
X1692Y5737D01*
X1764Y5786D01*
X1824Y5785D01*
X1849Y5747D01*
X1922Y5698D01*
X2008Y5681D01*
X2094Y5698D01*
X2166Y5747D01*
X2215Y5820D01*
X2232Y5906D01*
X2215Y5991D01*
X2166Y6064D01*
X2094Y6113D01*
X2031Y6125D01*
X1989Y6173D01*
X1995Y6203D01*
X1978Y6289D01*
X1930Y6362D01*
X1857Y6410D01*
X1771Y6427D01*
D02*
G37*
G36*
X5266Y6081D02*
X5180Y6064D01*
X5107Y6015D01*
X5059Y5942D01*
X5041Y5856D01*
X5059Y5770D01*
X5107Y5698D01*
X5180Y5649D01*
X5266Y5632D01*
X5352Y5649D01*
X5424Y5698D01*
X5473Y5770D01*
X5490Y5856D01*
X5473Y5942D01*
X5424Y6015D01*
X5352Y6064D01*
X5266Y6081D01*
D02*
G37*
G36*
X2180Y4274D02*
X2094Y4257D01*
X2021Y4209D01*
X1973Y4136D01*
X1956Y4050D01*
X1973Y3964D01*
X2021Y3891D01*
X2094Y3843D01*
X2180Y3826D01*
X2266Y3843D01*
X2339Y3891D01*
X2387Y3964D01*
X2404Y4050D01*
X2387Y4136D01*
X2339Y4209D01*
X2266Y4257D01*
X2180Y4274D01*
D02*
G37*
G36*
X9921Y1563D02*
X9835Y1546D01*
X9763Y1497D01*
X9714Y1424D01*
X9697Y1339D01*
X9714Y1253D01*
X9763Y1180D01*
X9835Y1131D01*
X9921Y1114D01*
X10007Y1131D01*
X10080Y1180D01*
X10129Y1253D01*
X10146Y1339D01*
X10129Y1424D01*
X10080Y1497D01*
X10007Y1546D01*
X9921Y1563D01*
D02*
G37*
G36*
X2874Y1484D02*
X2788Y1467D01*
X2715Y1418D01*
X2667Y1346D01*
X2650Y1260D01*
X2667Y1174D01*
X2709Y1111D01*
X2694Y1075D01*
X2685Y1064D01*
X2644Y1069D01*
X2567Y1059D01*
X2495Y1029D01*
X2434Y982D01*
X2386Y920D01*
X2357Y849D01*
X2347Y772D01*
X2357Y695D01*
X2386Y623D01*
X2434Y561D01*
X2495Y514D01*
X2567Y484D01*
X2644Y474D01*
X2721Y484D01*
X2793Y514D01*
X2854Y561D01*
X2902Y623D01*
X2932Y695D01*
X2942Y772D01*
X2932Y849D01*
X2902Y920D01*
X2854Y982D01*
X2843Y991D01*
X2864Y1037D01*
X2874Y1036D01*
X2960Y1053D01*
X3033Y1101D01*
X3081Y1174D01*
X3098Y1260D01*
X3081Y1346D01*
X3033Y1418D01*
X2960Y1467D01*
X2874Y1484D01*
D02*
G37*
G36*
X1681Y1496D02*
X1595Y1479D01*
X1522Y1430D01*
X1474Y1357D01*
X1457Y1272D01*
X1474Y1186D01*
X1522Y1113D01*
X1595Y1064D01*
X1646Y1054D01*
X1658Y1001D01*
X1634Y982D01*
X1586Y920D01*
X1570Y881D01*
X1570Y881D01*
X1510Y865D01*
X1464Y896D01*
X1378Y913D01*
X1292Y896D01*
X1219Y848D01*
X1171Y775D01*
X1154Y689D01*
X1171Y603D01*
X1219Y530D01*
X1292Y482D01*
X1378Y465D01*
X1464Y482D01*
X1537Y530D01*
X1563Y571D01*
X1625Y573D01*
X1634Y561D01*
X1695Y514D01*
X1767Y484D01*
X1844Y474D01*
X1921Y484D01*
X1993Y514D01*
X2054Y561D01*
X2102Y623D01*
X2131Y695D01*
X2142Y772D01*
X2131Y849D01*
X2102Y920D01*
X2054Y982D01*
X1993Y1029D01*
X1921Y1059D01*
X1861Y1067D01*
X1847Y1096D01*
X1843Y1114D01*
X1843Y1117D01*
X1888Y1186D01*
X1905Y1272D01*
X1888Y1357D01*
X1840Y1430D01*
X1767Y1479D01*
X1681Y1496D01*
D02*
G37*
G36*
X8820Y2329D02*
X8717Y2315D01*
X8621Y2275D01*
X8538Y2212D01*
X8475Y2129D01*
X8435Y2033D01*
X8421Y1930D01*
X8435Y1827D01*
X8475Y1731D01*
X8538Y1648D01*
X8603Y1598D01*
X8607Y1541D01*
X8601Y1537D01*
X8553Y1464D01*
X8536Y1378D01*
X8553Y1292D01*
X8601Y1219D01*
X8674Y1171D01*
X8760Y1154D01*
X8846Y1171D01*
X8918Y1219D01*
X8967Y1292D01*
X8984Y1378D01*
X8967Y1464D01*
X8943Y1499D01*
X8962Y1561D01*
X9019Y1585D01*
X9102Y1648D01*
X9165Y1731D01*
X9205Y1827D01*
X9219Y1930D01*
X9205Y2033D01*
X9165Y2129D01*
X9102Y2212D01*
X9019Y2275D01*
X8923Y2315D01*
X8820Y2329D01*
D02*
G37*
G36*
X1643Y2233D02*
X1479D01*
X1486Y2198D01*
X1534Y2125D01*
X1607Y2076D01*
X1643Y2069D01*
Y2233D01*
D02*
G37*
G36*
X9801Y2076D02*
X9637D01*
Y1912D01*
X9673Y1919D01*
X9746Y1967D01*
X9794Y2040D01*
X9801Y2076D01*
D02*
G37*
G36*
X9537D02*
X9373D01*
X9380Y2040D01*
X9428Y1967D01*
X9501Y1919D01*
X9537Y1912D01*
Y2076D01*
D02*
G37*
G36*
X9750Y574D02*
X9664Y557D01*
X9591Y509D01*
X9543Y436D01*
X9526Y350D01*
X9543Y264D01*
X9591Y191D01*
X9664Y143D01*
X9750Y126D01*
X9836Y143D01*
X9909Y191D01*
X9957Y264D01*
X9974Y350D01*
X9957Y436D01*
X9909Y509D01*
X9836Y557D01*
X9750Y574D01*
D02*
G37*
G36*
X-340Y-380D02*
X-504D01*
X-497Y-416D01*
X-449Y-489D01*
X-376Y-537D01*
X-340Y-544D01*
Y-380D01*
D02*
G37*
G36*
X11837Y-473D02*
X11673D01*
Y-637D01*
X11709Y-630D01*
X11781Y-581D01*
X11830Y-509D01*
X11837Y-473D01*
D02*
G37*
G36*
X11573D02*
X11408D01*
X11415Y-509D01*
X11464Y-581D01*
X11537Y-630D01*
X11573Y-637D01*
Y-473D01*
D02*
G37*
G36*
X-76Y-380D02*
X-240D01*
Y-544D01*
X-204Y-537D01*
X-131Y-489D01*
X-83Y-416D01*
X-76Y-380D01*
D02*
G37*
G36*
X10300Y355D02*
X10214Y338D01*
X10141Y289D01*
X10093Y216D01*
X10076Y130D01*
X10093Y44D01*
X10141Y-28D01*
X10214Y-77D01*
X10300Y-94D01*
X10386Y-77D01*
X10459Y-28D01*
X10507Y44D01*
X10524Y130D01*
X10507Y216D01*
X10459Y289D01*
X10386Y338D01*
X10300Y355D01*
D02*
G37*
G36*
X-240Y-116D02*
Y-280D01*
X-76D01*
X-83Y-244D01*
X-131Y-171D01*
X-204Y-123D01*
X-240Y-116D01*
D02*
G37*
G36*
X-340D02*
X-376Y-123D01*
X-449Y-171D01*
X-497Y-244D01*
X-504Y-280D01*
X-340D01*
Y-116D01*
D02*
G37*
G36*
X9528Y3748D02*
X9442Y3731D01*
X9369Y3682D01*
X9320Y3609D01*
X9303Y3524D01*
X9310Y3490D01*
X9265Y3481D01*
X9192Y3433D01*
X9143Y3360D01*
X9126Y3274D01*
X9143Y3188D01*
X9192Y3116D01*
X9265Y3067D01*
X9317Y3057D01*
X9363Y3030D01*
X9380Y2944D01*
X9428Y2872D01*
Y2836D01*
X9400Y2794D01*
X9340D01*
X9312Y2836D01*
X9239Y2884D01*
X9154Y2901D01*
X9068Y2884D01*
X8995Y2836D01*
X8946Y2763D01*
X8929Y2677D01*
X8946Y2591D01*
X8995Y2519D01*
X9068Y2470D01*
X9154Y2453D01*
X9239Y2470D01*
X9312Y2519D01*
X9340Y2561D01*
X9400D01*
X9428Y2519D01*
X9501Y2470D01*
X9587Y2453D01*
X9673Y2470D01*
X9746Y2519D01*
X9794Y2591D01*
X9811Y2677D01*
X9794Y2763D01*
X9746Y2836D01*
X9757Y2888D01*
X9761Y2894D01*
X9811D01*
X9812Y2893D01*
X9885Y2844D01*
X9970Y2827D01*
X10056Y2844D01*
X10129Y2893D01*
X10178Y2965D01*
X10195Y3051D01*
X10178Y3137D01*
X10129Y3210D01*
X10056Y3258D01*
X9970Y3275D01*
X9885Y3258D01*
X9812Y3210D01*
X9797Y3187D01*
X9759D01*
X9740Y3192D01*
X9673Y3237D01*
X9620Y3248D01*
X9596Y3262D01*
X9605Y3315D01*
X9613Y3316D01*
X9686Y3365D01*
X9735Y3438D01*
X9752Y3524D01*
X9735Y3609D01*
X9686Y3682D01*
X9613Y3731D01*
X9528Y3748D01*
D02*
G37*
G36*
X7515Y2694D02*
X7429Y2677D01*
X7356Y2629D01*
X7330Y2589D01*
X7270D01*
X7244Y2629D01*
X7171Y2677D01*
X7135Y2684D01*
Y2470D01*
Y2256D01*
X7171Y2263D01*
X7244Y2311D01*
X7270Y2351D01*
X7330D01*
X7356Y2311D01*
X7429Y2263D01*
X7515Y2246D01*
X7535Y2250D01*
X7571Y2214D01*
X7566Y2190D01*
X7583Y2104D01*
X7631Y2031D01*
X7633Y1970D01*
X7603Y1926D01*
X7586Y1840D01*
X7603Y1754D01*
X7651Y1681D01*
X7666Y1671D01*
X7643Y1636D01*
X7626Y1550D01*
X7643Y1464D01*
X7691Y1391D01*
X7764Y1343D01*
X7850Y1326D01*
X7936Y1343D01*
X8009Y1391D01*
X8057Y1464D01*
X8074Y1550D01*
X8057Y1636D01*
X8009Y1709D01*
X7994Y1719D01*
X8017Y1754D01*
X8034Y1840D01*
X8017Y1926D01*
X7969Y1999D01*
X7967Y2060D01*
X7997Y2104D01*
X8014Y2190D01*
X7997Y2276D01*
X7949Y2349D01*
X7876Y2397D01*
X7790Y2414D01*
X7770Y2410D01*
X7734Y2446D01*
X7739Y2470D01*
X7722Y2556D01*
X7674Y2629D01*
X7601Y2677D01*
X7515Y2694D01*
D02*
G37*
G36*
X7035Y2684D02*
X6999Y2677D01*
X6926Y2629D01*
X6878Y2556D01*
X6871Y2520D01*
X7035D01*
Y2684D01*
D02*
G37*
G36*
X3150Y3253D02*
X3064Y3236D01*
X2991Y3187D01*
X2942Y3114D01*
X2925Y3028D01*
X2942Y2943D01*
X2991Y2870D01*
X3064Y2821D01*
X3150Y2804D01*
X3235Y2821D01*
X3308Y2870D01*
X3357Y2943D01*
X3374Y3028D01*
X3357Y3114D01*
X3308Y3187D01*
X3235Y3236D01*
X3150Y3253D01*
D02*
G37*
G36*
X1063Y4053D02*
X977Y4036D01*
X904Y3987D01*
X856Y3915D01*
X839Y3829D01*
X845Y3799D01*
X809Y3763D01*
X787Y3768D01*
X702Y3751D01*
X629Y3702D01*
X580Y3629D01*
X563Y3543D01*
X580Y3457D01*
X629Y3385D01*
X702Y3336D01*
X787Y3319D01*
X873Y3336D01*
X946Y3385D01*
X995Y3457D01*
X1012Y3543D01*
X1006Y3573D01*
X1041Y3609D01*
X1063Y3604D01*
X1149Y3622D01*
X1222Y3670D01*
X1270Y3743D01*
X1287Y3829D01*
X1270Y3915D01*
X1222Y3987D01*
X1149Y4036D01*
X1063Y4053D01*
D02*
G37*
G36*
X7008Y3846D02*
X6922Y3829D01*
X6849Y3781D01*
X6801Y3708D01*
X6784Y3622D01*
X6801Y3536D01*
X6849Y3463D01*
X6922Y3415D01*
X7008Y3398D01*
X7094Y3415D01*
X7166Y3463D01*
X7215Y3536D01*
X7232Y3622D01*
X7215Y3708D01*
X7166Y3781D01*
X7094Y3829D01*
X7008Y3846D01*
D02*
G37*
G36*
X2559Y3807D02*
X2473Y3790D01*
X2400Y3741D01*
X2352Y3669D01*
X2335Y3583D01*
X2352Y3497D01*
X2400Y3424D01*
X2473Y3375D01*
X2559Y3358D01*
X2645Y3375D01*
X2718Y3424D01*
X2766Y3497D01*
X2783Y3583D01*
X2766Y3669D01*
X2718Y3741D01*
X2645Y3790D01*
X2559Y3807D01*
D02*
G37*
G36*
X787Y3216D02*
X702Y3199D01*
X629Y3151D01*
X580Y3078D01*
X563Y2992D01*
X580Y2906D01*
X629Y2834D01*
X702Y2785D01*
X787Y2768D01*
X807Y2772D01*
X843Y2736D01*
X839Y2717D01*
X856Y2631D01*
X904Y2558D01*
X977Y2509D01*
X1063Y2492D01*
X1149Y2509D01*
X1222Y2558D01*
X1270Y2631D01*
X1287Y2717D01*
X1270Y2802D01*
X1222Y2875D01*
X1149Y2924D01*
X1063Y2941D01*
X1043Y2937D01*
X1008Y2972D01*
X1012Y2992D01*
X995Y3078D01*
X946Y3151D01*
X873Y3199D01*
X787Y3216D01*
D02*
G37*
G36*
X9637Y2340D02*
Y2176D01*
X9801D01*
X9794Y2212D01*
X9746Y2285D01*
X9673Y2333D01*
X9637Y2340D01*
D02*
G37*
G36*
X9537D02*
X9501Y2333D01*
X9428Y2285D01*
X9380Y2212D01*
X9373Y2176D01*
X9537D01*
Y2340D01*
D02*
G37*
G36*
X1907Y2233D02*
X1743D01*
Y2069D01*
X1779Y2076D01*
X1852Y2125D01*
X1900Y2198D01*
X1907Y2233D01*
D02*
G37*
G36*
X7035Y2420D02*
X6871D01*
X6878Y2384D01*
X6926Y2311D01*
X6999Y2263D01*
X7035Y2256D01*
Y2420D01*
D02*
G37*
G36*
X2244Y3069D02*
X2167Y3059D01*
X2095Y3029D01*
X2034Y2982D01*
X1986Y2920D01*
X1957Y2849D01*
X1947Y2772D01*
X1957Y2695D01*
X1986Y2623D01*
X2034Y2561D01*
X2095Y2514D01*
X2167Y2484D01*
X2244Y2474D01*
X2321Y2484D01*
X2393Y2514D01*
X2454Y2561D01*
X2502Y2623D01*
X2531Y2695D01*
X2542Y2772D01*
X2531Y2849D01*
X2502Y2920D01*
X2454Y2982D01*
X2393Y3029D01*
X2321Y3059D01*
X2244Y3069D01*
D02*
G37*
G36*
X1743Y2498D02*
Y2333D01*
X1907D01*
X1900Y2369D01*
X1852Y2442D01*
X1779Y2491D01*
X1743Y2498D01*
D02*
G37*
G36*
X1643D02*
X1607Y2491D01*
X1534Y2442D01*
X1486Y2369D01*
X1479Y2333D01*
X1643D01*
Y2498D01*
D02*
G37*
G36*
X1606Y10519D02*
X1520Y10501D01*
X1447Y10453D01*
X1399Y10380D01*
X1381Y10294D01*
X1399Y10208D01*
X1447Y10136D01*
X1520Y10087D01*
X1606Y10070D01*
X1692Y10087D01*
X1764Y10136D01*
X1813Y10208D01*
X1830Y10294D01*
X1813Y10380D01*
X1764Y10453D01*
X1692Y10501D01*
X1606Y10519D01*
D02*
G37*
G36*
X3150Y10474D02*
X3064Y10457D01*
X2991Y10409D01*
X2943Y10336D01*
X2926Y10250D01*
X2943Y10164D01*
X2991Y10091D01*
X3064Y10043D01*
X3150Y10026D01*
X3236Y10043D01*
X3309Y10091D01*
X3357Y10164D01*
X3374Y10250D01*
X3357Y10336D01*
X3309Y10409D01*
X3236Y10457D01*
X3150Y10474D01*
D02*
G37*
G36*
X7650Y10274D02*
X7564Y10257D01*
X7491Y10209D01*
X7443Y10136D01*
X7426Y10050D01*
X7443Y9964D01*
X7446Y9959D01*
X7413Y9918D01*
X7355Y9912D01*
X7311Y9941D01*
X7225Y9959D01*
X7139Y9941D01*
X7066Y9893D01*
X7018Y9820D01*
X7000Y9734D01*
X7018Y9648D01*
X7066Y9576D01*
X7139Y9527D01*
X7225Y9510D01*
X7311Y9527D01*
X7383Y9576D01*
X7448Y9582D01*
X7492Y9553D01*
X7578Y9536D01*
X7664Y9553D01*
X7737Y9601D01*
X7786Y9674D01*
X7803Y9760D01*
X7786Y9846D01*
X7772Y9867D01*
X7809Y9891D01*
X7857Y9964D01*
X7874Y10050D01*
X7857Y10136D01*
X7809Y10209D01*
X7736Y10257D01*
X7650Y10274D01*
D02*
G37*
G36*
X9724Y10972D02*
X9639Y10955D01*
X9566Y10907D01*
X9517Y10834D01*
X9500Y10748D01*
X9517Y10662D01*
X9553Y10609D01*
X9526Y10592D01*
X9478Y10519D01*
X9461Y10433D01*
X9478Y10347D01*
X9526Y10274D01*
X9599Y10226D01*
X9685Y10209D01*
X9771Y10226D01*
X9844Y10274D01*
X9892Y10347D01*
X9909Y10433D01*
X9892Y10519D01*
X9857Y10572D01*
X9883Y10589D01*
X9932Y10662D01*
X9949Y10748D01*
X9932Y10834D01*
X9883Y10907D01*
X9810Y10955D01*
X9724Y10972D01*
D02*
G37*
G36*
X8465Y10983D02*
X8379Y10966D01*
X8306Y10917D01*
X8258Y10844D01*
X8241Y10758D01*
X8258Y10673D01*
X8306Y10600D01*
X8379Y10551D01*
X8465Y10534D01*
X8551Y10551D01*
X8624Y10600D01*
X8672Y10673D01*
X8689Y10758D01*
X8672Y10844D01*
X8624Y10917D01*
X8551Y10966D01*
X8465Y10983D01*
D02*
G37*
G36*
X512Y10933D02*
X426Y10916D01*
X353Y10867D01*
X305Y10795D01*
X288Y10709D01*
X305Y10623D01*
X353Y10550D01*
X426Y10501D01*
X512Y10484D01*
X598Y10501D01*
X670Y10550D01*
X719Y10623D01*
X736Y10709D01*
X719Y10795D01*
X670Y10867D01*
X598Y10916D01*
X512Y10933D01*
D02*
G37*
G36*
X7194Y10639D02*
X7030D01*
X7037Y10604D01*
X7086Y10531D01*
X7159Y10482D01*
X7194Y10475D01*
Y10639D01*
D02*
G37*
G36*
X9459Y10047D02*
X9373Y10030D01*
X9300Y9981D01*
X9251Y9909D01*
X9243Y9867D01*
X9192D01*
X9184Y9909D01*
X9135Y9981D01*
X9063Y10030D01*
X8977Y10047D01*
X8891Y10030D01*
X8818Y9981D01*
X8770Y9909D01*
X8753Y9823D01*
X8770Y9737D01*
X8818Y9664D01*
X8891Y9616D01*
X8977Y9599D01*
X8999Y9603D01*
X9038Y9560D01*
X9026Y9500D01*
X9043Y9414D01*
X9091Y9341D01*
X9164Y9293D01*
X9250Y9276D01*
X9315Y9289D01*
X9323Y9245D01*
X9372Y9172D01*
X9398Y9155D01*
X9399Y9136D01*
X9393Y9098D01*
X9330Y9056D01*
X9281Y8983D01*
X9274Y8948D01*
X9488D01*
Y8848D01*
X9274D01*
X9281Y8812D01*
X9330Y8739D01*
X9402Y8690D01*
X9481Y8675D01*
X9476Y8650D01*
X9493Y8564D01*
X9541Y8491D01*
X9614Y8443D01*
X9700Y8426D01*
X9786Y8443D01*
X9859Y8491D01*
X9907Y8564D01*
X9924Y8650D01*
X9907Y8736D01*
X9859Y8809D01*
X9786Y8857D01*
X9708Y8873D01*
X9712Y8898D01*
X9695Y8983D01*
X9647Y9056D01*
X9621Y9073D01*
X9619Y9092D01*
X9626Y9130D01*
X9689Y9172D01*
X9738Y9245D01*
X9755Y9331D01*
X9738Y9417D01*
X9689Y9489D01*
X9617Y9538D01*
X9531Y9555D01*
X9525Y9554D01*
X9521Y9560D01*
X9543Y9615D01*
X9545Y9616D01*
X9617Y9664D01*
X9666Y9737D01*
X9683Y9823D01*
X9666Y9909D01*
X9617Y9981D01*
X9545Y10030D01*
X9459Y10047D01*
D02*
G37*
G36*
X6317Y9635D02*
X6152D01*
Y9471D01*
X6188Y9478D01*
X6261Y9526D01*
X6310Y9599D01*
X6317Y9635D01*
D02*
G37*
G36*
X6052D02*
X5888D01*
X5895Y9599D01*
X5944Y9526D01*
X6017Y9478D01*
X6052Y9471D01*
Y9635D01*
D02*
G37*
G36*
X2795Y11130D02*
X2709Y11113D01*
X2637Y11064D01*
X2588Y10991D01*
X2571Y10906D01*
X2573Y10895D01*
X2532Y10845D01*
X2486Y10839D01*
X2414Y10809D01*
X2352Y10762D01*
X2305Y10700D01*
X2275Y10627D01*
X2265Y10550D01*
X2275Y10473D01*
X2305Y10400D01*
X2311Y10392D01*
X2289Y10347D01*
X2267D01*
Y9753D01*
X2349D01*
X2386Y9703D01*
X2376Y9650D01*
X2393Y9564D01*
X2426Y9515D01*
X2396Y9470D01*
X2362Y9476D01*
X2276Y9459D01*
X2204Y9411D01*
X2155Y9338D01*
X2138Y9252D01*
X2155Y9166D01*
X2204Y9093D01*
X2276Y9045D01*
X2287Y8992D01*
X2275Y8961D01*
X2265Y8883D01*
X2275Y8806D01*
X2305Y8734D01*
X2311Y8725D01*
X2289Y8680D01*
X2267D01*
Y8086D01*
X2374D01*
X2397Y8042D01*
X2393Y8036D01*
X2376Y7950D01*
X2393Y7864D01*
X2441Y7791D01*
X2514Y7743D01*
X2600Y7726D01*
X2686Y7743D01*
X2759Y7791D01*
X2807Y7864D01*
X2824Y7950D01*
X2807Y8036D01*
X2803Y8042D01*
X2826Y8086D01*
X2861D01*
Y8680D01*
X2839D01*
X2817Y8725D01*
X2823Y8734D01*
X2853Y8806D01*
X2863Y8883D01*
X2853Y8961D01*
X2823Y9033D01*
X2776Y9095D01*
X2714Y9143D01*
X2641Y9173D01*
X2609Y9177D01*
X2580Y9217D01*
X2587Y9252D01*
X2569Y9338D01*
X2536Y9387D01*
X2566Y9432D01*
X2600Y9426D01*
X2686Y9443D01*
X2759Y9491D01*
X2807Y9564D01*
X2824Y9650D01*
X2814Y9703D01*
X2851Y9753D01*
X2861D01*
Y10347D01*
X2839D01*
X2817Y10392D01*
X2823Y10400D01*
X2853Y10473D01*
X2863Y10550D01*
X2853Y10627D01*
X2843Y10651D01*
X2867Y10695D01*
X2881Y10698D01*
X2954Y10747D01*
X3003Y10820D01*
X3020Y10906D01*
X3003Y10991D01*
X2954Y11064D01*
X2881Y11113D01*
X2795Y11130D01*
D02*
G37*
G36*
X1847Y9727D02*
X1761Y9710D01*
X1688Y9662D01*
X1640Y9589D01*
X1625Y9515D01*
X1606Y9519D01*
X1520Y9501D01*
X1447Y9453D01*
X1399Y9380D01*
X1381Y9294D01*
X1399Y9208D01*
X1447Y9136D01*
X1520Y9087D01*
X1606Y9070D01*
X1692Y9087D01*
X1764Y9136D01*
X1813Y9208D01*
X1828Y9283D01*
X1847Y9279D01*
X1933Y9296D01*
X2005Y9345D01*
X2054Y9417D01*
X2071Y9503D01*
X2054Y9589D01*
X2005Y9662D01*
X1933Y9710D01*
X1847Y9727D01*
D02*
G37*
G36*
X6152Y9899D02*
Y9735D01*
X6317D01*
X6310Y9771D01*
X6261Y9844D01*
X6188Y9892D01*
X6152Y9899D01*
D02*
G37*
G36*
X6052D02*
X6017Y9892D01*
X5944Y9844D01*
X5895Y9771D01*
X5888Y9735D01*
X6052D01*
Y9899D01*
D02*
G37*
G36*
X550Y10014D02*
X464Y9997D01*
X391Y9949D01*
X343Y9876D01*
X326Y9790D01*
X343Y9704D01*
X391Y9631D01*
X464Y9583D01*
X550Y9566D01*
X636Y9583D01*
X709Y9631D01*
X757Y9704D01*
X774Y9790D01*
X757Y9876D01*
X709Y9949D01*
X636Y9997D01*
X550Y10014D01*
D02*
G37*
G36*
X45Y12519D02*
X-119D01*
Y12355D01*
X-83Y12362D01*
X-10Y12410D01*
X38Y12483D01*
X45Y12519D01*
D02*
G37*
G36*
X-219D02*
X-383D01*
X-376Y12483D01*
X-327Y12410D01*
X-255Y12362D01*
X-219Y12355D01*
Y12519D01*
D02*
G37*
G36*
X11847Y12517D02*
X11683D01*
Y12353D01*
X11719Y12360D01*
X11791Y12409D01*
X11840Y12481D01*
X11847Y12517D01*
D02*
G37*
G36*
X11583Y12782D02*
X11547Y12775D01*
X11474Y12726D01*
X11425Y12653D01*
X11418Y12617D01*
X11583D01*
Y12782D01*
D02*
G37*
G36*
X-119Y12783D02*
Y12619D01*
X45D01*
X38Y12655D01*
X-10Y12727D01*
X-83Y12776D01*
X-119Y12783D01*
D02*
G37*
G36*
X-219D02*
X-255Y12776D01*
X-327Y12727D01*
X-376Y12655D01*
X-383Y12619D01*
X-219D01*
Y12783D01*
D02*
G37*
G36*
X11683Y12782D02*
Y12617D01*
X11847D01*
X11840Y12653D01*
X11791Y12726D01*
X11719Y12775D01*
X11683Y12782D01*
D02*
G37*
G36*
X11583Y12517D02*
X11418D01*
X11425Y12481D01*
X11474Y12409D01*
X11547Y12360D01*
X11583Y12353D01*
Y12517D01*
D02*
G37*
G36*
X7550Y11022D02*
X7464Y11005D01*
X7391Y10956D01*
X7345Y10887D01*
X7330Y10897D01*
X7294Y10904D01*
Y10690D01*
Y10475D01*
X7330Y10482D01*
X7403Y10531D01*
X7449Y10600D01*
X7464Y10591D01*
X7550Y10573D01*
X7635Y10591D01*
X7708Y10639D01*
X7757Y10712D01*
X7774Y10798D01*
X7757Y10884D01*
X7708Y10956D01*
X7635Y11005D01*
X7550Y11022D01*
D02*
G37*
G36*
X1102Y11287D02*
X1017Y11270D01*
X944Y11222D01*
X895Y11149D01*
X878Y11063D01*
X895Y10977D01*
X944Y10904D01*
X1017Y10856D01*
X1102Y10839D01*
X1188Y10856D01*
X1261Y10904D01*
X1310Y10977D01*
X1327Y11063D01*
X1310Y11149D01*
X1261Y11222D01*
X1188Y11270D01*
X1102Y11287D01*
D02*
G37*
G36*
X7194Y10904D02*
X7159Y10897D01*
X7086Y10848D01*
X7037Y10775D01*
X7030Y10740D01*
X7194D01*
Y10904D01*
D02*
G37*
G36*
X2047Y11169D02*
X1961Y11152D01*
X1889Y11103D01*
X1861Y11062D01*
X1801D01*
X1773Y11103D01*
X1700Y11152D01*
X1614Y11169D01*
X1528Y11152D01*
X1456Y11103D01*
X1407Y11031D01*
X1390Y10945D01*
X1407Y10859D01*
X1456Y10786D01*
X1528Y10738D01*
X1614Y10721D01*
X1700Y10738D01*
X1773Y10786D01*
X1801Y10828D01*
X1861D01*
X1889Y10786D01*
X1961Y10738D01*
X2047Y10721D01*
X2133Y10738D01*
X2206Y10786D01*
X2254Y10859D01*
X2272Y10945D01*
X2254Y11031D01*
X2206Y11103D01*
X2133Y11152D01*
X2047Y11169D01*
D02*
G37*
G36*
X10472Y11996D02*
X10387Y11979D01*
X10314Y11930D01*
X10265Y11857D01*
X10248Y11772D01*
X10265Y11686D01*
X10314Y11613D01*
X10387Y11564D01*
X10472Y11547D01*
X10558Y11564D01*
X10631Y11613D01*
X10680Y11686D01*
X10697Y11772D01*
X10680Y11857D01*
X10631Y11930D01*
X10558Y11979D01*
X10472Y11996D01*
D02*
G37*
G36*
X9884Y11520D02*
X9720D01*
Y11356D01*
X9756Y11363D01*
X9829Y11411D01*
X9877Y11484D01*
X9884Y11520D01*
D02*
G37*
G36*
X9620D02*
X9456D01*
X9463Y11484D01*
X9511Y11411D01*
X9584Y11363D01*
X9620Y11356D01*
Y11520D01*
D02*
G37*
G36*
X8228Y9791D02*
X8142Y9774D01*
X8070Y9726D01*
X8021Y9653D01*
X8004Y9567D01*
X8021Y9481D01*
X8070Y9408D01*
X8142Y9360D01*
X8228Y9343D01*
X8314Y9360D01*
X8387Y9408D01*
X8436Y9481D01*
X8453Y9567D01*
X8436Y9653D01*
X8387Y9726D01*
X8314Y9774D01*
X8228Y9791D01*
D02*
G37*
G36*
X3898Y7692D02*
X3812Y7675D01*
X3739Y7626D01*
X3702D01*
X3629Y7675D01*
X3593Y7682D01*
Y7468D01*
X3543D01*
Y7418D01*
X3329D01*
X3336Y7382D01*
X3385Y7309D01*
X3395Y7302D01*
Y7252D01*
X3385Y7245D01*
X3336Y7172D01*
X3319Y7087D01*
X3336Y7001D01*
X3385Y6928D01*
X3417Y6907D01*
X3424Y6852D01*
X3375Y6779D01*
X3368Y6743D01*
X3797D01*
X3790Y6779D01*
X3741Y6852D01*
X3709Y6873D01*
X3702Y6928D01*
X3751Y7001D01*
X3768Y7087D01*
X3751Y7172D01*
X3715Y7226D01*
X3720Y7282D01*
X3724Y7290D01*
X3741Y7301D01*
X3755Y7298D01*
X3812Y7260D01*
X3898Y7243D01*
X3983Y7260D01*
X4040Y7298D01*
X4107Y7254D01*
X4193Y7237D01*
X4279Y7254D01*
X4341Y7295D01*
X4403Y7254D01*
X4488Y7237D01*
X4574Y7254D01*
X4647Y7302D01*
X4696Y7375D01*
X4713Y7461D01*
X4696Y7547D01*
X4647Y7620D01*
X4574Y7668D01*
X4488Y7685D01*
X4403Y7668D01*
X4341Y7627D01*
X4279Y7668D01*
X4193Y7685D01*
X4107Y7668D01*
X4050Y7630D01*
X3983Y7675D01*
X3898Y7692D01*
D02*
G37*
G36*
X5529Y7785D02*
X5365D01*
Y7620D01*
X5401Y7627D01*
X5474Y7676D01*
X5522Y7749D01*
X5529Y7785D01*
D02*
G37*
G36*
X3493Y7682D02*
X3457Y7675D01*
X3385Y7626D01*
X3336Y7553D01*
X3329Y7518D01*
X3493D01*
Y7682D01*
D02*
G37*
G36*
X5365Y8049D02*
Y7885D01*
X5529D01*
X5522Y7920D01*
X5474Y7993D01*
X5401Y8042D01*
X5365Y8049D01*
D02*
G37*
G36*
X4175Y8242D02*
X4011D01*
X4018Y8207D01*
X4067Y8134D01*
X4139Y8085D01*
X4175Y8078D01*
Y8242D01*
D02*
G37*
G36*
X6325Y8202D02*
X5897D01*
X5904Y8167D01*
X5941Y8111D01*
X5911Y8066D01*
X5896Y8069D01*
X5810Y8052D01*
X5737Y8003D01*
X5688Y7930D01*
X5671Y7844D01*
X5688Y7759D01*
X5737Y7686D01*
X5810Y7637D01*
X5896Y7620D01*
X5982Y7637D01*
X6054Y7686D01*
X6103Y7759D01*
X6120Y7844D01*
X6103Y7930D01*
X6066Y7986D01*
X6095Y8031D01*
X6111Y8028D01*
X6197Y8045D01*
X6270Y8094D01*
X6318Y8167D01*
X6325Y8202D01*
D02*
G37*
G36*
X5265Y8049D02*
X5229Y8042D01*
X5156Y7993D01*
X5141Y7970D01*
X5106Y7993D01*
X5020Y8010D01*
X4934Y7993D01*
X4861Y7944D01*
X4813Y7872D01*
X4796Y7786D01*
X4813Y7700D01*
X4861Y7627D01*
X4934Y7579D01*
X5020Y7562D01*
X5106Y7579D01*
X5179Y7627D01*
X5194Y7651D01*
X5229Y7627D01*
X5265Y7620D01*
Y7835D01*
Y8049D01*
D02*
G37*
G36*
X1778Y8121D02*
X1692Y8104D01*
X1619Y8055D01*
X1570Y7983D01*
X1553Y7897D01*
X1561Y7860D01*
X1520Y7851D01*
X1447Y7803D01*
X1399Y7730D01*
X1381Y7644D01*
X1399Y7558D01*
X1447Y7486D01*
X1520Y7437D01*
X1606Y7420D01*
X1692Y7437D01*
X1764Y7486D01*
X1813Y7558D01*
X1830Y7644D01*
X1823Y7681D01*
X1863Y7690D01*
X1936Y7738D01*
X1985Y7811D01*
X2002Y7897D01*
X1985Y7983D01*
X1936Y8055D01*
X1863Y8104D01*
X1778Y8121D01*
D02*
G37*
G36*
X3797Y6643D02*
X3633D01*
Y6479D01*
X3669Y6486D01*
X3741Y6534D01*
X3790Y6607D01*
X3797Y6643D01*
D02*
G37*
G36*
X3533D02*
X3368D01*
X3375Y6607D01*
X3424Y6534D01*
X3497Y6486D01*
X3533Y6479D01*
Y6643D01*
D02*
G37*
G36*
X2250Y7814D02*
X2164Y7797D01*
X2091Y7749D01*
X2043Y7676D01*
X2026Y7590D01*
X2043Y7504D01*
X2091Y7431D01*
X2164Y7383D01*
X2250Y7366D01*
X2250Y7366D01*
X2286Y7322D01*
X2275Y7294D01*
X2265Y7217D01*
X2275Y7139D01*
X2305Y7067D01*
X2311Y7058D01*
X2289Y7014D01*
X2267D01*
Y6420D01*
X2861D01*
Y7014D01*
X2839D01*
X2817Y7058D01*
X2823Y7067D01*
X2853Y7139D01*
X2863Y7217D01*
X2853Y7294D01*
X2823Y7366D01*
X2776Y7428D01*
X2714Y7476D01*
X2641Y7506D01*
X2564Y7516D01*
X2509Y7509D01*
X2470Y7543D01*
X2467Y7552D01*
X2474Y7590D01*
X2457Y7676D01*
X2409Y7749D01*
X2336Y7797D01*
X2250Y7814D01*
D02*
G37*
G36*
X1600Y7174D02*
X1514Y7157D01*
X1441Y7109D01*
X1393Y7036D01*
X1376Y6950D01*
X1393Y6864D01*
X1441Y6791D01*
X1514Y6743D01*
X1600Y6726D01*
X1686Y6743D01*
X1759Y6791D01*
X1807Y6864D01*
X1824Y6950D01*
X1807Y7036D01*
X1759Y7109D01*
X1686Y7157D01*
X1600Y7174D01*
D02*
G37*
G36*
X9636Y7666D02*
X9550Y7649D01*
X9478Y7600D01*
X9429Y7527D01*
X9420Y7480D01*
X9390Y7435D01*
X9304Y7418D01*
X9231Y7370D01*
X9187Y7303D01*
X9176Y7311D01*
X9090Y7328D01*
X9004Y7311D01*
X8956Y7278D01*
X8949Y7289D01*
X8876Y7337D01*
X8790Y7354D01*
X8704Y7337D01*
X8631Y7289D01*
X8583Y7216D01*
X8570Y7150D01*
X8519D01*
X8514Y7172D01*
X8466Y7245D01*
X8393Y7294D01*
X8307Y7311D01*
X8221Y7294D01*
X8148Y7245D01*
X8100Y7172D01*
X8083Y7087D01*
X8100Y7001D01*
X8148Y6928D01*
X8221Y6879D01*
X8307Y6862D01*
X8393Y6879D01*
X8466Y6928D01*
X8514Y7001D01*
X8527Y7066D01*
X8578D01*
X8583Y7044D01*
X8631Y6971D01*
X8704Y6923D01*
X8790Y6906D01*
X8876Y6923D01*
X8924Y6955D01*
X8931Y6945D01*
X9004Y6896D01*
X9090Y6879D01*
X9176Y6896D01*
X9249Y6945D01*
X9293Y7011D01*
X9304Y7004D01*
X9390Y6987D01*
X9476Y7004D01*
X9549Y7053D01*
X9597Y7125D01*
X9607Y7172D01*
X9636Y7217D01*
X9722Y7234D01*
X9795Y7283D01*
X9844Y7355D01*
X9861Y7441D01*
X9844Y7527D01*
X9795Y7600D01*
X9722Y7649D01*
X9636Y7666D01*
D02*
G37*
G36*
X750Y7634D02*
X664Y7617D01*
X591Y7569D01*
X543Y7496D01*
X526Y7410D01*
X543Y7324D01*
X591Y7251D01*
X664Y7203D01*
X750Y7186D01*
X836Y7203D01*
X909Y7251D01*
X957Y7324D01*
X974Y7410D01*
X957Y7496D01*
X909Y7569D01*
X836Y7617D01*
X750Y7634D01*
D02*
G37*
G36*
X5236Y7390D02*
X5150Y7373D01*
X5078Y7324D01*
X5029Y7251D01*
X5012Y7165D01*
X5029Y7080D01*
X5078Y7007D01*
X5150Y6958D01*
X5236Y6941D01*
X5322Y6958D01*
X5395Y7007D01*
X5443Y7080D01*
X5461Y7165D01*
X5443Y7251D01*
X5395Y7324D01*
X5322Y7373D01*
X5236Y7390D01*
D02*
G37*
G36*
X7667Y9368D02*
X7581Y9351D01*
X7509Y9302D01*
X7460Y9230D01*
X7443Y9144D01*
X7460Y9058D01*
X7509Y8985D01*
X7581Y8936D01*
X7651Y8923D01*
X7675Y8898D01*
X7684Y8872D01*
X7670Y8800D01*
X7687Y8714D01*
X7735Y8641D01*
X7808Y8592D01*
X7894Y8575D01*
X7980Y8592D01*
X8035Y8629D01*
X8098Y8587D01*
X8184Y8570D01*
X8270Y8587D01*
X8343Y8636D01*
X8391Y8709D01*
X8408Y8794D01*
X8391Y8880D01*
X8343Y8953D01*
X8270Y9002D01*
X8184Y9019D01*
X8098Y9002D01*
X8043Y8965D01*
X7980Y9007D01*
X7910Y9021D01*
X7887Y9045D01*
X7877Y9072D01*
X7892Y9144D01*
X7874Y9230D01*
X7826Y9302D01*
X7753Y9351D01*
X7667Y9368D01*
D02*
G37*
G36*
X9153Y8541D02*
X9067Y8524D01*
X8995Y8475D01*
X8967Y8433D01*
X8907D01*
X8879Y8475D01*
X8806Y8524D01*
X8720Y8541D01*
X8634Y8524D01*
X8562Y8475D01*
X8513Y8402D01*
X8496Y8317D01*
X8513Y8231D01*
X8562Y8158D01*
X8603Y8130D01*
Y8070D01*
X8562Y8042D01*
X8513Y7969D01*
X8496Y7883D01*
X8513Y7798D01*
X8562Y7725D01*
X8634Y7676D01*
X8720Y7659D01*
X8806Y7676D01*
X8879Y7725D01*
X8907Y7767D01*
X8967D01*
X8995Y7725D01*
X9067Y7676D01*
X9153Y7659D01*
X9239Y7676D01*
X9312Y7725D01*
X9360Y7798D01*
X9378Y7883D01*
X9360Y7969D01*
X9312Y8042D01*
X9270Y8070D01*
Y8130D01*
X9312Y8158D01*
X9360Y8231D01*
X9378Y8317D01*
X9360Y8402D01*
X9312Y8475D01*
X9239Y8524D01*
X9153Y8541D01*
D02*
G37*
G36*
X1620Y8834D02*
X1534Y8817D01*
X1461Y8769D01*
X1413Y8696D01*
X1396Y8610D01*
X1413Y8524D01*
X1461Y8451D01*
X1534Y8403D01*
X1620Y8386D01*
X1706Y8403D01*
X1779Y8451D01*
X1827Y8524D01*
X1844Y8610D01*
X1827Y8696D01*
X1779Y8769D01*
X1706Y8817D01*
X1620Y8834D01*
D02*
G37*
G36*
X630Y9224D02*
X544Y9207D01*
X471Y9159D01*
X423Y9086D01*
X406Y9000D01*
X423Y8914D01*
X471Y8841D01*
X544Y8793D01*
X630Y8776D01*
X716Y8793D01*
X789Y8841D01*
X837Y8914D01*
X854Y9000D01*
X837Y9086D01*
X789Y9159D01*
X716Y9207D01*
X630Y9224D01*
D02*
G37*
G36*
X4559Y9748D02*
X4474Y9731D01*
X4401Y9683D01*
X4352Y9610D01*
X4335Y9524D01*
X4352Y9438D01*
X4401Y9365D01*
X4474Y9317D01*
X4559Y9300D01*
X4645Y9317D01*
X4718Y9365D01*
X4767Y9438D01*
X4784Y9524D01*
X4767Y9610D01*
X4718Y9683D01*
X4645Y9731D01*
X4559Y9748D01*
D02*
G37*
G36*
X6969Y9422D02*
X6883Y9405D01*
X6810Y9356D01*
X6762Y9285D01*
X6688Y9300D01*
X6602Y9282D01*
X6543Y9243D01*
X6484Y9282D01*
X6398Y9300D01*
X6312Y9282D01*
X6239Y9234D01*
X6191Y9161D01*
X6174Y9075D01*
X6191Y8989D01*
X6200Y8976D01*
X6184Y8936D01*
X6172Y8927D01*
X6102Y8880D01*
X6053Y8807D01*
X6036Y8721D01*
X6053Y8635D01*
X6102Y8562D01*
X6163Y8521D01*
X6174Y8514D01*
X6161Y8467D01*
X6161Y8467D01*
Y8302D01*
X6325D01*
X6318Y8338D01*
X6270Y8411D01*
X6208Y8452D01*
X6197Y8460D01*
X6210Y8507D01*
X6222Y8504D01*
X6260Y8497D01*
X6346Y8514D01*
X6419Y8562D01*
X6467Y8635D01*
X6484Y8721D01*
X6467Y8807D01*
X6458Y8821D01*
X6474Y8860D01*
X6486Y8869D01*
X6543Y8908D01*
X6602Y8868D01*
X6688Y8851D01*
X6774Y8868D01*
X6847Y8917D01*
X6894Y8988D01*
X6969Y8973D01*
X7054Y8990D01*
X7127Y9039D01*
X7176Y9112D01*
X7193Y9198D01*
X7176Y9283D01*
X7127Y9356D01*
X7054Y9405D01*
X6969Y9422D01*
D02*
G37*
G36*
X3150Y9673D02*
X3064Y9656D01*
X2991Y9607D01*
X2942Y9535D01*
X2925Y9449D01*
X2942Y9363D01*
X2991Y9290D01*
X3064Y9242D01*
X3150Y9225D01*
X3235Y9242D01*
X3308Y9290D01*
X3357Y9363D01*
X3374Y9449D01*
X3357Y9535D01*
X3308Y9607D01*
X3235Y9656D01*
X3150Y9673D01*
D02*
G37*
G36*
X3297Y9004D02*
X3211Y8987D01*
X3139Y8938D01*
X3090Y8865D01*
X3073Y8780D01*
X3090Y8694D01*
X3139Y8621D01*
X3211Y8572D01*
X3234Y8568D01*
Y8517D01*
X3221Y8514D01*
X3148Y8466D01*
X3100Y8393D01*
X3093Y8357D01*
X3521D01*
X3514Y8393D01*
X3466Y8466D01*
X3393Y8514D01*
X3370Y8519D01*
Y8570D01*
X3383Y8572D01*
X3456Y8621D01*
X3504Y8694D01*
X3522Y8780D01*
X3504Y8865D01*
X3456Y8938D01*
X3383Y8987D01*
X3297Y9004D01*
D02*
G37*
G36*
X3521Y8257D02*
X3357D01*
Y8093D01*
X3393Y8100D01*
X3466Y8148D01*
X3514Y8221D01*
X3521Y8257D01*
D02*
G37*
G36*
X3257D02*
X3093D01*
X3100Y8221D01*
X3148Y8148D01*
X3221Y8100D01*
X3257Y8093D01*
Y8257D01*
D02*
G37*
G36*
X4439Y8242D02*
X4275D01*
Y8078D01*
X4311Y8085D01*
X4384Y8134D01*
X4432Y8207D01*
X4439Y8242D01*
D02*
G37*
G36*
X6061Y8467D02*
X6025Y8460D01*
X5952Y8411D01*
X5904Y8338D01*
X5897Y8302D01*
X6061D01*
Y8467D01*
D02*
G37*
G36*
X4275Y8507D02*
Y8342D01*
X4439D01*
X4432Y8378D01*
X4384Y8451D01*
X4311Y8500D01*
X4275Y8507D01*
D02*
G37*
G36*
X3937Y9083D02*
X3851Y9065D01*
X3778Y9017D01*
X3730Y8944D01*
X3713Y8858D01*
X3730Y8772D01*
X3752Y8740D01*
X3710Y8712D01*
X3661Y8639D01*
X3644Y8553D01*
X3661Y8467D01*
X3710Y8395D01*
X3782Y8346D01*
X3868Y8329D01*
X3954Y8346D01*
X3961Y8351D01*
X3974Y8342D01*
X4175D01*
Y8507D01*
X4139Y8500D01*
X4132Y8495D01*
X4087Y8525D01*
X4092Y8553D01*
X4075Y8639D01*
X4054Y8672D01*
X4096Y8700D01*
X4144Y8772D01*
X4161Y8858D01*
X4144Y8944D01*
X4096Y9017D01*
X4023Y9065D01*
X3937Y9083D01*
D02*
G37*
G36*
X7930Y8384D02*
X7844Y8367D01*
X7771Y8319D01*
X7749D01*
X7676Y8367D01*
X7590Y8384D01*
X7504Y8367D01*
X7431Y8319D01*
X7383Y8246D01*
X7366Y8160D01*
X7379Y8093D01*
X7372Y8058D01*
X7352Y8030D01*
X7312Y8002D01*
X7277Y7995D01*
X7243Y8002D01*
X7186Y8040D01*
X7122Y8053D01*
X7081Y8101D01*
X7085Y8120D01*
X7068Y8206D01*
X7019Y8279D01*
X6946Y8328D01*
X6861Y8345D01*
X6775Y8328D01*
X6702Y8279D01*
X6653Y8206D01*
X6636Y8120D01*
X6653Y8035D01*
X6702Y7962D01*
X6775Y7913D01*
X6838Y7901D01*
X6880Y7853D01*
X6876Y7833D01*
X6893Y7747D01*
X6941Y7674D01*
X6983Y7647D01*
Y7586D01*
X6941Y7559D01*
X6893Y7486D01*
X6876Y7400D01*
X6884Y7358D01*
X6841Y7319D01*
X6781Y7331D01*
X6696Y7314D01*
X6623Y7265D01*
X6574Y7281D01*
X6540Y7304D01*
X6454Y7321D01*
X6368Y7304D01*
X6307Y7263D01*
X6276Y7309D01*
X6203Y7357D01*
X6118Y7374D01*
X6032Y7357D01*
X5959Y7309D01*
X5911Y7236D01*
X5883Y7254D01*
X5797Y7272D01*
X5711Y7254D01*
X5639Y7206D01*
X5590Y7133D01*
X5573Y7047D01*
X5590Y6961D01*
X5639Y6889D01*
X5711Y6840D01*
X5797Y6823D01*
X5883Y6840D01*
X5956Y6889D01*
X6004Y6961D01*
X6032Y6943D01*
X6118Y6926D01*
X6203Y6943D01*
X6265Y6984D01*
X6295Y6938D01*
X6368Y6889D01*
X6454Y6872D01*
X6540Y6889D01*
X6613Y6938D01*
X6661Y6922D01*
X6696Y6899D01*
X6781Y6882D01*
X6867Y6899D01*
X6940Y6948D01*
X6943Y6951D01*
X6999Y6945D01*
X7036Y6889D01*
X7109Y6840D01*
X7195Y6823D01*
X7281Y6840D01*
X7353Y6889D01*
X7390Y6943D01*
X7447Y6949D01*
X7458Y6933D01*
X7530Y6884D01*
X7616Y6867D01*
X7702Y6884D01*
X7775Y6933D01*
X7823Y7005D01*
X7840Y7091D01*
X7823Y7177D01*
X7775Y7250D01*
X7702Y7298D01*
X7670Y7356D01*
X7679Y7400D01*
X7662Y7486D01*
X7613Y7559D01*
X7571Y7586D01*
Y7647D01*
X7613Y7674D01*
X7662Y7747D01*
X7679Y7833D01*
X7665Y7900D01*
X7672Y7935D01*
X7692Y7964D01*
X7749Y8001D01*
X7771D01*
X7844Y7953D01*
X7930Y7936D01*
X8016Y7953D01*
X8089Y8001D01*
X8137Y8074D01*
X8154Y8160D01*
X8137Y8246D01*
X8089Y8319D01*
X8016Y8367D01*
X7930Y8384D01*
D02*
G37*
%LPD*%
D50*
X-290Y-330D02*
D03*
X7085Y2470D02*
D03*
X11623Y-423D02*
D03*
X-169Y12569D02*
D03*
X11633Y12567D02*
D03*
X9670Y11570D02*
D03*
X3663Y4328D02*
D03*
X1693Y2283D02*
D03*
X9488Y8898D02*
D03*
X3307Y8307D02*
D03*
X3543Y7468D02*
D03*
X7992Y6053D02*
D03*
X6772Y4528D02*
D03*
X7244Y10690D02*
D03*
X10630Y7362D02*
D03*
X9587Y2126D02*
D03*
X3583Y6693D02*
D03*
X6111Y8252D02*
D03*
X4225Y8292D02*
D03*
X5315Y7835D02*
D03*
X6102Y9685D02*
D03*
D52*
X10820Y6930D02*
D03*
M02*
