G04 Layer_Color=65535*
%FSLAX24Y24*%
%MOIN*%
G70*
G01*
G75*
%ADD10C,0.0060*%
%ADD42C,0.0100*%
%ADD71C,0.0098*%
%ADD72C,0.0059*%
%ADD73C,0.0079*%
%ADD74R,0.0106X0.0331*%
G36*
X11319Y-648D02*
X11163Y-492D01*
X11319D01*
Y-648D01*
D02*
G37*
G36*
X-492D02*
X-648Y-492D01*
X-492D01*
Y-648D01*
D02*
G37*
G36*
X11319Y12344D02*
X11163Y12500D01*
X11319D01*
Y12344D01*
D02*
G37*
G36*
X-492D02*
X-648Y12500D01*
X-492D01*
Y12344D01*
D02*
G37*
D10*
X-228Y12744D02*
G03*
X-228Y12744I-25J0D01*
G01*
X11583D02*
G03*
X11583Y12744I-25J0D01*
G01*
X-228Y-248D02*
G03*
X-228Y-248I-25J0D01*
G01*
X11583D02*
G03*
X11583Y-248I-25J0D01*
G01*
X7661Y1077D02*
Y1203D01*
X7291Y1565D02*
X7339D01*
X6969Y1077D02*
Y1203D01*
X7291Y715D02*
X7339D01*
X8100Y3819D02*
X8100Y4213D01*
X7175D02*
X7175Y3819D01*
X7736D02*
X8100D01*
X7175D02*
X7539D01*
X7736Y4213D02*
X8100D01*
X7175D02*
X7539D01*
X8105Y4327D02*
X8301Y4491D01*
X8451Y4618D02*
X8647Y4782D01*
X8282Y4116D02*
X8478Y4280D01*
X8629Y4407D02*
X8825Y4571D01*
X8647Y4782D02*
X8825Y4571D01*
X8105Y4327D02*
X8282Y4116D01*
X8259Y3948D02*
X8538Y4182D01*
X8689Y4309D02*
X8968Y4543D01*
X8512Y3646D02*
X8791Y3880D01*
X8942Y4007D02*
X9221Y4241D01*
X8968Y4543D02*
X9221Y4241D01*
X8259Y3948D02*
X8512Y3646D01*
X7362Y8445D02*
Y8720D01*
X8071Y8445D02*
Y8720D01*
X7815Y8445D02*
X8071D01*
X7362D02*
X7618D01*
X7815Y8720D02*
X8071D01*
X7362D02*
X7618D01*
X2264Y4750D02*
X2864D01*
Y5850D01*
X2264D02*
X2864D01*
X2264Y4750D02*
Y5850D01*
X9882Y5020D02*
Y5906D01*
X8504Y5020D02*
X9882D01*
X8504D02*
Y6791D01*
X9882D01*
Y5906D02*
Y6791D01*
X7136Y10876D02*
Y11122D01*
Y11319D02*
Y11565D01*
X7431Y10876D02*
Y11122D01*
Y11319D02*
Y11565D01*
X7136D02*
X7431D01*
X7136Y10876D02*
X7431D01*
X3829Y5679D02*
X4075D01*
X4272D02*
X4518D01*
X3829Y5384D02*
X4075D01*
X4272D02*
X4518D01*
Y5679D01*
X3829Y5384D02*
Y5679D01*
X3720Y6368D02*
Y6614D01*
Y5925D02*
Y6171D01*
X3425Y6368D02*
Y6614D01*
Y5925D02*
Y6171D01*
Y5925D02*
X3720D01*
X3425Y6614D02*
X3720D01*
X8616Y8968D02*
X8862D01*
X9058D02*
X9304D01*
X8616Y8672D02*
X8862D01*
X9058D02*
X9304D01*
Y8968D01*
X8616Y8672D02*
Y8968D01*
X-848Y-952D02*
X-602D01*
X-405D02*
X-159D01*
X-848Y-1248D02*
X-602D01*
X-405D02*
X-159D01*
Y-952D01*
X-848Y-1248D02*
Y-952D01*
X-964Y148D02*
X-718D01*
X-522D02*
X-276D01*
X-964Y-148D02*
X-718D01*
X-522D02*
X-276D01*
Y148D01*
X-964Y-148D02*
Y148D01*
X-128Y-644D02*
Y-398D01*
Y-202D02*
Y44D01*
X168Y-644D02*
Y-398D01*
Y-202D02*
Y44D01*
X-128D02*
X168D01*
X-128Y-644D02*
X168D01*
X10352D02*
Y-398D01*
Y-202D02*
Y44D01*
X10648Y-644D02*
Y-398D01*
Y-202D02*
Y44D01*
X10352D02*
X10648D01*
X10352Y-644D02*
X10648D01*
X10756Y48D02*
X11002D01*
X11198D02*
X11444D01*
X10756Y-248D02*
X11002D01*
X11198D02*
X11444D01*
Y48D01*
X10756Y-248D02*
Y48D01*
X7028Y8435D02*
X7274D01*
X6585D02*
X6831D01*
X7028Y8730D02*
X7274D01*
X6585D02*
X6831D01*
X6585Y8435D02*
Y8730D01*
X7274Y8435D02*
Y8730D01*
X6378Y7756D02*
Y8002D01*
Y7313D02*
Y7559D01*
X6083Y7756D02*
Y8002D01*
Y7313D02*
Y7559D01*
Y7313D02*
X6378D01*
X6083Y8002D02*
X6378D01*
X11198Y-1248D02*
X11444D01*
X10756D02*
X11002D01*
X11198Y-952D02*
X11444D01*
X10756D02*
X11002D01*
X10756Y-1248D02*
Y-952D01*
X11444Y-1248D02*
Y-952D01*
X8152Y7156D02*
Y7402D01*
Y7598D02*
Y7844D01*
X8448Y7156D02*
Y7402D01*
Y7598D02*
Y7844D01*
X8152D02*
X8448D01*
X8152Y7156D02*
X8448D01*
X10748Y12198D02*
Y12444D01*
Y11756D02*
Y12002D01*
X10452Y12198D02*
Y12444D01*
Y11756D02*
Y12002D01*
Y11756D02*
X10748D01*
X10452Y12444D02*
X10748D01*
X11198Y12752D02*
X11444D01*
X10756D02*
X11002D01*
X11198Y13048D02*
X11444D01*
X10756D02*
X11002D01*
X10756Y12752D02*
Y13048D01*
X11444Y12752D02*
Y13048D01*
X11278Y11752D02*
X11524D01*
X10836D02*
X11082D01*
X11278Y12048D02*
X11524D01*
X10836D02*
X11082D01*
X10836Y11752D02*
Y12048D01*
X11524Y11752D02*
Y12048D01*
X-894D02*
X-648D01*
X-452D02*
X-206D01*
X-894Y11752D02*
X-648D01*
X-452D02*
X-206D01*
Y12048D01*
X-894Y11752D02*
Y12048D01*
X3396Y7904D02*
X3642D01*
X3839D02*
X4085D01*
X3396Y7608D02*
X3642D01*
X3839D02*
X4085D01*
Y7904D01*
X3396Y7608D02*
Y7904D01*
Y8455D02*
X3642D01*
X3839D02*
X4085D01*
X3396Y8159D02*
X3642D01*
X3839D02*
X4085D01*
Y8455D01*
X3396Y8159D02*
Y8455D01*
X-944Y13048D02*
X-698D01*
X-502D02*
X-256D01*
X-944Y12752D02*
X-698D01*
X-502D02*
X-256D01*
Y13048D01*
X-944Y12752D02*
Y13048D01*
X248Y12198D02*
Y12444D01*
Y11756D02*
Y12002D01*
X-48Y12198D02*
Y12444D01*
Y11756D02*
Y12002D01*
Y11756D02*
X248D01*
X-48Y12444D02*
X248D01*
X1852Y5156D02*
Y5402D01*
Y5598D02*
Y5844D01*
X2148Y5156D02*
Y5402D01*
Y5598D02*
Y5844D01*
X1852D02*
X2148D01*
X1852Y5156D02*
X2148D01*
X1852Y6806D02*
Y7052D01*
Y7248D02*
Y7494D01*
X2148Y6806D02*
Y7052D01*
Y7248D02*
Y7494D01*
X1852D02*
X2148D01*
X1852Y6806D02*
X2148D01*
Y4848D02*
Y5094D01*
Y4406D02*
Y4652D01*
X1852Y4848D02*
Y5094D01*
Y4406D02*
Y4652D01*
Y4406D02*
X2148D01*
X1852Y5094D02*
X2148D01*
Y6498D02*
Y6744D01*
Y6056D02*
Y6302D01*
X1852Y6498D02*
Y6744D01*
Y6056D02*
Y6302D01*
Y6056D02*
X2148D01*
X1852Y6744D02*
X2148D01*
X1852Y8456D02*
Y8702D01*
Y8898D02*
Y9144D01*
X2148Y8456D02*
Y8702D01*
Y8898D02*
Y9144D01*
X1852D02*
X2148D01*
X1852Y8456D02*
X2148D01*
X1902Y10106D02*
Y10352D01*
Y10548D02*
Y10794D01*
X2198Y10106D02*
Y10352D01*
Y10548D02*
Y10794D01*
X1902D02*
X2198D01*
X1902Y10106D02*
X2198D01*
X2148Y8148D02*
Y8394D01*
Y7706D02*
Y7952D01*
X1852Y8148D02*
Y8394D01*
Y7706D02*
Y7952D01*
Y7706D02*
X2148D01*
X1852Y8394D02*
X2148D01*
X2198Y9798D02*
Y10044D01*
Y9356D02*
Y9602D01*
X1902Y9798D02*
Y10044D01*
Y9356D02*
Y9602D01*
Y9356D02*
X2198D01*
X1902Y10044D02*
X2198D01*
X2264Y6417D02*
X2864D01*
Y7517D01*
X2264D02*
X2864D01*
X2264Y6417D02*
Y7517D01*
Y8083D02*
X2864D01*
Y9183D01*
X2264D02*
X2864D01*
X2264Y8083D02*
Y9183D01*
Y9750D02*
X2864D01*
Y10850D01*
X2264D02*
X2864D01*
X2264Y9750D02*
Y10850D01*
X-7480Y-6890D02*
X-6890Y-7480D01*
X-7480Y18701D02*
X-6890Y19291D01*
X-7480Y18701D02*
Y18701D01*
X17520Y-7480D02*
X18110Y-6890D01*
X17520Y19291D02*
X18101Y18710D01*
X18110D01*
X12008Y13780D02*
X12598Y13189D01*
X-1969Y13189D02*
X-1378Y13780D01*
X-1969Y13189D02*
Y13189D01*
Y-1378D02*
X-1378Y-1969D01*
X12008D02*
X12598Y-1378D01*
X4970Y7372D02*
Y7844D01*
X4892Y7451D02*
X4970Y7372D01*
X5049Y7451D01*
X4537Y7844D02*
X4616Y7766D01*
X4537Y7844D02*
X4616Y7923D01*
X4537Y7844D02*
X4970D01*
X4321Y7904D02*
X4439Y7785D01*
X4321D02*
X4439Y7904D01*
X4734Y7451D02*
X4813Y7372D01*
X4734Y7451D02*
Y7451D01*
X4656Y7372D02*
X4734Y7451D01*
Y7530D01*
X3110Y11654D02*
X3189Y11575D01*
X3110Y11260D02*
Y11535D01*
Y11654D01*
X3031Y11575D02*
X3110Y11654D01*
X6961Y302D02*
Y578D01*
X7669Y302D02*
Y578D01*
X7413Y302D02*
X7669D01*
X6961D02*
X7217D01*
X7413Y578D02*
X7669D01*
X6961D02*
X7217D01*
X7669Y1702D02*
Y1978D01*
X6961Y1702D02*
Y1978D01*
X7217D01*
X7413D02*
X7669D01*
X6961Y1702D02*
X7217D01*
X7413D02*
X7669D01*
X5151Y1622D02*
Y1898D01*
X5859Y1622D02*
Y1898D01*
X5603Y1622D02*
X5859D01*
X5151D02*
X5407D01*
X5603Y1898D02*
X5859D01*
X5151D02*
X5407D01*
X7608Y4754D02*
Y5030D01*
X6900Y4754D02*
Y5030D01*
X7155D01*
X7352D02*
X7608D01*
X6900Y4754D02*
X7155D01*
X7352D02*
X7608D01*
X3799Y4882D02*
X4075D01*
X3799Y4173D02*
X4075D01*
X3799D02*
Y4429D01*
Y4626D02*
Y4882D01*
X4075Y4173D02*
Y4429D01*
Y4626D02*
Y4882D01*
X6047Y1684D02*
X6323D01*
X6047Y976D02*
X6323D01*
X6047D02*
Y1232D01*
Y1428D02*
Y1684D01*
X6323Y976D02*
Y1232D01*
Y1428D02*
Y1684D01*
X6397Y976D02*
X6673D01*
X6397Y1684D02*
X6673D01*
Y1428D02*
Y1684D01*
Y976D02*
Y1232D01*
X6397Y1428D02*
Y1684D01*
Y976D02*
Y1232D01*
X7669Y2052D02*
Y2328D01*
X6961Y2052D02*
Y2328D01*
X7217D01*
X7413D02*
X7669D01*
X6961Y2052D02*
X7217D01*
X7413D02*
X7669D01*
X7461Y4291D02*
X7825D01*
X6900D02*
X7264D01*
X7461Y4685D02*
X7825D01*
X6900D02*
X7264D01*
X6900Y4291D02*
Y4685D01*
X7825Y4291D02*
Y4685D01*
X6417Y5866D02*
Y6142D01*
X7126Y5866D02*
Y6142D01*
X6870Y5866D02*
X7126D01*
X6417D02*
X6673D01*
X6870Y6142D02*
X7126D01*
X6417D02*
X6673D01*
X6240Y5866D02*
Y6142D01*
X5531Y5866D02*
Y6142D01*
X5787D01*
X5984D02*
X6240D01*
X5531Y5866D02*
X5787D01*
X5984D02*
X6240D01*
X8162Y7936D02*
X8438D01*
X8162Y8644D02*
X8438D01*
Y8388D02*
Y8644D01*
Y7936D02*
Y8192D01*
X8162Y8388D02*
Y8644D01*
Y7936D02*
Y8192D01*
X4193Y9439D02*
X4469D01*
X4193Y8730D02*
X4469D01*
X4193D02*
Y8986D01*
Y9183D02*
Y9439D01*
X4469Y8730D02*
Y8986D01*
Y9183D02*
Y9439D01*
X6196Y9783D02*
Y10059D01*
X5487Y9783D02*
Y10059D01*
X5743D01*
X5940D02*
X6196D01*
X5487Y9783D02*
X5743D01*
X5940D02*
X6196D01*
X5394Y9783D02*
Y10059D01*
X4685Y9783D02*
Y10059D01*
X4941D01*
X5138D02*
X5394D01*
X4685Y9783D02*
X4941D01*
X5138D02*
X5394D01*
X8676Y11382D02*
Y11658D01*
X9384Y11382D02*
Y11658D01*
X9128Y11382D02*
X9384D01*
X8676D02*
X8932D01*
X9128Y11658D02*
X9384D01*
X8676D02*
X8932D01*
X5167Y46D02*
X5443D01*
X5167Y754D02*
X5443D01*
Y498D02*
Y754D01*
Y46D02*
Y302D01*
X5167Y498D02*
Y754D01*
Y46D02*
Y302D01*
Y846D02*
Y1102D01*
Y1298D02*
Y1554D01*
X5443Y846D02*
Y1102D01*
Y1298D02*
Y1554D01*
X5167D02*
X5443D01*
X5167Y846D02*
X5443D01*
X5167Y-1194D02*
Y-938D01*
Y-741D02*
Y-485D01*
X5443Y-1194D02*
Y-938D01*
Y-741D02*
Y-485D01*
X5167D02*
X5443D01*
X5167Y-1194D02*
X5443D01*
X5198Y-338D02*
X5454D01*
X4746D02*
X5002D01*
X5198Y-62D02*
X5454D01*
X4746D02*
X5002D01*
X4746Y-338D02*
Y-62D01*
X5454Y-338D02*
Y-62D01*
X7047Y7002D02*
Y6777D01*
X7092Y6732D01*
X7182D01*
X7227Y6777D01*
Y7002D01*
X7497D02*
X7317D01*
Y6867D01*
X7407Y6912D01*
X7452D01*
X7497Y6867D01*
Y6777D01*
X7452Y6732D01*
X7362D01*
X7317Y6777D01*
X9235Y1318D02*
X9190Y1363D01*
X9100D01*
X9055Y1318D01*
Y1273D01*
X9100Y1228D01*
X9190D01*
X9235Y1183D01*
Y1138D01*
X9190Y1093D01*
X9100D01*
X9055Y1138D01*
X9325Y1363D02*
Y1093D01*
X9460D01*
X9505Y1138D01*
Y1183D01*
X9460Y1228D01*
X9325D01*
X9460D01*
X9505Y1273D01*
Y1318D01*
X9460Y1363D01*
X9325D01*
X9775Y1093D02*
X9595D01*
X9775Y1273D01*
Y1318D01*
X9730Y1363D01*
X9640D01*
X9595Y1318D01*
X4218Y8189D02*
X4443D01*
X4488Y8234D01*
Y8324D01*
X4443Y8369D01*
X4218D01*
X4488Y8639D02*
Y8459D01*
X4308Y8639D01*
X4263D01*
X4218Y8594D01*
Y8504D01*
X4263Y8459D01*
X6299Y9561D02*
Y9291D01*
X6434D01*
X6479Y9336D01*
Y9516D01*
X6434Y9561D01*
X6299D01*
X6749D02*
X6659Y9516D01*
X6569Y9426D01*
Y9336D01*
X6614Y9291D01*
X6704D01*
X6749Y9336D01*
Y9381D01*
X6704Y9426D01*
X6569D01*
X2925Y1597D02*
X2880Y1552D01*
Y1462D01*
X2925Y1417D01*
X2970D01*
X3015Y1462D01*
Y1552D01*
X3060Y1597D01*
X3105D01*
X3150Y1552D01*
Y1462D01*
X3105Y1417D01*
X2880Y1687D02*
X3150D01*
X3060Y1777D01*
X3150Y1867D01*
X2880D01*
Y1957D02*
X3150D01*
Y2092D01*
X3105Y2137D01*
X2925D01*
X2880Y2092D01*
Y1957D01*
X4730Y6102D02*
X4955D01*
X5000Y6147D01*
Y6237D01*
X4955Y6282D01*
X4730D01*
X4775Y6372D02*
X4730Y6417D01*
Y6507D01*
X4775Y6552D01*
X4820D01*
X4865Y6507D01*
X4910Y6552D01*
X4955D01*
X5000Y6507D01*
Y6417D01*
X4955Y6372D01*
X4910D01*
X4865Y6417D01*
X4820Y6372D01*
X4775D01*
X4865Y6417D02*
Y6507D01*
X5100Y-2600D02*
Y-2420D01*
X5190Y-2330D01*
X5280Y-2420D01*
Y-2600D01*
Y-2465D01*
X5100D01*
X5370Y-2600D02*
X5460D01*
X5415D01*
Y-2330D01*
X5370Y-2375D01*
X5596Y5226D02*
X5866Y5406D01*
X5596D02*
X5866Y5226D01*
Y5676D02*
Y5496D01*
X5686Y5676D01*
X5641D01*
X5596Y5631D01*
Y5541D01*
X5641Y5496D01*
X4300Y5120D02*
Y4895D01*
X4345Y4850D01*
X4435D01*
X4480Y4895D01*
Y5120D01*
X4570Y4850D02*
X4660D01*
X4615D01*
Y5120D01*
X4570Y5075D01*
X7801Y866D02*
X8071Y1046D01*
X7801D02*
X8071Y866D01*
Y1136D02*
Y1226D01*
Y1181D01*
X7801D01*
X7846Y1136D01*
X7409Y3695D02*
Y3425D01*
X7589D01*
X7859D02*
X7679D01*
X7859Y3605D01*
Y3650D01*
X7814Y3695D01*
X7724D01*
X7679Y3650D01*
X7937Y4695D02*
X8110Y4488D01*
X8248Y4604D01*
X8172Y4834D02*
X8178Y4897D01*
X8247Y4955D01*
X8310Y4950D01*
X8339Y4915D01*
X8334Y4852D01*
X8299Y4823D01*
X8334Y4852D01*
X8397Y4846D01*
X8426Y4812D01*
X8420Y4748D01*
X8351Y4691D01*
X8288Y4696D01*
X8852Y3713D02*
X8788Y3719D01*
X8719Y3661D01*
X8714Y3598D01*
X8829Y3460D01*
X8893Y3454D01*
X8962Y3512D01*
X8967Y3575D01*
X9065Y3599D02*
X9134Y3657D01*
X9099Y3628D01*
X8926Y3834D01*
X8920Y3771D01*
X9093Y3916D02*
X9098Y3979D01*
X9167Y4037D01*
X9231Y4031D01*
X9346Y3893D01*
X9341Y3830D01*
X9272Y3772D01*
X9208Y3778D01*
X9093Y3916D01*
X-1620Y13380D02*
X-1811Y13189D01*
X-1684Y13062D01*
X-1429Y13189D02*
X-1620Y12998D01*
X-1525Y12903D01*
X-1461D01*
X-1334Y13030D01*
Y13094D01*
X-1429Y13189D01*
Y12807D02*
X-1366Y12744D01*
X-1398Y12775D01*
X-1207Y12966D01*
X-1270D01*
X7542Y9044D02*
X7497Y9089D01*
X7407D01*
X7362Y9044D01*
Y8864D01*
X7407Y8819D01*
X7497D01*
X7542Y8864D01*
X7632Y8819D02*
X7722D01*
X7677D01*
Y9089D01*
X7632Y9044D01*
X7857D02*
X7902Y9089D01*
X7992D01*
X8037Y9044D01*
Y8999D01*
X7992Y8954D01*
X8037Y8909D01*
Y8864D01*
X7992Y8819D01*
X7902D01*
X7857Y8864D01*
Y8909D01*
X7902Y8954D01*
X7857Y8999D01*
Y9044D01*
X7902Y8954D02*
X7992D01*
X1044Y4412D02*
Y4592D01*
X999Y4637D01*
X909D01*
X864Y4592D01*
Y4412D01*
X909Y4367D01*
X999D01*
X954Y4457D02*
X1044Y4367D01*
X999D02*
X1044Y4412D01*
X1269Y4367D02*
Y4637D01*
X1134Y4502D01*
X1314D01*
X9769Y10354D02*
X9994D01*
X10039Y10399D01*
Y10489D01*
X9994Y10534D01*
X9769D01*
X9814Y10624D02*
X9769Y10669D01*
Y10759D01*
X9814Y10804D01*
X9859D01*
X9904Y10759D01*
Y10714D01*
Y10759D01*
X9949Y10804D01*
X9994D01*
X10039Y10759D01*
Y10669D01*
X9994Y10624D01*
X2950Y5259D02*
Y5169D01*
Y5214D01*
X3175D01*
X3220Y5169D01*
Y5124D01*
X3175Y5079D01*
X3220Y5484D02*
X2950D01*
X3085Y5349D01*
Y5529D01*
X4297Y10433D02*
Y10613D01*
Y10523D01*
X4567D01*
Y10703D02*
X4297D01*
Y10838D01*
X4342Y10883D01*
X4432D01*
X4477Y10838D01*
Y10703D01*
X4567Y10973D02*
Y11063D01*
Y11018D01*
X4297D01*
X4342Y10973D01*
X4297Y11198D02*
Y11378D01*
X4342D01*
X4522Y11198D01*
X4567D01*
X8096Y5492D02*
X8366D01*
Y5627D01*
X8321Y5672D01*
X8276D01*
X8231Y5627D01*
Y5492D01*
Y5627D01*
X8186Y5672D01*
X8141D01*
X8096Y5627D01*
Y5492D01*
X8366Y5762D02*
X8186D01*
X8096Y5852D01*
X8186Y5942D01*
X8366D01*
X8231D01*
Y5762D01*
X8096Y6032D02*
Y6212D01*
Y6122D01*
X8366D01*
X7441Y10039D02*
X7171D01*
Y10174D01*
X7216Y10219D01*
X7306D01*
X7351Y10174D01*
Y10039D01*
Y10129D02*
X7441Y10219D01*
X7216Y10309D02*
X7171Y10354D01*
Y10444D01*
X7216Y10489D01*
X7261D01*
X7306Y10444D01*
Y10399D01*
Y10444D01*
X7351Y10489D01*
X7396D01*
X7441Y10444D01*
Y10354D01*
X7396Y10309D01*
X7171Y10579D02*
Y10759D01*
X7216D01*
X7396Y10579D01*
X7441D01*
X4606Y11372D02*
X4786D01*
X4696D01*
Y11102D01*
X4876D02*
Y11372D01*
X5011D01*
X5056Y11327D01*
Y11237D01*
X5011Y11192D01*
X4876D01*
X5146Y11102D02*
X5236D01*
X5191D01*
Y11372D01*
X5146Y11327D01*
X5551Y11372D02*
X5461Y11327D01*
X5371Y11237D01*
Y11147D01*
X5416Y11102D01*
X5506D01*
X5551Y11147D01*
Y11192D01*
X5506Y11237D01*
X5371D01*
X5669Y11372D02*
X5849D01*
X5759D01*
Y11102D01*
X5939D02*
Y11372D01*
X6074D01*
X6119Y11327D01*
Y11237D01*
X6074Y11192D01*
X5939D01*
X6389Y11102D02*
X6209D01*
X6389Y11282D01*
Y11327D01*
X6344Y11372D01*
X6254D01*
X6209Y11327D01*
X9016Y9719D02*
X9196D01*
X9106D01*
Y9449D01*
X9286D02*
Y9719D01*
X9421D01*
X9466Y9674D01*
Y9584D01*
X9421Y9539D01*
X9286D01*
X9556Y9449D02*
X9646D01*
X9601D01*
Y9719D01*
X9556Y9674D01*
X9780D02*
X9825Y9719D01*
X9915D01*
X9960Y9674D01*
Y9629D01*
X9915Y9584D01*
X9960Y9539D01*
Y9494D01*
X9915Y9449D01*
X9825D01*
X9780Y9494D01*
Y9539D01*
X9825Y9584D01*
X9780Y9629D01*
Y9674D01*
X9825Y9584D02*
X9915D01*
X9094Y9055D02*
Y9325D01*
X9229D01*
X9274Y9280D01*
Y9190D01*
X9229Y9145D01*
X9094D01*
X9184D02*
X9274Y9055D01*
X9364Y9280D02*
X9409Y9325D01*
X9499D01*
X9544Y9280D01*
Y9235D01*
X9499Y9190D01*
X9454D01*
X9499D01*
X9544Y9145D01*
Y9100D01*
X9499Y9055D01*
X9409D01*
X9364Y9100D01*
X9814Y9325D02*
X9724Y9280D01*
X9634Y9190D01*
Y9100D01*
X9679Y9055D01*
X9769D01*
X9814Y9100D01*
Y9145D01*
X9769Y9190D01*
X9634D01*
X3706Y9528D02*
Y9707D01*
Y9618D01*
X3976D01*
Y9797D02*
X3706D01*
Y9932D01*
X3751Y9977D01*
X3841D01*
X3886Y9932D01*
Y9797D01*
X3976Y10067D02*
Y10157D01*
Y10112D01*
X3706D01*
X3751Y10067D01*
X3706Y10472D02*
Y10292D01*
X3841D01*
X3796Y10382D01*
Y10427D01*
X3841Y10472D01*
X3931D01*
X3976Y10427D01*
Y10337D01*
X3931Y10292D01*
X5394Y7090D02*
X5574D01*
X5484D01*
Y6820D01*
X5664D02*
Y7090D01*
X5799D01*
X5844Y7045D01*
Y6955D01*
X5799Y6910D01*
X5664D01*
X5934Y6820D02*
X6023D01*
X5979D01*
Y7090D01*
X5934Y7045D01*
X6158D02*
X6203Y7090D01*
X6293D01*
X6338Y7045D01*
Y7000D01*
X6293Y6955D01*
X6248D01*
X6293D01*
X6338Y6910D01*
Y6865D01*
X6293Y6820D01*
X6203D01*
X6158Y6865D01*
X9125Y8052D02*
X9267Y8163D01*
X9196Y8107D01*
X9362Y7895D01*
X9504Y8006D02*
X9338Y8218D01*
X9444Y8301D01*
X9507Y8294D01*
X9563Y8223D01*
X9555Y8160D01*
X9449Y8076D01*
X9717Y8172D02*
X9787Y8227D01*
X9752Y8200D01*
X9586Y8412D01*
X9578Y8349D01*
X9894Y8310D02*
X9965Y8366D01*
X9929Y8338D01*
X9763Y8551D01*
X9755Y8488D01*
X8526Y8055D02*
X8670Y8163D01*
X8598Y8109D01*
X8761Y7894D01*
X8905Y8002D02*
X8742Y8217D01*
X8849Y8299D01*
X8912Y8290D01*
X8967Y8218D01*
X8958Y8155D01*
X8850Y8074D01*
X9120Y8165D02*
X9192Y8220D01*
X9156Y8192D01*
X8993Y8408D01*
X8984Y8345D01*
X9163Y8480D02*
X9172Y8543D01*
X9244Y8598D01*
X9307Y8589D01*
X9415Y8445D01*
X9407Y8382D01*
X9335Y8328D01*
X9272Y8337D01*
X9163Y8480D01*
X3228Y7205D02*
X2958D01*
Y7340D01*
X3003Y7385D01*
X3093D01*
X3138Y7340D01*
Y7205D01*
Y7295D02*
X3228Y7385D01*
Y7475D02*
Y7565D01*
Y7520D01*
X2958D01*
X3003Y7475D01*
X3228Y7835D02*
X2958D01*
X3093Y7700D01*
Y7880D01*
X3228Y8110D02*
X2958D01*
Y8245D01*
X3003Y8290D01*
X3093D01*
X3138Y8245D01*
Y8110D01*
Y8200D02*
X3228Y8290D01*
Y8380D02*
Y8470D01*
Y8425D01*
X2958D01*
X3003Y8380D01*
Y8605D02*
X2958Y8650D01*
Y8740D01*
X3003Y8785D01*
X3048D01*
X3093Y8740D01*
Y8695D01*
Y8740D01*
X3138Y8785D01*
X3183D01*
X3228Y8740D01*
Y8650D01*
X3183Y8605D01*
X2958Y6637D02*
Y6547D01*
Y6592D01*
X3183D01*
X3228Y6547D01*
Y6502D01*
X3183Y6457D01*
X3003Y6727D02*
X2958Y6772D01*
Y6862D01*
X3003Y6907D01*
X3048D01*
X3093Y6862D01*
Y6817D01*
Y6862D01*
X3138Y6907D01*
X3183D01*
X3228Y6862D01*
Y6772D01*
X3183Y6727D01*
X3160Y9168D02*
X3070D01*
X3115D01*
Y8943D01*
X3070Y8898D01*
X3025D01*
X2980Y8943D01*
X3430Y8898D02*
X3250D01*
X3430Y9078D01*
Y9123D01*
X3385Y9168D01*
X3295D01*
X3250Y9123D01*
X2958Y10298D02*
Y10208D01*
Y10253D01*
X3183D01*
X3228Y10208D01*
Y10163D01*
X3183Y10118D01*
X3228Y10388D02*
Y10478D01*
Y10433D01*
X2958D01*
X3003Y10388D01*
X1044Y6074D02*
Y6254D01*
X999Y6299D01*
X909D01*
X864Y6254D01*
Y6074D01*
X909Y6029D01*
X999D01*
X954Y6119D02*
X1044Y6029D01*
X999D02*
X1044Y6074D01*
X1134Y6254D02*
X1179Y6299D01*
X1269D01*
X1314Y6254D01*
Y6209D01*
X1269Y6164D01*
X1224D01*
X1269D01*
X1314Y6119D01*
Y6074D01*
X1269Y6029D01*
X1179D01*
X1134Y6074D01*
X1044Y7737D02*
Y7917D01*
X999Y7962D01*
X909D01*
X864Y7917D01*
Y7737D01*
X909Y7692D01*
X999D01*
X954Y7782D02*
X1044Y7692D01*
X999D02*
X1044Y7737D01*
X1314Y7692D02*
X1134D01*
X1314Y7872D01*
Y7917D01*
X1269Y7962D01*
X1179D01*
X1134Y7917D01*
X1044Y9399D02*
Y9579D01*
X999Y9624D01*
X909D01*
X864Y9579D01*
Y9399D01*
X909Y9354D01*
X999D01*
X954Y9444D02*
X1044Y9354D01*
X999D02*
X1044Y9399D01*
X1134Y9354D02*
X1224D01*
X1179D01*
Y9624D01*
X1134Y9579D01*
X8200Y8920D02*
X8155Y8875D01*
Y8785D01*
X8200Y8740D01*
X8380D01*
X8425Y8785D01*
Y8875D01*
X8380Y8920D01*
X8425Y9190D02*
Y9010D01*
X8245Y9190D01*
X8200D01*
X8155Y9145D01*
Y9055D01*
X8200Y9010D01*
X8425Y9460D02*
Y9280D01*
X8245Y9460D01*
X8200D01*
X8155Y9415D01*
Y9325D01*
X8200Y9280D01*
X11759Y12841D02*
X11950Y12650D01*
X12077Y12777D01*
X11950Y13032D02*
X12141Y12841D01*
X12236Y12936D01*
Y13000D01*
X12109Y13127D01*
X12045D01*
X11950Y13032D01*
X12459Y13159D02*
X12332Y13032D01*
Y13286D01*
X12300Y13318D01*
X12236D01*
X12173Y13254D01*
Y13191D01*
X2300Y9350D02*
Y9620D01*
X2435D01*
X2480Y9575D01*
Y9485D01*
X2435Y9440D01*
X2300D01*
X2390D02*
X2480Y9350D01*
X2750D02*
X2570D01*
X2750Y9530D01*
Y9575D01*
X2705Y9620D01*
X2615D01*
X2570Y9575D01*
X2250Y7700D02*
Y7970D01*
X2385D01*
X2430Y7925D01*
Y7835D01*
X2385Y7790D01*
X2250D01*
X2340D02*
X2430Y7700D01*
X2520Y7925D02*
X2565Y7970D01*
X2655D01*
X2700Y7925D01*
Y7880D01*
X2655Y7835D01*
X2610D01*
X2655D01*
X2700Y7790D01*
Y7745D01*
X2655Y7700D01*
X2565D01*
X2520Y7745D01*
X1309Y10300D02*
X1039D01*
Y10435D01*
X1084Y10480D01*
X1174D01*
X1219Y10435D01*
Y10300D01*
Y10390D02*
X1309Y10480D01*
Y10705D02*
X1039D01*
X1174Y10570D01*
Y10750D01*
X1309Y8600D02*
X1039D01*
Y8735D01*
X1084Y8780D01*
X1174D01*
X1219Y8735D01*
Y8600D01*
Y8690D02*
X1309Y8780D01*
X1039Y9050D02*
Y8870D01*
X1174D01*
X1129Y8960D01*
Y9005D01*
X1174Y9050D01*
X1264D01*
X1309Y9005D01*
Y8915D01*
X1264Y8870D01*
X2300Y6050D02*
Y6320D01*
X2435D01*
X2480Y6275D01*
Y6185D01*
X2435Y6140D01*
X2300D01*
X2390D02*
X2480Y6050D01*
X2750Y6320D02*
X2660Y6275D01*
X2570Y6185D01*
Y6095D01*
X2615Y6050D01*
X2705D01*
X2750Y6095D01*
Y6140D01*
X2705Y6185D01*
X2570D01*
X2300Y4350D02*
Y4620D01*
X2435D01*
X2480Y4575D01*
Y4485D01*
X2435Y4440D01*
X2300D01*
X2390D02*
X2480Y4350D01*
X2570Y4620D02*
X2750D01*
Y4575D01*
X2570Y4395D01*
Y4350D01*
X1316Y6950D02*
X1046D01*
Y7085D01*
X1091Y7130D01*
X1181D01*
X1226Y7085D01*
Y6950D01*
Y7040D02*
X1316Y7130D01*
X1091Y7220D02*
X1046Y7265D01*
Y7355D01*
X1091Y7400D01*
X1136D01*
X1181Y7355D01*
X1226Y7400D01*
X1271D01*
X1316Y7355D01*
Y7265D01*
X1271Y7220D01*
X1226D01*
X1181Y7265D01*
X1136Y7220D01*
X1091D01*
X1181Y7265D02*
Y7355D01*
X1350Y5300D02*
X1080D01*
Y5435D01*
X1125Y5480D01*
X1215D01*
X1260Y5435D01*
Y5300D01*
Y5390D02*
X1350Y5480D01*
X1305Y5570D02*
X1350Y5615D01*
Y5705D01*
X1305Y5750D01*
X1125D01*
X1080Y5705D01*
Y5615D01*
X1125Y5570D01*
X1170D01*
X1215Y5615D01*
Y5750D01*
X610Y11710D02*
X340D01*
Y11845D01*
X385Y11890D01*
X475D01*
X520Y11845D01*
Y11710D01*
Y11800D02*
X610Y11890D01*
Y11980D02*
Y12070D01*
Y12025D01*
X340D01*
X385Y11980D01*
Y12205D02*
X340Y12250D01*
Y12340D01*
X385Y12385D01*
X565D01*
X610Y12340D01*
Y12250D01*
X565Y12205D01*
X385D01*
X-1545Y13455D02*
X-1354Y13645D01*
X-1259Y13550D01*
X-1259Y13486D01*
X-1323Y13423D01*
X-1386Y13423D01*
X-1482Y13518D01*
X-1418Y13455D02*
X-1418Y13327D01*
X-1355Y13264D02*
X-1291Y13200D01*
X-1323Y13232D01*
X-1132Y13422D01*
X-1195Y13423D01*
X-1196Y13104D02*
X-1132Y13041D01*
X-1164Y13073D01*
X-973Y13263D01*
X-1037Y13263D01*
X-669Y11378D02*
Y11648D01*
X-534D01*
X-489Y11603D01*
Y11513D01*
X-534Y11468D01*
X-669D01*
X-579D02*
X-489Y11378D01*
X-399D02*
X-309D01*
X-354D01*
Y11648D01*
X-399Y11603D01*
X5Y11648D02*
X-174D01*
Y11513D01*
X-84Y11558D01*
X-39D01*
X5Y11513D01*
Y11423D01*
X-39Y11378D01*
X-129D01*
X-174Y11423D01*
X10669Y11378D02*
Y11648D01*
X10804D01*
X10849Y11603D01*
Y11513D01*
X10804Y11468D01*
X10669D01*
X10759D02*
X10849Y11378D01*
X10939D02*
X11029D01*
X10984D01*
Y11648D01*
X10939Y11603D01*
X11344Y11648D02*
X11254Y11603D01*
X11164Y11513D01*
Y11423D01*
X11209Y11378D01*
X11299D01*
X11344Y11423D01*
Y11468D01*
X11299Y11513D01*
X11164D01*
X11700Y12950D02*
X11509Y13141D01*
X11605Y13236D01*
X11668D01*
X11732Y13173D01*
X11732Y13109D01*
X11636Y13014D01*
X11700Y13077D02*
X11827D01*
X11891Y13141D02*
X11954Y13204D01*
X11923Y13173D01*
X11732Y13364D01*
X11732Y13300D01*
X11859Y13491D02*
X11986Y13618D01*
X12018Y13586D01*
Y13332D01*
X12050Y13300D01*
X10354Y11772D02*
X10084D01*
Y11907D01*
X10129Y11952D01*
X10219D01*
X10264Y11907D01*
Y11772D01*
Y11862D02*
X10354Y11952D01*
Y12042D02*
Y12132D01*
Y12087D01*
X10084D01*
X10129Y12042D01*
Y12266D02*
X10084Y12311D01*
Y12401D01*
X10129Y12446D01*
X10174D01*
X10219Y12401D01*
X10264Y12446D01*
X10309D01*
X10354Y12401D01*
Y12311D01*
X10309Y12266D01*
X10264D01*
X10219Y12311D01*
X10174Y12266D01*
X10129D01*
X10219Y12311D02*
Y12401D01*
X8510Y6900D02*
Y7170D01*
X8645D01*
X8690Y7125D01*
Y7035D01*
X8645Y6990D01*
X8510D01*
X8600D02*
X8690Y6900D01*
X8960D02*
X8780D01*
X8960Y7080D01*
Y7125D01*
X8915Y7170D01*
X8825D01*
X8780Y7125D01*
X9185Y6900D02*
Y7170D01*
X9050Y7035D01*
X9230D01*
X5975Y7280D02*
X5705D01*
Y7415D01*
X5750Y7460D01*
X5840D01*
X5885Y7415D01*
Y7280D01*
Y7370D02*
X5975Y7460D01*
Y7730D02*
Y7550D01*
X5795Y7730D01*
X5750D01*
X5705Y7685D01*
Y7595D01*
X5750Y7550D01*
X5930Y7820D02*
X5975Y7865D01*
Y7955D01*
X5930Y8000D01*
X5750D01*
X5705Y7955D01*
Y7865D01*
X5750Y7820D01*
X5795D01*
X5840Y7865D01*
Y8000D01*
X6535Y8819D02*
Y9089D01*
X6670D01*
X6715Y9044D01*
Y8954D01*
X6670Y8909D01*
X6535D01*
X6625D02*
X6715Y8819D01*
X6805Y9044D02*
X6850Y9089D01*
X6940D01*
X6985Y9044D01*
Y8999D01*
X6940Y8954D01*
X6895D01*
X6940D01*
X6985Y8909D01*
Y8864D01*
X6940Y8819D01*
X6850D01*
X6805Y8864D01*
X7075Y9044D02*
X7120Y9089D01*
X7210D01*
X7255Y9044D01*
Y8864D01*
X7210Y8819D01*
X7120D01*
X7075Y8864D01*
Y9044D01*
X3870Y8920D02*
X3825Y8875D01*
Y8785D01*
X3870Y8740D01*
X4049D01*
X4094Y8785D01*
Y8875D01*
X4049Y8920D01*
X4094Y9190D02*
Y9010D01*
X3915Y9190D01*
X3870D01*
X3825Y9145D01*
Y9055D01*
X3870Y9010D01*
Y9280D02*
X3825Y9325D01*
Y9415D01*
X3870Y9460D01*
X3915D01*
X3960Y9415D01*
Y9370D01*
Y9415D01*
X4005Y9460D01*
X4049D01*
X4094Y9415D01*
Y9325D01*
X4049Y9280D01*
X5692Y10363D02*
X5647Y10408D01*
X5557D01*
X5512Y10363D01*
Y10183D01*
X5557Y10138D01*
X5647D01*
X5692Y10183D01*
X5962Y10138D02*
X5782D01*
X5962Y10318D01*
Y10363D01*
X5917Y10408D01*
X5827D01*
X5782Y10363D01*
X6187Y10138D02*
Y10408D01*
X6052Y10273D01*
X6232D01*
X8020Y11613D02*
X7975Y11658D01*
X7885D01*
X7840Y11613D01*
Y11433D01*
X7885Y11388D01*
X7975D01*
X8020Y11433D01*
X8290Y11388D02*
X8110D01*
X8290Y11568D01*
Y11613D01*
X8245Y11658D01*
X8155D01*
X8110Y11613D01*
X8560Y11658D02*
X8470Y11613D01*
X8380Y11523D01*
Y11433D01*
X8425Y11388D01*
X8515D01*
X8560Y11433D01*
Y11478D01*
X8515Y11523D01*
X8380D01*
X7602Y5377D02*
X7538Y5382D01*
X7469Y5324D01*
X7464Y5261D01*
X7579Y5123D01*
X7643Y5117D01*
X7712Y5175D01*
X7717Y5239D01*
X7918Y5349D02*
X7745Y5556D01*
X7728Y5365D01*
X7866Y5481D01*
X3830Y3802D02*
X3785Y3757D01*
Y3667D01*
X3830Y3622D01*
X4010D01*
X4055Y3667D01*
Y3757D01*
X4010Y3802D01*
X3785Y4072D02*
Y3892D01*
X3920D01*
X3875Y3982D01*
Y4027D01*
X3920Y4072D01*
X4010D01*
X4055Y4027D01*
Y3937D01*
X4010Y3892D01*
X6475Y580D02*
X6430Y535D01*
Y445D01*
X6475Y400D01*
X6655D01*
X6700Y445D01*
Y535D01*
X6655Y580D01*
X6430Y670D02*
Y850D01*
X6475D01*
X6655Y670D01*
X6700D01*
X6730Y275D02*
X6685Y320D01*
X6595D01*
X6550Y275D01*
Y95D01*
X6595Y50D01*
X6685D01*
X6730Y95D01*
X6820Y50D02*
X6910D01*
X6865D01*
Y320D01*
X6820Y275D01*
X7930Y2325D02*
X7885Y2370D01*
X7795D01*
X7750Y2325D01*
Y2145D01*
X7795Y2100D01*
X7885D01*
X7930Y2145D01*
X8020Y2325D02*
X8065Y2370D01*
X8155D01*
X8200Y2325D01*
Y2280D01*
X8155Y2235D01*
X8200Y2190D01*
Y2145D01*
X8155Y2100D01*
X8065D01*
X8020Y2145D01*
Y2190D01*
X8065Y2235D01*
X8020Y2280D01*
Y2325D01*
X8065Y2235D02*
X8155D01*
X7851Y5052D02*
X7787Y5057D01*
X7718Y4999D01*
X7713Y4936D01*
X7829Y4798D01*
X7892Y4793D01*
X7961Y4851D01*
X7966Y4914D01*
X8035Y4972D02*
X8099Y4966D01*
X8168Y5024D01*
X8173Y5087D01*
X8058Y5225D01*
X7994Y5231D01*
X7925Y5173D01*
X7920Y5110D01*
X7949Y5075D01*
X8012Y5070D01*
X8115Y5156D01*
X6075Y580D02*
X6030Y535D01*
Y445D01*
X6075Y400D01*
X6255D01*
X6300Y445D01*
Y535D01*
X6255Y580D01*
X6030Y850D02*
X6075Y760D01*
X6165Y670D01*
X6255D01*
X6300Y715D01*
Y805D01*
X6255Y850D01*
X6210D01*
X6165Y805D01*
Y670D01*
X7930Y1925D02*
X7885Y1970D01*
X7795D01*
X7750Y1925D01*
Y1745D01*
X7795Y1700D01*
X7885D01*
X7930Y1745D01*
X8200Y1700D02*
X8020D01*
X8200Y1880D01*
Y1925D01*
X8155Y1970D01*
X8065D01*
X8020Y1925D01*
X5580Y1000D02*
X5850D01*
Y1180D01*
Y1270D02*
Y1360D01*
Y1315D01*
X5580D01*
X5625Y1270D01*
X4780Y1865D02*
X4735Y1910D01*
X4645D01*
X4600Y1865D01*
Y1685D01*
X4645Y1640D01*
X4735D01*
X4780Y1685D01*
X4870Y1865D02*
X4915Y1910D01*
X5005D01*
X5050Y1865D01*
Y1820D01*
X5005Y1775D01*
X4960D01*
X5005D01*
X5050Y1730D01*
Y1685D01*
X5005Y1640D01*
X4915D01*
X4870Y1685D01*
X5731Y6485D02*
X5686Y6530D01*
X5596D01*
X5551Y6485D01*
Y6305D01*
X5596Y6260D01*
X5686D01*
X5731Y6305D01*
X5821Y6260D02*
X5911D01*
X5866D01*
Y6530D01*
X5821Y6485D01*
X6226Y6260D02*
X6046D01*
X6226Y6440D01*
Y6485D01*
X6181Y6530D01*
X6091D01*
X6046Y6485D01*
X6637D02*
X6592Y6530D01*
X6502D01*
X6457Y6485D01*
Y6305D01*
X6502Y6260D01*
X6592D01*
X6637Y6305D01*
X6727Y6260D02*
X6817D01*
X6772D01*
Y6530D01*
X6727Y6485D01*
X6952Y6260D02*
X7042D01*
X6997D01*
Y6530D01*
X6952Y6485D01*
X4806Y10363D02*
X4761Y10408D01*
X4671D01*
X4626Y10363D01*
Y10183D01*
X4671Y10138D01*
X4761D01*
X4806Y10183D01*
X5076Y10138D02*
X4896D01*
X5076Y10318D01*
Y10363D01*
X5031Y10408D01*
X4941D01*
X4896Y10363D01*
X5346Y10408D02*
X5166D01*
Y10273D01*
X5256Y10318D01*
X5301D01*
X5346Y10273D01*
Y10183D01*
X5301Y10138D01*
X5211D01*
X5166Y10183D01*
X11941Y-859D02*
X11750Y-1050D01*
X11877Y-1177D01*
X12132Y-1050D02*
X11941Y-1241D01*
X12036Y-1336D01*
X12100D01*
X12227Y-1209D01*
Y-1145D01*
X12132Y-1050D01*
X12291Y-1273D02*
X12354D01*
X12418Y-1336D01*
Y-1400D01*
X12386Y-1432D01*
X12323D01*
X12291Y-1400D01*
X12323Y-1432D01*
X12323Y-1495D01*
X12291Y-1527D01*
X12227Y-1527D01*
X12164Y-1464D01*
Y-1400D01*
X-1841Y-1359D02*
X-1650Y-1550D01*
X-1523Y-1423D01*
X-1650Y-1168D02*
X-1459Y-1359D01*
X-1364Y-1264D01*
Y-1200D01*
X-1491Y-1073D01*
X-1555D01*
X-1650Y-1168D01*
X-1173Y-1073D02*
X-1364Y-882D01*
Y-1073D01*
X-1236Y-946D01*
X11500Y-1300D02*
X11693Y-1111D01*
X11787Y-1207D01*
X11787Y-1271D01*
X11722Y-1334D01*
X11659Y-1333D01*
X11564Y-1237D01*
X11627Y-1301D02*
X11626Y-1428D01*
X11815Y-1621D02*
X11689Y-1493D01*
X11944Y-1495D01*
X11976Y-1463D01*
X11976Y-1400D01*
X11913Y-1335D01*
X11850Y-1335D01*
X12039Y-1527D02*
X12102Y-1528D01*
X12165Y-1592D01*
X12165Y-1656D01*
X12133Y-1687D01*
X12069Y-1687D01*
X12069Y-1750D01*
X12037Y-1782D01*
X11973Y-1781D01*
X11910Y-1717D01*
X11910Y-1654D01*
X11943Y-1622D01*
X12006Y-1623D01*
X12007Y-1559D01*
X12039Y-1527D01*
X12006Y-1623D02*
X12069Y-1687D01*
X11890Y-748D02*
X11620D01*
Y-613D01*
X11665Y-568D01*
X11755D01*
X11800Y-613D01*
Y-748D01*
Y-658D02*
X11890Y-568D01*
X11665Y-478D02*
X11620Y-433D01*
Y-343D01*
X11665Y-298D01*
X11710D01*
X11755Y-343D01*
Y-388D01*
Y-343D01*
X11800Y-298D01*
X11845D01*
X11890Y-343D01*
Y-433D01*
X11845Y-478D01*
X11890Y-208D02*
Y-118D01*
Y-163D01*
X11620D01*
X11665Y-208D01*
X10250Y-400D02*
X9980D01*
Y-265D01*
X10025Y-220D01*
X10115D01*
X10160Y-265D01*
Y-400D01*
Y-310D02*
X10250Y-220D01*
X10025Y-130D02*
X9980Y-85D01*
Y5D01*
X10025Y50D01*
X10070D01*
X10115Y5D01*
Y-40D01*
Y5D01*
X10160Y50D01*
X10205D01*
X10250Y5D01*
Y-85D01*
X10205Y-130D01*
X10250Y320D02*
Y140D01*
X10070Y320D01*
X10025D01*
X9980Y275D01*
Y185D01*
X10025Y140D01*
X570Y-500D02*
X300D01*
Y-365D01*
X345Y-320D01*
X435D01*
X480Y-365D01*
Y-500D01*
Y-410D02*
X570Y-320D01*
X345Y-230D02*
X300Y-185D01*
Y-95D01*
X345Y-50D01*
X390D01*
X435Y-95D01*
Y-140D01*
Y-95D01*
X480Y-50D01*
X525D01*
X570Y-95D01*
Y-185D01*
X525Y-230D01*
X345Y40D02*
X300Y85D01*
Y175D01*
X345Y220D01*
X390D01*
X435Y175D01*
Y130D01*
Y175D01*
X480Y220D01*
X525D01*
X570Y175D01*
Y85D01*
X525Y40D01*
X-570Y240D02*
Y510D01*
X-435D01*
X-390Y465D01*
Y375D01*
X-435Y330D01*
X-570D01*
X-480D02*
X-390Y240D01*
X-300Y465D02*
X-255Y510D01*
X-165D01*
X-120Y465D01*
Y420D01*
X-165Y375D01*
X-210D01*
X-165D01*
X-120Y330D01*
Y285D01*
X-165Y240D01*
X-255D01*
X-300Y285D01*
X105Y240D02*
Y510D01*
X-30Y375D01*
X150D01*
X-1388Y-1811D02*
X-1579Y-1620D01*
X-1483Y-1525D01*
X-1420D01*
X-1356Y-1588D01*
X-1356Y-1652D01*
X-1451Y-1747D01*
X-1388Y-1684D02*
X-1261D01*
X-1356Y-1461D02*
X-1356Y-1398D01*
X-1292Y-1334D01*
X-1229D01*
X-1197Y-1366D01*
Y-1429D01*
X-1229Y-1461D01*
X-1197Y-1429D01*
X-1133Y-1429D01*
X-1102Y-1461D01*
Y-1525D01*
X-1165Y-1588D01*
X-1229D01*
X-1070Y-1111D02*
X-1197Y-1238D01*
X-1102Y-1334D01*
X-1070Y-1238D01*
X-1038Y-1207D01*
X-974D01*
X-911Y-1270D01*
X-911Y-1334D01*
X-974Y-1398D01*
X-1038D01*
X5625Y180D02*
X5580Y135D01*
Y45D01*
X5625Y0D01*
X5805D01*
X5850Y45D01*
Y135D01*
X5805Y180D01*
X5850Y450D02*
Y270D01*
X5670Y450D01*
X5625D01*
X5580Y405D01*
Y315D01*
X5625Y270D01*
X5805Y540D02*
X5850Y585D01*
Y675D01*
X5805Y720D01*
X5625D01*
X5580Y675D01*
Y585D01*
X5625Y540D01*
X5670D01*
X5715Y585D01*
Y720D01*
X5580Y-1050D02*
X5850D01*
Y-870D01*
Y-645D02*
X5580D01*
X5715Y-780D01*
Y-600D01*
X4200Y-30D02*
Y-300D01*
X4380D01*
X4650Y-30D02*
X4470D01*
Y-165D01*
X4560Y-120D01*
X4605D01*
X4650Y-165D01*
Y-255D01*
X4605Y-300D01*
X4515D01*
X4470Y-255D01*
X3691Y6742D02*
X3421D01*
Y6877D01*
X3466Y6922D01*
X3556D01*
X3601Y6877D01*
Y6742D01*
Y6832D02*
X3691Y6922D01*
X3466Y7012D02*
X3421Y7057D01*
Y7147D01*
X3466Y7192D01*
X3511D01*
X3556Y7147D01*
Y7102D01*
Y7147D01*
X3601Y7192D01*
X3646D01*
X3691Y7147D01*
Y7057D01*
X3646Y7012D01*
Y7282D02*
X3691Y7327D01*
Y7417D01*
X3646Y7462D01*
X3466D01*
X3421Y7417D01*
Y7327D01*
X3466Y7282D01*
X3511D01*
X3556Y7327D01*
Y7462D01*
X4646Y5413D02*
Y5683D01*
X4781D01*
X4826Y5638D01*
Y5548D01*
X4781Y5503D01*
X4646D01*
X4736D02*
X4826Y5413D01*
X5051D02*
Y5683D01*
X4916Y5548D01*
X5096D01*
X5185Y5638D02*
X5230Y5683D01*
X5320D01*
X5365Y5638D01*
Y5458D01*
X5320Y5413D01*
X5230D01*
X5185Y5458D01*
Y5638D01*
X9618Y2065D02*
X9573Y2020D01*
Y1930D01*
X9618Y1885D01*
X9663D01*
X9708Y1930D01*
Y2020D01*
X9753Y2065D01*
X9798D01*
X9843Y2020D01*
Y1930D01*
X9798Y1885D01*
X9573Y2155D02*
X9843D01*
Y2290D01*
X9798Y2335D01*
X9753D01*
X9708Y2290D01*
Y2155D01*
Y2290D01*
X9663Y2335D01*
X9618D01*
X9573Y2290D01*
Y2155D01*
X9618Y2425D02*
X9573Y2470D01*
Y2560D01*
X9618Y2605D01*
X9663D01*
X9708Y2560D01*
Y2515D01*
Y2560D01*
X9753Y2605D01*
X9798D01*
X9843Y2560D01*
Y2470D01*
X9798Y2425D01*
X11172Y686D02*
Y750D01*
X11108Y814D01*
X11045Y814D01*
X11013Y782D01*
Y718D01*
X11077Y654D01*
Y591D01*
X11045Y559D01*
X10981Y559D01*
X10918Y623D01*
Y686D01*
X11268Y654D02*
X11077Y464D01*
X11172Y368D01*
X11236D01*
X11268Y400D01*
X11268Y464D01*
X11172Y559D01*
X11268Y464D01*
X11331D01*
X11363Y495D01*
Y559D01*
X11268Y654D01*
X11363Y177D02*
X11554Y368D01*
X11363D01*
X11490Y241D01*
X1325Y2247D02*
X1280Y2202D01*
Y2112D01*
X1325Y2067D01*
X1370D01*
X1415Y2112D01*
Y2202D01*
X1460Y2247D01*
X1505D01*
X1550Y2202D01*
Y2112D01*
X1505Y2067D01*
X1280Y2337D02*
X1550D01*
Y2472D01*
X1505Y2517D01*
X1460D01*
X1415Y2472D01*
Y2337D01*
Y2472D01*
X1370Y2517D01*
X1325D01*
X1280Y2472D01*
Y2337D01*
X1550Y2607D02*
Y2697D01*
Y2652D01*
X1280D01*
X1325Y2607D01*
X8667Y2362D02*
Y2452D01*
Y2407D01*
X8937D01*
Y2362D01*
Y2452D01*
X8667Y2722D02*
Y2632D01*
X8712Y2587D01*
X8892D01*
X8937Y2632D01*
Y2722D01*
X8892Y2767D01*
X8712D01*
X8667Y2722D01*
Y3037D02*
Y2857D01*
X8802D01*
X8757Y2947D01*
Y2992D01*
X8802Y3037D01*
X8892D01*
X8937Y2992D01*
Y2902D01*
X8892Y2857D01*
X7985Y640D02*
X7895D01*
X7850Y595D01*
Y415D01*
X7895Y370D01*
X7985D01*
X8030Y415D01*
Y595D01*
X7985Y640D01*
X8120Y370D02*
Y640D01*
X8300Y370D01*
Y640D01*
X8390Y370D02*
X8570Y550D01*
X8795Y640D02*
X8705D01*
X8660Y595D01*
Y415D01*
X8705Y370D01*
X8795D01*
X8840Y415D01*
Y595D01*
X8795Y640D01*
X9110D02*
X8930D01*
Y505D01*
X9020D01*
X8930D01*
Y370D01*
X9380Y640D02*
X9200D01*
Y505D01*
X9290D01*
X9200D01*
Y370D01*
X433Y2717D02*
X260Y2923D01*
X571Y2832D01*
X397Y3039D01*
X604Y3212D02*
X466Y3097D01*
X553Y2993D01*
X622Y3051D01*
X553Y2993D01*
X640Y2890D01*
X840Y3352D02*
X776Y3357D01*
X708Y3299D01*
X702Y3236D01*
X818Y3098D01*
X881Y3092D01*
X950Y3150D01*
X956Y3214D01*
X1191Y3353D02*
X1053Y3237D01*
X1076Y3491D01*
X1047Y3525D01*
X983Y3531D01*
X914Y3473D01*
X909Y3409D01*
X433Y1732D02*
X260Y1939D01*
X571Y1848D01*
X397Y2055D01*
X604Y2228D02*
X466Y2113D01*
X553Y2009D01*
X622Y2067D01*
X553Y2009D01*
X640Y1906D01*
X840Y2367D02*
X776Y2373D01*
X708Y2315D01*
X702Y2252D01*
X818Y2114D01*
X881Y2108D01*
X950Y2166D01*
X956Y2229D01*
X1053Y2253D02*
X1122Y2311D01*
X1088Y2282D01*
X914Y2488D01*
X909Y2425D01*
X10127Y600D02*
Y690D01*
Y645D01*
X10397D01*
Y600D01*
Y690D01*
X10127Y960D02*
Y870D01*
X10172Y825D01*
X10352D01*
X10397Y870D01*
Y960D01*
X10352Y1005D01*
X10172D01*
X10127Y960D01*
X10397Y1230D02*
X10127D01*
X10262Y1095D01*
Y1275D01*
X10127Y1600D02*
Y1690D01*
Y1645D01*
X10397D01*
Y1600D01*
Y1690D01*
X10127Y1960D02*
Y1870D01*
X10172Y1825D01*
X10352D01*
X10397Y1870D01*
Y1960D01*
X10352Y2005D01*
X10172D01*
X10127Y1960D01*
X10172Y2095D02*
X10127Y2140D01*
Y2230D01*
X10172Y2275D01*
X10217D01*
X10262Y2230D01*
Y2185D01*
Y2230D01*
X10307Y2275D01*
X10352D01*
X10397Y2230D01*
Y2140D01*
X10352Y2095D01*
X10127Y2600D02*
Y2690D01*
Y2645D01*
X10397D01*
Y2600D01*
Y2690D01*
X10127Y2960D02*
Y2870D01*
X10172Y2825D01*
X10352D01*
X10397Y2870D01*
Y2960D01*
X10352Y3005D01*
X10172D01*
X10127Y2960D01*
X10397Y3275D02*
Y3095D01*
X10217Y3275D01*
X10172D01*
X10127Y3230D01*
Y3140D01*
X10172Y3095D01*
X10127Y3650D02*
Y3740D01*
Y3695D01*
X10397D01*
Y3650D01*
Y3740D01*
X10127Y4010D02*
Y3920D01*
X10172Y3875D01*
X10352D01*
X10397Y3920D01*
Y4010D01*
X10352Y4055D01*
X10172D01*
X10127Y4010D01*
X10397Y4145D02*
Y4235D01*
Y4190D01*
X10127D01*
X10172Y4145D01*
X10127Y4600D02*
Y4690D01*
Y4645D01*
X10397D01*
Y4600D01*
Y4690D01*
X10127Y4960D02*
Y4870D01*
X10172Y4825D01*
X10352D01*
X10397Y4870D01*
Y4960D01*
X10352Y5005D01*
X10172D01*
X10127Y4960D01*
X10172Y5095D02*
X10127Y5140D01*
Y5230D01*
X10172Y5275D01*
X10352D01*
X10397Y5230D01*
Y5140D01*
X10352Y5095D01*
X10172D01*
Y6732D02*
X10127Y6777D01*
Y6867D01*
X10172Y6912D01*
X10217D01*
X10262Y6867D01*
Y6822D01*
Y6867D01*
X10307Y6912D01*
X10352D01*
X10397Y6867D01*
Y6777D01*
X10352Y6732D01*
X10127Y7002D02*
X10307D01*
X10397Y7092D01*
X10307Y7182D01*
X10127D01*
X10172Y7739D02*
X10127Y7694D01*
Y7604D01*
X10172Y7559D01*
X10352D01*
X10397Y7604D01*
Y7694D01*
X10352Y7739D01*
X10262D01*
Y7649D01*
X10397Y7829D02*
X10127D01*
X10397Y8009D01*
X10127D01*
Y8099D02*
X10397D01*
Y8234D01*
X10352Y8279D01*
X10172D01*
X10127Y8234D01*
Y8099D01*
X10172Y8780D02*
X10127Y8735D01*
Y8645D01*
X10172Y8600D01*
X10217D01*
X10262Y8645D01*
Y8735D01*
X10307Y8780D01*
X10352D01*
X10397Y8735D01*
Y8645D01*
X10352Y8600D01*
X10172Y9050D02*
X10127Y9005D01*
Y8915D01*
X10172Y8870D01*
X10352D01*
X10397Y8915D01*
Y9005D01*
X10352Y9050D01*
X10127Y9140D02*
X10397D01*
Y9320D01*
X10172Y9747D02*
X10127Y9702D01*
Y9612D01*
X10172Y9567D01*
X10217D01*
X10262Y9612D01*
Y9702D01*
X10307Y9747D01*
X10352D01*
X10397Y9702D01*
Y9612D01*
X10352Y9567D01*
X10127Y9837D02*
X10397D01*
Y9972D01*
X10352Y10017D01*
X10172D01*
X10127Y9972D01*
Y9837D01*
X10397Y10107D02*
X10217D01*
X10127Y10197D01*
X10217Y10287D01*
X10397D01*
X10262D01*
Y10107D01*
X8212Y6378D02*
Y6558D01*
X8122Y6468D02*
X8301D01*
X10127Y10472D02*
X10307D01*
X10397Y10562D01*
X10307Y10652D01*
X10127D01*
Y10742D02*
X10397D01*
Y10877D01*
X10352Y10922D01*
X10307D01*
X10262Y10877D01*
Y10742D01*
Y10877D01*
X10217Y10922D01*
X10172D01*
X10127Y10877D01*
Y10742D01*
Y11012D02*
X10352D01*
X10397Y11057D01*
Y11147D01*
X10352Y11192D01*
X10127D01*
X10172Y11462D02*
X10127Y11417D01*
Y11327D01*
X10172Y11282D01*
X10217D01*
X10262Y11327D01*
Y11417D01*
X10307Y11462D01*
X10352D01*
X10397Y11417D01*
Y11327D01*
X10352Y11282D01*
X10127Y5450D02*
X10307D01*
X10397Y5540D01*
X10307Y5630D01*
X10127D01*
Y5720D02*
X10397D01*
Y5855D01*
X10352Y5900D01*
X10307D01*
X10262Y5855D01*
Y5720D01*
Y5855D01*
X10217Y5900D01*
X10172D01*
X10127Y5855D01*
Y5720D01*
X10397Y5990D02*
X10217D01*
X10127Y6080D01*
X10217Y6170D01*
X10397D01*
X10262D01*
Y5990D01*
X10127Y6260D02*
Y6440D01*
Y6350D01*
X10397D01*
X433Y3740D02*
X502Y3798D01*
X468Y3769D01*
X294Y3976D01*
X288Y3912D01*
X570Y4207D02*
X530Y4115D01*
X519Y3988D01*
X576Y3919D01*
X640Y3914D01*
X709Y3971D01*
X714Y4035D01*
X685Y4069D01*
X622Y4075D01*
X519Y3988D01*
X502Y5889D02*
Y5709D01*
X322Y5889D01*
X277D01*
X232Y5844D01*
Y5754D01*
X277Y5709D01*
Y5979D02*
X232Y6024D01*
Y6114D01*
X277Y6159D01*
X457D01*
X502Y6114D01*
Y6024D01*
X457Y5979D01*
X277D01*
X502Y7717D02*
Y7807D01*
Y7762D01*
X232D01*
X277Y7717D01*
X457Y7941D02*
X502Y7986D01*
Y8076D01*
X457Y8121D01*
X277D01*
X232Y8076D01*
Y7986D01*
X277Y7941D01*
X322D01*
X367Y7986D01*
Y8121D01*
X502Y10748D02*
X232D01*
X322Y10838D01*
X232Y10928D01*
X502D01*
Y11018D02*
Y11108D01*
Y11063D01*
X232D01*
X277Y11018D01*
X502Y9724D02*
Y9814D01*
Y9769D01*
X232D01*
X277Y9724D01*
X232Y9949D02*
Y10129D01*
X277D01*
X457Y9949D01*
X502D01*
X348Y997D02*
X284Y1002D01*
X215Y944D01*
X210Y881D01*
X325Y743D01*
X389Y738D01*
X458Y795D01*
X463Y859D01*
X405Y928D01*
X337Y870D01*
X561Y882D02*
X388Y1089D01*
X699Y998D01*
X525Y1205D01*
X594Y1262D02*
X768Y1056D01*
X871Y1142D01*
X877Y1206D01*
X761Y1344D01*
X698Y1349D01*
X594Y1262D01*
X502Y8701D02*
X232D01*
X322Y8791D01*
X232Y8881D01*
X502D01*
Y9151D02*
Y8971D01*
X322Y9151D01*
X277D01*
X232Y9106D01*
Y9016D01*
X277Y8971D01*
X502Y6693D02*
X232D01*
X322Y6783D01*
X232Y6873D01*
X502D01*
X277Y6963D02*
X232Y7008D01*
Y7098D01*
X277Y7143D01*
X322D01*
X367Y7098D01*
Y7053D01*
Y7098D01*
X412Y7143D01*
X457D01*
X502Y7098D01*
Y7008D01*
X457Y6963D01*
X502Y4685D02*
X232D01*
X322Y4775D01*
X232Y4865D01*
X502D01*
Y5090D02*
X232D01*
X367Y4955D01*
Y5135D01*
X1755Y11412D02*
X1575D01*
Y11277D01*
X1665D01*
X1575D01*
Y11142D01*
X1845D02*
Y11412D01*
X1980D01*
X2025Y11367D01*
Y11277D01*
X1980Y11232D01*
X1845D01*
X1935D02*
X2025Y11142D01*
X2250Y11412D02*
X2160D01*
X2115Y11367D01*
Y11187D01*
X2160Y11142D01*
X2250D01*
X2295Y11187D01*
Y11367D01*
X2250Y11412D01*
X2385Y11142D02*
Y11412D01*
X2564Y11142D01*
Y11412D01*
X2654D02*
X2834D01*
X2744D01*
Y11142D01*
D42*
X3690Y5811D02*
G03*
X3690Y5811I-3J0D01*
G01*
X5112Y7844D02*
G03*
X5112Y7844I-142J0D01*
G01*
X3252Y11260D02*
G03*
X3252Y11260I-142J0D01*
G01*
D71*
X8114Y7026D02*
G03*
X8114Y7026I-49J0D01*
G01*
X6309Y8268D02*
G03*
X6309Y8268I-49J0D01*
G01*
X6420Y4945D02*
G03*
X6420Y4945I-49J0D01*
G01*
X1645Y4546D02*
G03*
X1645Y4546I-39J0D01*
G01*
X9638Y11443D02*
G03*
X9638Y11443I-49J0D01*
G01*
X1645Y9536D02*
G03*
X1645Y9536I-39J0D01*
G01*
Y7872D02*
G03*
X1645Y7872I-39J0D01*
G01*
Y6209D02*
G03*
X1645Y6209I-39J0D01*
G01*
D72*
X5177Y10748D02*
G03*
X5177Y10748I-276J0D01*
G01*
X6417D02*
G03*
X6417Y10748I-276J0D01*
G01*
X8986Y7500D02*
G03*
X8986Y7500I-276J0D01*
G01*
X9528Y7510D02*
G03*
X9528Y7510I-276J0D01*
G01*
X5276Y6929D02*
G03*
X5276Y6929I-276J0D01*
G01*
X4626Y9951D02*
G03*
X4626Y9951I-276J0D01*
G01*
X5787Y10748D02*
G03*
X5787Y10748I-276J0D01*
G01*
X9016Y9488D02*
G03*
X9016Y9488I-276J0D01*
G01*
X7087Y9646D02*
X7717D01*
X7087Y9173D02*
Y9646D01*
Y9173D02*
X7717D01*
Y9646D01*
X7598Y9173D02*
Y9646D01*
X7559Y9173D02*
Y9646D01*
X7520Y9173D02*
Y9646D01*
X-618Y12598D02*
X-563D01*
X-394Y12374D02*
Y12429D01*
X-618Y12205D02*
X-563D01*
X-787Y12374D02*
Y12429D01*
X1448Y5136D02*
Y5412D01*
X818Y5845D02*
X1330D01*
X818Y4703D02*
X1330D01*
X818Y5491D02*
Y5845D01*
Y4703D02*
Y5057D01*
X11193Y12598D02*
X11248D01*
X11417Y12374D02*
Y12429D01*
X11193Y12205D02*
X11248D01*
X11024Y12374D02*
Y12429D01*
X-618Y-394D02*
X-563D01*
X-394Y-618D02*
Y-563D01*
X-618Y-787D02*
X-563D01*
X-787Y-618D02*
Y-563D01*
X11193Y-394D02*
X11248D01*
X11417Y-618D02*
Y-563D01*
X11193Y-787D02*
X11248D01*
X11024Y-618D02*
Y-563D01*
X1448Y10126D02*
Y10402D01*
X818Y10835D02*
X1330D01*
X818Y9693D02*
X1330D01*
X818Y10481D02*
Y10835D01*
Y9693D02*
Y10048D01*
X1448Y8463D02*
Y8739D01*
X818Y9172D02*
X1330D01*
X818Y8030D02*
X1330D01*
X818Y8817D02*
Y9172D01*
Y8030D02*
Y8384D01*
X1448Y6800D02*
Y7075D01*
X818Y7508D02*
X1330D01*
X818Y6367D02*
X1330D01*
X818Y7154D02*
Y7508D01*
Y6367D02*
Y6721D01*
D73*
X6903Y7124D02*
X7671D01*
X6903Y8109D02*
X7671D01*
X5925Y9547D02*
X6004D01*
Y9469D02*
Y9547D01*
X4665D02*
X4744D01*
X4665Y9469D02*
Y9547D01*
Y8209D02*
Y8287D01*
Y8209D02*
X4744D01*
X5925D02*
X6004D01*
Y8287D01*
X6457Y5167D02*
X6929D01*
X6457Y5758D02*
X6929D01*
X4324Y4591D02*
X4521D01*
X4324Y4394D02*
Y4591D01*
Y2229D02*
Y2426D01*
Y2229D02*
X4521D01*
X6489D02*
X6686D01*
Y2426D01*
X6489Y4591D02*
X6686Y4394D01*
X7598Y3898D02*
X7677D01*
X7598Y4134D02*
X7677Y4134D01*
X8634Y4160D02*
X8694Y4210D01*
X8786Y3979D02*
X8846Y4029D01*
X7561Y10547D02*
Y11187D01*
X7611D01*
X7561Y9888D02*
Y10528D01*
Y9888D02*
X7611D01*
X9599D02*
X9648D01*
Y10528D01*
Y10547D02*
Y11187D01*
X9599D02*
X9648D01*
X7323Y4370D02*
X7402D01*
X7323Y4606D02*
X7402D01*
D74*
X5300Y-1999D02*
D03*
M02*
