G04 Layer_Color=16711935*
%FSLAX24Y24*%
%MOIN*%
G70*
G01*
G75*
%ADD82R,0.0308X0.0387*%
%ADD92R,0.0355X0.0375*%
%ADD96R,0.0296X0.0257*%
%ADD99C,0.0454*%
%ADD100R,0.0277X0.0296*%
%ADD101R,0.0296X0.0277*%
%ADD102R,0.0257X0.0296*%
%ADD105O,0.0414X0.0690*%
%ADD106R,0.0454X0.0454*%
%ADD107C,0.0572*%
%ADD108R,0.0572X0.0572*%
%ADD109C,0.0300*%
%ADD110C,0.0769*%
%ADD111C,0.0651*%
%ADD112R,0.0355X0.0197*%
%ADD113R,0.0197X0.0355*%
%ADD114R,0.0611X0.0473*%
%ADD115R,0.0277X0.0631*%
%ADD116R,0.0277X0.0631*%
%ADD117R,0.0611X0.0493*%
%ADD118O,0.0414X0.0158*%
%ADD119O,0.0158X0.0414*%
%ADD120R,0.0867X0.0867*%
%ADD121O,0.0305X0.0136*%
%ADD122O,0.0136X0.0305*%
%ADD123R,0.0420X0.0540*%
%ADD124R,0.0690X0.0611*%
%ADD125R,0.0808X0.0670*%
%ADD126R,0.0217X0.0592*%
%ADD127R,0.0237X0.0237*%
%ADD128R,0.0375X0.0355*%
D82*
X7470Y9193D02*
D03*
X8337D02*
D03*
D92*
X3671Y9173D02*
D03*
X4203D02*
D03*
D96*
X8253Y9750D02*
D03*
X8647D02*
D03*
X7347Y8800D02*
D03*
X6953D02*
D03*
X1457Y3543D02*
D03*
X1063D02*
D03*
X1063Y2992D02*
D03*
X1457D02*
D03*
X8377Y5800D02*
D03*
X7983D02*
D03*
D99*
X8536Y6772D02*
D03*
X5128Y6299D02*
D03*
X9094Y6772D02*
D03*
X7050Y4050D02*
D03*
X8300Y2800D02*
D03*
X7750D02*
D03*
X2564Y5550D02*
D03*
Y7217D02*
D03*
Y8883D02*
D03*
Y10550D02*
D03*
D100*
X7283Y11024D02*
D03*
Y11417D02*
D03*
X20Y-103D02*
D03*
Y-497D02*
D03*
X10500Y-103D02*
D03*
Y-497D02*
D03*
X10100Y8827D02*
D03*
Y8433D02*
D03*
X7350Y4603D02*
D03*
Y4997D02*
D03*
X10600Y11903D02*
D03*
Y12297D02*
D03*
X3465Y10630D02*
D03*
Y11024D02*
D03*
X100Y11903D02*
D03*
Y12297D02*
D03*
D101*
X-306Y-1100D02*
D03*
X-700D02*
D03*
X-423Y-40D02*
D03*
X-817D02*
D03*
X10903Y-1100D02*
D03*
X11297D02*
D03*
X11297Y-100D02*
D03*
X10903D02*
D03*
X9439Y1673D02*
D03*
X9833D02*
D03*
X8387Y5450D02*
D03*
X7993D02*
D03*
X8701Y9213D02*
D03*
X9094D02*
D03*
X9872D02*
D03*
X9478D02*
D03*
X10983Y11900D02*
D03*
X11377D02*
D03*
X11297Y12900D02*
D03*
X10903D02*
D03*
X-303Y11900D02*
D03*
X-697D02*
D03*
X-797Y12900D02*
D03*
X-403D02*
D03*
X7337Y8400D02*
D03*
X6943D02*
D03*
D102*
X9853Y10943D02*
D03*
Y11337D02*
D03*
X9468Y10943D02*
D03*
Y11337D02*
D03*
X3465Y10236D02*
D03*
Y9843D02*
D03*
X4646Y8819D02*
D03*
Y9213D02*
D03*
Y8425D02*
D03*
Y8031D02*
D03*
D105*
X4031Y10873D02*
D03*
X6629D02*
D03*
D106*
X2564Y5050D02*
D03*
Y6717D02*
D03*
Y8383D02*
D03*
Y10050D02*
D03*
D107*
X9370Y5610D02*
D03*
D108*
Y6201D02*
D03*
D109*
X9153Y8317D02*
D03*
X8720D02*
D03*
X9153Y7883D02*
D03*
X8720D02*
D03*
D110*
X10820Y5930D02*
D03*
Y6930D02*
D03*
Y1930D02*
D03*
Y2930D02*
D03*
X-180Y4930D02*
D03*
Y5930D02*
D03*
X10820Y4930D02*
D03*
X-180Y3930D02*
D03*
Y8930D02*
D03*
Y7930D02*
D03*
Y6930D02*
D03*
X10820Y3930D02*
D03*
Y9930D02*
D03*
Y8930D02*
D03*
X-180Y1930D02*
D03*
Y9930D02*
D03*
Y2930D02*
D03*
X10820Y7930D02*
D03*
D111*
Y930D02*
D03*
X-180Y10930D02*
D03*
X8820Y1930D02*
D03*
X-180Y930D02*
D03*
X10820Y10930D02*
D03*
D112*
X5846Y8465D02*
D03*
Y8701D02*
D03*
X5020D02*
D03*
Y8465D02*
D03*
D113*
X5669Y8996D02*
D03*
X5433D02*
D03*
X5197D02*
D03*
Y8169D02*
D03*
X5433D02*
D03*
X5669D02*
D03*
D114*
X9289Y565D02*
D03*
Y1135D02*
D03*
X7871D02*
D03*
Y565D02*
D03*
D115*
X8974Y11173D02*
D03*
X8226D02*
D03*
Y10327D02*
D03*
X8600D02*
D03*
D116*
X8974Y10327D02*
D03*
D117*
X10039Y5630D02*
D03*
Y6220D02*
D03*
D118*
X9596Y8395D02*
D03*
Y8198D02*
D03*
Y8002D02*
D03*
Y7805D02*
D03*
X8277D02*
D03*
Y8002D02*
D03*
Y8198D02*
D03*
Y8395D02*
D03*
D119*
X9232Y7441D02*
D03*
X9035D02*
D03*
X8838D02*
D03*
X8641D02*
D03*
Y8759D02*
D03*
X8838D02*
D03*
X9035D02*
D03*
X9232D02*
D03*
D120*
X8937Y8100D02*
D03*
D121*
X8325Y4686D02*
D03*
Y4529D02*
D03*
Y4371D02*
D03*
Y4214D02*
D03*
X7675D02*
D03*
Y4371D02*
D03*
Y4529D02*
D03*
Y4686D02*
D03*
D122*
X8236Y3968D02*
D03*
X8079D02*
D03*
X7921D02*
D03*
X7764D02*
D03*
Y4932D02*
D03*
X7921D02*
D03*
X8079D02*
D03*
X8236D02*
D03*
D123*
X2060Y6910D02*
D03*
X660D02*
D03*
X2060Y10230D02*
D03*
X660D02*
D03*
X2060Y8570D02*
D03*
X660D02*
D03*
X2060Y5250D02*
D03*
X660D02*
D03*
D124*
X4070Y9909D02*
D03*
X6590D02*
D03*
D125*
X5802Y10873D02*
D03*
X4858D02*
D03*
D126*
X5842Y9820D02*
D03*
X5586D02*
D03*
X4818D02*
D03*
X5074D02*
D03*
X5330D02*
D03*
D127*
X-758Y12569D02*
D03*
X-423D02*
D03*
Y12234D02*
D03*
X-758D02*
D03*
X11053Y12567D02*
D03*
X11387D02*
D03*
Y12233D02*
D03*
X11053D02*
D03*
Y-423D02*
D03*
X11387D02*
D03*
Y-757D02*
D03*
X11053D02*
D03*
X-757Y-423D02*
D03*
X-423D02*
D03*
Y-757D02*
D03*
X-757D02*
D03*
D128*
X4213Y8612D02*
D03*
Y8081D02*
D03*
M02*
