G04 Layer_Color=8421504*
%FSLAX24Y24*%
%MOIN*%
G70*
G01*
G75*
%ADD11R,0.0276X0.0118*%
%ADD12R,0.0642X0.0689*%
%ADD14R,0.0669X0.0606*%
%ADD15O,0.0079X0.0276*%
%ADD16O,0.0276X0.0079*%
%ADD17R,0.0248X0.0327*%
%ADD19R,0.0575X0.0535*%
%ADD20R,0.0118X0.0295*%
%ADD21R,0.0728X0.0315*%
%ADD22R,0.0394X0.0709*%
%ADD23R,0.1850X0.1850*%
%ADD24O,0.0256X0.0079*%
%ADD25O,0.0079X0.0256*%
%ADD26R,0.0335X0.0374*%
%ADD27R,0.0295X0.0315*%
G04:AMPARAMS|DCode=28|XSize=19.7mil|YSize=25.6mil|CornerRadius=0mil|HoleSize=0mil|Usage=FLASHONLY|Rotation=310.000|XOffset=0mil|YOffset=0mil|HoleType=Round|Shape=Rectangle|*
%AMROTATEDRECTD28*
4,1,4,-0.0161,-0.0007,0.0035,0.0158,0.0161,0.0007,-0.0035,-0.0158,-0.0161,-0.0007,0.0*
%
%ADD28ROTATEDRECTD28*%

G04:AMPARAMS|DCode=29|XSize=31.5mil|YSize=29.5mil|CornerRadius=0mil|HoleSize=0mil|Usage=FLASHONLY|Rotation=310.000|XOffset=0mil|YOffset=0mil|HoleType=Round|Shape=Rectangle|*
%AMROTATEDRECTD29*
4,1,4,-0.0214,0.0026,0.0012,0.0216,0.0214,-0.0026,-0.0012,-0.0216,-0.0214,0.0026,0.0*
%
%ADD29ROTATEDRECTD29*%

%ADD30R,0.0177X0.0177*%
%ADD31R,0.0236X0.0197*%
%ADD32R,0.0400X0.0300*%
%ADD33R,0.0236X0.0512*%
%ADD35R,0.0217X0.0236*%
%ADD36R,0.0236X0.0217*%
%ADD37R,0.0197X0.0236*%
%ADD38R,0.0197X0.0256*%
%ADD39R,0.0256X0.0197*%
D11*
X6706Y7321D02*
D03*
Y7912D02*
D03*
X7848Y7321D02*
D03*
Y7518D02*
D03*
Y7715D02*
D03*
Y7912D02*
D03*
X6706Y7518D02*
D03*
Y7715D02*
D03*
D12*
X7277Y7617D02*
D03*
D14*
X5335Y8878D02*
D03*
D15*
X5728Y8268D02*
D03*
X5571D02*
D03*
X5413D02*
D03*
X5256D02*
D03*
X5098D02*
D03*
X4941D02*
D03*
Y9488D02*
D03*
X5098D02*
D03*
X5256D02*
D03*
X5413D02*
D03*
X5571D02*
D03*
X5728D02*
D03*
D16*
X4724Y8484D02*
D03*
Y8642D02*
D03*
Y8799D02*
D03*
Y8957D02*
D03*
Y9114D02*
D03*
Y9272D02*
D03*
X5945D02*
D03*
Y9114D02*
D03*
Y8957D02*
D03*
Y8799D02*
D03*
Y8642D02*
D03*
Y8484D02*
D03*
D17*
X7835Y9409D02*
D03*
X6969D02*
D03*
D19*
X4183Y6535D02*
D03*
D20*
X4085Y7126D02*
D03*
X4281D02*
D03*
X4478D02*
D03*
X3888D02*
D03*
Y5945D02*
D03*
X4085D02*
D03*
X4478D02*
D03*
X4281D02*
D03*
D21*
X5300Y-1631D02*
D03*
Y-2969D02*
D03*
D22*
X7185Y5463D02*
D03*
X6201D02*
D03*
D23*
X5505Y3410D02*
D03*
D24*
X6696Y4276D02*
D03*
Y4119D02*
D03*
Y3961D02*
D03*
Y3804D02*
D03*
Y3646D02*
D03*
Y3489D02*
D03*
Y3331D02*
D03*
Y3174D02*
D03*
Y3016D02*
D03*
Y2859D02*
D03*
Y2701D02*
D03*
Y2544D02*
D03*
X4314D02*
D03*
Y2701D02*
D03*
Y2859D02*
D03*
Y3016D02*
D03*
Y3174D02*
D03*
Y3331D02*
D03*
Y3489D02*
D03*
Y3646D02*
D03*
Y3804D02*
D03*
Y3961D02*
D03*
Y4119D02*
D03*
Y4276D02*
D03*
D25*
X6371Y2219D02*
D03*
X6214D02*
D03*
X6056D02*
D03*
X5899D02*
D03*
X5741D02*
D03*
X5584D02*
D03*
X5426D02*
D03*
X5269D02*
D03*
X5111D02*
D03*
X4954D02*
D03*
X4796D02*
D03*
X4639D02*
D03*
Y4601D02*
D03*
X4796D02*
D03*
X4954D02*
D03*
X5111D02*
D03*
X5269D02*
D03*
X5426D02*
D03*
X5584D02*
D03*
X5741D02*
D03*
X5899D02*
D03*
X6056D02*
D03*
X6214D02*
D03*
X6371D02*
D03*
D26*
X7089Y1425D02*
D03*
X7541D02*
D03*
Y855D02*
D03*
X7089D02*
D03*
D27*
X7904Y4016D02*
D03*
X7372D02*
D03*
X7096Y4488D02*
D03*
X7628D02*
D03*
D28*
X8321Y4329D02*
D03*
X8608Y4569D02*
D03*
D29*
X8944Y4265D02*
D03*
X8537Y3924D02*
D03*
D30*
X-758Y12234D02*
D03*
Y12569D02*
D03*
X-423D02*
D03*
Y12234D02*
D03*
X11053D02*
D03*
Y12569D02*
D03*
X11388D02*
D03*
Y12234D02*
D03*
X-758Y-758D02*
D03*
Y-423D02*
D03*
X-423D02*
D03*
Y-758D02*
D03*
X11053D02*
D03*
Y-423D02*
D03*
X11388D02*
D03*
Y-758D02*
D03*
D31*
X7913Y8583D02*
D03*
X7520D02*
D03*
X7512Y440D02*
D03*
X7118D02*
D03*
X7118Y1840D02*
D03*
X7512D02*
D03*
X5702Y1760D02*
D03*
X5308D02*
D03*
X7057Y4892D02*
D03*
X7451D02*
D03*
X7118Y2190D02*
D03*
X7512D02*
D03*
X6969Y6004D02*
D03*
X6575D02*
D03*
X5689Y6004D02*
D03*
X6083D02*
D03*
X5645Y9921D02*
D03*
X6039D02*
D03*
X4843Y9921D02*
D03*
X5236D02*
D03*
X9227Y11520D02*
D03*
X8833D02*
D03*
D32*
X1606Y4900D02*
D03*
Y5648D02*
D03*
X779Y5274D02*
D03*
X1606Y9890D02*
D03*
Y10638D02*
D03*
X779Y10264D02*
D03*
X1606Y8227D02*
D03*
Y8975D02*
D03*
X779Y8601D02*
D03*
X1606Y6563D02*
D03*
Y7311D02*
D03*
X779Y6937D02*
D03*
D33*
X9343Y10075D02*
D03*
X8851D02*
D03*
X8359D02*
D03*
X7866D02*
D03*
Y11000D02*
D03*
X8359D02*
D03*
X8851D02*
D03*
X9343D02*
D03*
D35*
X7283Y11417D02*
D03*
Y11024D02*
D03*
X3573Y6073D02*
D03*
Y6467D02*
D03*
X20Y-103D02*
D03*
Y-497D02*
D03*
X10500Y-103D02*
D03*
Y-497D02*
D03*
X6230Y7461D02*
D03*
Y7854D02*
D03*
X8300Y7697D02*
D03*
Y7303D02*
D03*
X10600Y11903D02*
D03*
Y12297D02*
D03*
X100Y11903D02*
D03*
Y12297D02*
D03*
X2000Y5697D02*
D03*
Y5303D02*
D03*
Y7347D02*
D03*
Y6953D02*
D03*
Y4553D02*
D03*
Y4947D02*
D03*
Y6203D02*
D03*
Y6597D02*
D03*
Y8997D02*
D03*
Y8603D02*
D03*
X2050Y10647D02*
D03*
Y10253D02*
D03*
X2000Y7853D02*
D03*
Y8247D02*
D03*
X2050Y9503D02*
D03*
Y9897D02*
D03*
D36*
X4370Y5531D02*
D03*
X3976D02*
D03*
X9157Y8820D02*
D03*
X8763D02*
D03*
X-306Y-1100D02*
D03*
X-700D02*
D03*
X-423Y0D02*
D03*
X-817D02*
D03*
X11297Y-100D02*
D03*
X10903D02*
D03*
X6732Y8583D02*
D03*
X7126D02*
D03*
X10903Y-1100D02*
D03*
X11297D02*
D03*
X10903Y12900D02*
D03*
X11297D02*
D03*
X10983Y11900D02*
D03*
X11377D02*
D03*
X-353D02*
D03*
X-747D02*
D03*
X3937Y7756D02*
D03*
X3543D02*
D03*
X3937Y8307D02*
D03*
X3543D02*
D03*
X-403Y12900D02*
D03*
X-797D02*
D03*
D37*
X3937Y4331D02*
D03*
Y4724D02*
D03*
X6185Y1133D02*
D03*
Y1527D02*
D03*
X6535Y1527D02*
D03*
Y1133D02*
D03*
X8300Y8487D02*
D03*
Y8093D02*
D03*
X4331Y8888D02*
D03*
Y9281D02*
D03*
X5305Y597D02*
D03*
Y203D02*
D03*
D38*
Y1013D02*
D03*
Y1387D02*
D03*
Y-1026D02*
D03*
Y-652D02*
D03*
D39*
X5287Y-200D02*
D03*
X4913D02*
D03*
M02*
