G04 Layer_Color=16711935*
%FSLAX24Y24*%
%MOIN*%
G70*
G01*
G75*
%ADD10C,0.0060*%
D10*
X17913Y19685D02*
X18484Y19114D01*
X7890Y250D02*
X9199D01*
X7640Y0D02*
X7890Y250D01*
X7210Y0D02*
X7640D01*
X9199Y250D02*
X9449Y0D01*
X6820D02*
X7200D01*
X7210D01*
X10787Y1614D02*
Y10276D01*
X-394Y13386D02*
X1181Y11811D01*
X-1575Y-400D02*
Y-394D01*
X-394Y-1575D02*
X1181Y0D01*
X-400Y-1575D02*
X-394D01*
X9449Y0D02*
X11049Y-1600D01*
X9449Y11811D02*
X11024Y13386D01*
X-984D02*
X-394D01*
X-1575Y12205D02*
Y12835D01*
X-7854Y19114D02*
X-1575Y12835D01*
X-7283Y19685D02*
X-984Y13386D01*
X-984D01*
X11024D02*
X11614D01*
X12205Y12200D02*
Y12835D01*
X18484Y19114D01*
X11614Y13386D02*
X17913Y19685D01*
X11049Y-1600D02*
X11639D01*
X17913Y-7874D01*
X18484Y-7303D01*
X12205Y-1024D02*
X18484Y-7303D01*
X-984Y-1575D02*
X-400D01*
X-1575Y-1024D02*
Y-400D01*
X-7854Y-7303D02*
X-1575Y-1024D01*
X-7854Y-7303D02*
X-7283Y-7874D01*
X-984Y-1575D01*
X3800Y0D02*
X4528Y-728D01*
Y-2362D02*
Y-728D01*
X6102Y-2362D02*
Y-718D01*
X6820Y0D01*
X1181D02*
X3800D01*
X1181Y11811D02*
X3586D01*
X3937Y11460D01*
X6760D01*
X7111Y11811D01*
X9449D01*
X4528Y-3128D02*
Y-2362D01*
Y-3128D02*
X4900Y-3500D01*
X5720D01*
X6102Y-3118D01*
Y-2362D01*
X12205Y-1024D02*
Y-394D01*
X11220Y591D02*
X12205Y-394D01*
X11220Y591D02*
Y1181D01*
X10787Y1614D02*
X11220Y1181D01*
Y11216D02*
X12205Y12200D01*
X11220Y10709D02*
Y11216D01*
X10787Y10276D02*
X11220Y10709D01*
X-1575Y-394D02*
X-591Y591D01*
Y10709D02*
Y11220D01*
Y10709D02*
X-157Y10276D01*
Y1614D02*
Y10276D01*
X-1575Y12205D02*
X-591Y11220D01*
X-7854Y19114D02*
X-7283Y19685D01*
X-591Y591D02*
Y1181D01*
X-157Y1614D01*
M02*
