M48
;Layer_Color=9474304
;FILE_FORMAT=2:4
INCH,TZ
;TYPE=PLATED
T1F00S00C0.0120
T2F00S00C0.0130
T4F00S00C0.0236
T5F00S00C0.0276
T6F00S00C0.0354
;TYPE=NON_PLATED
T7F00S00C0.0390
%
T01
X0Y-850
X-290Y-330
X433Y-315
X0Y200
X300Y500
X591Y689
X1378
X1681Y1272
X1693Y2283
X1063Y2717
X787Y2992
Y3543
X1063Y3829
X830Y4790
X1614Y4528
Y5276
X1606Y5944
X1771Y6203
X2008Y5906
X2559Y6102
X3583Y6693
X3543Y7087
Y7468
X3898
X4193Y7461
X4488
X5020Y7786
X5315Y7835
X5236Y7165
X5266Y5856
X4370Y5315
X3661Y5276
X3661Y4961
X3661Y4646
X3663Y4328
X2180Y4050
X2559Y3583
X3150Y3028
X2874Y1260
X4000Y1400
Y1000
Y600
Y200
X4500
Y600
Y1000
Y1400
X4980Y1000
Y600
Y200
X5630
Y600
Y1000
X5640Y-200
X5630Y-600
X4980
X4650Y-200
X4232Y-98
X-580Y290
X98Y1378
X512Y2126
X118Y3425
X98Y4429
Y5413
Y6398
Y7449
X750Y7410
X1606Y7644
X1778Y7897
X2250Y7590
X2600Y7950
X3307Y8307
X3297Y8780
X3937Y8858
X3868Y8553
X4225Y8292
X4559Y9524
X4823Y10305
X5157Y10315
X5472
X4281Y10413
X3150Y10250
X3150Y9449
X2600Y9650
X2362Y9252
X1847Y9503
X1606Y9294
X1620Y8610
X630Y9000
X550Y9790
X98Y9449
X118Y10394
X512Y10709
X502Y11546
X740Y11840
X1024Y11614
X1102Y11063
X1614Y10945
X2047
X2126Y11575
X2795Y10906
X3504Y11575
X1606Y10294
X-120Y11640
X-440Y11600
X118Y8425
X1600Y6950
X830Y5960
X5709Y5620
X5689Y5246
X6673Y5571
X6329Y6004
X6454Y7097
X6781Y7106
X7195Y7047
X7100Y7400
X7454
X7277Y7617
X7100Y7833
X7454
X7590Y8160
X7930
X7894Y8800
X8184Y8794
X8228Y9567
X7578Y9760
X7650Y10050
X7225Y9734
X6969Y9198
X6688Y9075
X6398
X6260Y8721
X6111Y8252
X5896Y7844
X5797Y7047
X6118Y7150
X7616Y7091
X8307Y7087
X8790Y7130
X9090Y7104
X9390Y7211
X9636Y7441
X9153Y7883
Y8317
X8720
Y7883
X8671Y6437
X8622Y5797
X8937Y5630
X8680Y4920
X9080Y4740
X9734Y5000
X10039Y4094
X9528Y3524
X9350Y3274
X9587Y3030
Y2677
X9154
X9587Y2126
X9921Y1339
X10532Y1378
X10354Y630
X10300Y130
X10090Y-330
X9750Y350
X8840Y530
X8325Y525
X8760Y1378
X7850Y1550
X7810Y1840
X7790Y2190
X7515Y2470
X7085
X7008Y3622
X6772Y4528
X7992
X8250Y5162
X7992Y6053
X7399Y6225
X6861Y8120
X7667Y9144
X7550Y10798
X7244Y10690
X6998Y11407
X7579Y11575
X7864Y11398
X8524Y11516
X8465Y10758
X9724Y10748
X9685Y10433
X10512Y10433
X10433Y11260
X10472Y11772
X11000Y11550
X9670Y11570
X9965Y12016
X9459Y9823
X8977
X9250Y9500
X9531Y9331
X9488Y8898
X9700Y8650
X10532Y8465
X10502Y9459
X10630Y7362
X10532Y6398
X10522Y5433
X10591Y3425
X9970Y3051
X10532Y2461
X11600Y-100
X11623Y-423
X7120Y250
X6850Y400
X6600Y200
X6100
X6004Y-98
X6180Y860
X6500Y850
X6733Y915
X6102Y9685
X5993Y10190
X5787Y10394
X6368Y10423
X11633Y12567
X-169Y12569
T02
X4796Y2701
Y3174
Y3646
Y4119
X5269
Y3646
Y3174
Y2701
X5741
X6214
Y3174
X5741
Y3646
Y4119
X6214
Y3646
T04
X2564Y5050
Y5550
Y6717
Y7217
Y8383
Y8883
Y10050
Y10550
T05
X9370Y5610
Y6201
T06
X-180Y930
Y1930
Y2930
Y3930
Y4930
Y5930
Y6930
Y7930
Y8930
Y9930
Y10930
X10820
Y9930
Y8930
Y7930
Y6930
Y5930
Y4930
Y3930
Y2930
Y1930
Y930
X8820Y1930
T07
X1844Y772
X2644
X2244Y2772
M30
